# 18 vertices
v 62.5576 6.46337 -3.93729
v 52.3802 6.76321 -8.70179
v 49.1075 8.08144 -4.45391
v 62.8299 5.43044 -1.04063
v 62.1068 6.4529 -6.74036
v 62.0742 6.31734 -7.29927
v 61.2139 5.55387 -11.0755
v 49.56 7.74359 -1.03287
v 49.4243 8.04907 -1.86124
v 49.0015 8.09188 -4.3712
v 49.1074 8.08144 -4.4539
v 49.1074 8.08144 -4.4539
v 48.8481 8.0103 -5.08187
v 60.9294 5.44343 -12.652
v 54.2671 6.37063 -10.8102
v 53.8485 6.43554 -10.6801
v 50.2371 6.99624 -9.63185
v 48.2499 7.45126 -9.06758
# 20 texture coordinates
vt 0.88518 0.80246
vt 0.91120 0.76176
vt 0.89544 0.80656
vt 0.89718 0.80739
vt 0.91827 0.77917
vt 0.91143 0.81106
vt 0.92206 0.78779
vt 0.92226 0.78646
vt 0.90348 0.75881
vt 0.90009 0.75810
vt 0.87371 0.79933
vt 0.91119 0.76123
vt 0.91349 0.76213
vt 0.92476 0.77437
vt 0.91790 0.81177
vt 0.92649 0.76740
vt 0.00000 0.00000
vt 1.00000 0.00000
vt 1.00000 1.00000
vt 0.00000 1.00000
# 18 vertex normals
vn 0.13861 0.981935 0.128804
vn 0.21922 0.975646 -0.00754668
vn 0.0933621 0.981329 -0.16816
vn 0.0774632 0.970864 -0.226763
vn 0.119545 0.980502 -0.155963
vn 0.100847 0.986476 -0.129213
vn 0.119777 0.989633 -0.0792419
vn 0.134109 0.988881 -0.0642581
vn 0.143142 0.976771 0.159463
vn 0.163007 0.934056 0.317754
vn 0.163007 0.934057 0.317753
vn -0.0708541 -0.996194 0.0507627
vn 0.0879456 -0.962396 0.257019
vn 0.384638 0.841898 0.3785
vn 0.244384 0.951131 -0.188748
vn 0.162662 0.978114 -0.129747
vn 0.11292 0.989547 -0.0896962
vn 0.176131 0.970844 -0.162604
# 19 facets
f 5/3/3 3/2/2 1/1/1
f 7/6/6 2/5/5 6/4/4
f 6/4/4 2/5/5 5/3/3
f 2/5/5 3/2/2 5/3/3
f 16/8/8 2/5/5 15/7/7
f 8/10/10 1/1/1 9/9/9
f 8/10/10 4/11/11 1/1/1
f 12/2/13 3/2/2 11/2/12
f 10/12/14 9/9/9 1/1/1
f 10/12/14 3/2/2 12/2/13
f 10/12/14 1/1/1 3/2/2
f 10/12/14 12/2/13 11/2/12
f 13/13/15 3/2/2 2/5/5
f 17/14/16 2/5/5 16/8/8
f 15/7/7 2/5/5 7/6/6
f 7/6/6 14/15/17 15/7/7
f 13/13/15 2/5/5 17/14/16
f 17/14/16 18/16/18 13/13/15
f 10/20/14 13/19/15 3/18/2 11/17/12

