# 16 vertices
v 44.1641 8.68419 -1.02972
v 47.943 7.8016 5.86948
v 51.0826 7.01852 9.05981
v 50.769 7.14571 6.95844
v 50.6372 7.41264 5.91818
v 50.5168 7.409 5.09456
v 49.7601 7.72399 0.0840598
v 49.56 7.74359 -1.03287
v 40.6677 9.00854 -0.635906
v 41.3083 8.6529 3.37011
v 42.2083 7.53398 10.0234
v 43.4211 8.67605 0.114939
v 46.7948 8.23279 -0.506118
v 45.0474 8.50689 -0.178173
v 44.6693 8.56618 -0.107227
v 43.859 7.44191 9.82175
# 18 texture coordinates
vt 0.90349 0.72508
vt 0.88351 0.73836
vt 0.88385 0.71377
vt 0.87406 0.74431
vt 0.87766 0.74617
vt 0.87027 0.74231
vt 0.90891 0.73711
vt 0.91081 0.74134
vt 0.90716 0.74094
vt 0.88049 0.74763
vt 0.89630 0.75572
vt 0.90399 0.74810
vt 0.90009 0.75810
vt 0.90660 0.74221
vt 0.88137 0.71912
vt 0.00000 0.00000
vt 1.00000 0.00000
vt 1.00000 1.00000
# 16 vertex normals
vn 0.0893476 0.990933 0.100342
vn 0.122357 0.986966 0.104534
vn 0.0713524 0.984222 0.161913
vn 0.176641 0.975747 0.129288
vn 0.140289 0.984708 0.103292
vn 0.146448 0.984401 0.0975051
vn 0.100177 0.992355 0.0720799
vn 0.148965 0.988276 0.0334676
vn 0.131035 0.989859 0.0548584
vn 0.158095 0.987108 0.0249966
vn 0.166773 0.985922 0.0120563
vn 0.165772 0.986015 0.0171611
vn 0.171703 0.985057 -0.0134636
vn 0.161729 0.98612 0.0375683
vn 0.0752586 0.983041 0.167229
vn -0.100177 -0.992355 -0.0720796
# 19 facets
f 11/3/3 2/2/2 10/1/1
f 5/5/5 2/2/2 4/4/4
f 3/6/6 4/4/4 2/2/2
f 15/9/9 1/8/8 12/7/7
f 6/10/10 2/2/2 5/5/5
f 8/13/13 13/12/12 7/11/11
f 14/14/14 1/8/8 15/9/9
f 14/14/14 13/12/12 1/8/8
f 3/6/6 2/2/2 16/15/15
f 15/9/9 2/2/2 6/10/10
f 15/9/9 12/7/7 10/1/1
f 16/15/15 2/2/2 11/3/3
f 13/12/12 14/14/14 6/10/10
f 8/13/13 1/8/8 13/12/12
f 6/10/10 7/11/11 13/12/12
f 15/9/9 6/10/10 14/14/14
f 10/1/1 2/2/2 15/9/9
f 1/18/16 12/17/16 9/16/16
f 12/18/16 10/17/16 9/16/16

