# 26 vertices
v 95.4391 -11.5319 -43.7319
v 86.4448 -11.5256 -37.9524
v 91.9302 -12.0301 -42.5913
v 96.6107 -12.0765 -40.7041
v 87.8029 -11.8988 -36.5241
v 90.4398 -8.55511 -33.2362
v 89.4498 -8.45544 -42.719
v 89.7096 -10.2337 -34.2961
v 94.3827 -12.4073 -42.9315
v 92.213 -12.8714 -40.0656
v 93.7056 -12.4597 -38.1481
v 95.1189 -11.9588 -37.9457
v 96.4682 -9.4357 -37.8273
v 97.5952 -10.6236 -40.1963
v 85.6382 -10.3674 -39.1221
v 91.4984 -10.5317 -43.6224
v 93.5777 -10.2809 -44.587
v 85.108 -7.02566 -39.9906
v 97.5737 -10.1225 -40.3815
v 97.5763 -10.246 -41.088
v 97.2363 -10.3682 -42.0888
v 96.6994 -10.4046 -42.8936
v 96.2677 -10.4738 -43.7231
v 95.4069 -10.4412 -44.0809
v 85.1194 -8.48761 -39.9284
v 90.5477 -7.984 -33.2084
# 38 texture coordinates
vt 0.67832 0.03429
vt 0.68924 0.04713
vt 0.67467 0.03519
vt 0.67055 0.02862
vt 0.67581 0.02235
vt 0.68041 0.01500
vt 0.68224 0.02208
vt 0.66746 0.02533
vt 0.66975 0.02173
vt 0.67230 0.01969
vt 0.68186 0.02911
vt 0.68406 0.01714
vt 0.68608 0.05315
vt 0.66921 0.03836
vt 0.67255 0.01674
vt 0.70542 0.02342
vt 0.70190 0.02954
vt 0.67405 0.04874
vt 0.99363 0.91370
vt 0.99407 0.91595
vt 0.98918 0.91421
vt 0.68275 0.01310
vt 0.69287 0.01582
vt 0.66635 0.03123
vt 0.99152 0.95015
vt 0.99295 0.94841
vt 0.99461 0.94976
vt 0.69412 0.03789
vt 0.69839 0.03358
vt 0.98315 0.95408
vt 0.98453 0.95407
vt 0.98371 0.95530
vt 0.70802 0.02608
vt 0.97649 0.95236
vt 0.66513 0.02738
vt 0.66542 0.02611
vt 0.67076 0.01778
vt 0.99519 0.94656
# 26 vertex normals
vn 0.156516 -0.94552 0.285472
vn 0.18922 -0.738104 0.64761
vn 0.488116 -0.647117 0.585647
vn 0.632152 -0.759653 -0.15268
vn 0.0680703 -0.920633 -0.38445
vn -0.155807 -0.464362 -0.871832
vn -0.334455 -0.770403 -0.542787
vn 0.794582 -0.53043 -0.295437
vn 0.730765 -0.556514 -0.395317
vn 0.375329 -0.57275 -0.728756
vn -0.108972 -0.991599 -0.0696882
vn -0.468116 -0.37894 -0.798293
vn 0.490505 -0.367835 0.790001
vn 0.732225 -0.189961 0.654035
vn -0.518869 -0.195464 -0.832207
vn -0.521947 -0.52974 -0.668541
vn 0.585184 -0.149361 0.797026
vn -0.522733 -0.253039 -0.814077
vn -0.541049 -0.0399622 -0.840041
vn 0.930092 -0.332008 0.157163
vn 0.659601 -0.47962 -0.578698
vn 0.296524 -0.283099 -0.912101
vn -0.0665444 -0.96242 0.263286
vn -0.34111 -0.90475 -0.255092
vn 0.978156 0.107629 0.177839
vn 0.964371 -0.235636 -0.120272
# 33 facets
f 12/3/3 8/2/2 11/1/1
f 9/5/5 4/4/4 11/1/1
f 9/5/5 3/7/7 17/6/6
f 22/9/9 21/8/8 4/4/4
f 1/10/10 9/5/5 17/6/6
f 9/5/5 10/11/11 3/7/7
f 3/7/7 16/12/12 17/6/6
f 13/14/14 6/13/13 12/3/3
f 1/15/10 4/4/4 9/5/5
f 16/12/12 15/17/16 7/16/15
f 6/13/13 13/14/14 26/18/17
f 18/21/19 7/20/15 25/19/18
f 7/23/15 17/22/6 16/12/12
f 11/1/1 4/4/4 12/3/3
f 4/4/4 14/24/20 12/3/3
f 12/3/3 6/13/13 8/2/2
f 1/27/10 24/26/22 23/25/21
f 9/5/5 11/1/1 10/11/11
f 8/2/2 5/28/23 11/1/1
f 10/11/11 5/28/23 2/29/24
f 14/32/20 20/31/26 19/30/25
f 25/33/18 7/16/15 15/17/16
f 3/7/7 2/29/24 15/17/16
f 3/7/7 15/17/16 16/12/12
f 10/11/11 11/1/1 5/28/23
f 14/24/20 13/14/14 12/3/3
f 2/29/24 3/7/7 10/11/11
f 13/34/14 14/32/20 19/30/25
f 14/35/20 4/4/4 21/8/8
f 21/8/8 20/36/26 14/35/20
f 22/9/9 4/4/4 23/37/21
f 4/4/4 1/15/10 23/37/21
f 24/26/22 1/27/10 17/38/6
