#  ==========================================================================
#  
#  Wavefront OBJ format exported by Red-i Productions' "Riptide Pro"
#     (a commercial plugin for Cinema 4D PC & Mac, R9.6 or later)
#  
#  Red-i Productions
#  http://skinprops.com
#  
#  ==========================================================================
mtllib HAND_new_51.mtl
v 48.2596 -11.5199 4.53378
v 43.8905 -13.3377 6.93856
v 49.4927 -13.1677 10.0846
v 45.1469 -13.2996 7.64411
v 44.4438 -13.4089 7.79334
v 43.3509 -13.9037 8.15566
v 47.6329 -11.4453 1.95433
v 46.1785 -13.6322 10.4734
v 42.2342 -15.0057 11.1695
v 41.7065 -15.2451 11.2542
v 38.6249 -16.541 11.9255
v 38.2757 -16.7834 11.9674
v 41.2461 -13.5209 2.45548
v 38.9782 -14.3017 2.6708
v 38.6633 -14.4485 2.70872
v 37.7396 -14.839 2.89119
v 36.6314 -15.6125 3.04156
# 17 vertices

vt 0.87145 0.17597
vt 0.87360 0.16564
vt 0.88318 0.17335
vt 0.86199 0.17820
vt 0.85704 0.15900
vt 0.87153 0.16590
vt 0.87429 0.16234
vt 0.87745 0.14459
vt 0.85610 0.15052
vt 0.87761 0.16558
vt 0.88549 0.17326
vt 0.89448 0.17110
vt 0.88497 0.14268
vt 0.89575 0.17083
vt 0.88885 0.14177
vt 0.88605 0.14242
vt 0.89290 0.14097
# 17 texture coordinates

vn 0.1989 -0.95758 -0.208519
vn 0.182951 -0.962846 -0.198635
vn 0.454802 -0.875646 -0.162477
vn 0.14915 -0.965506 -0.21343
vn 0.258489 -0.939914 -0.223037
vn 0.164179 -0.95662 -0.240672
vn 0.357737 -0.917141 -0.175717
vn 0.307131 -0.942752 -0.129956
vn 0.300376 -0.948523 -0.100386
vn 0.437023 -0.881434 -0.179124
vn 0.359161 -0.910772 -0.20371
vn 0.41059 -0.887015 -0.211234
vn 0.361121 -0.908458 -0.210463
vn 0.541004 -0.815248 -0.206605
vn 0.446255 -0.870464 -0.207723
vn 0.366076 -0.903045 -0.224717
vn 0.541002 -0.815249 -0.206605
# 17 vertex normals

usemtl Mat
f 9/3/3 5/2/2 8/1/1
f 4/6/6 1/5/5 3/4/4
f 4/6/6 5/2/2 2/7/7
f 7/9/9 1/5/5 13/8/8
f 9/3/3 2/7/7 5/2/2
f 5/2/2 3/4/4 8/1/1
f 5/2/2 4/6/6 3/4/4
f 9/3/3 10/11/11 6/10/10
f 6/10/10 2/7/7 9/3/3
f 11/12/12 6/10/10 10/11/11
f 13/8/8 1/5/5 2/7/7
f 14/13/13 2/7/7 6/10/10
f 16/15/15 11/12/12 12/14/14
f 6/10/10 11/12/12 16/15/15
f 16/15/15 15/16/16 6/10/10
f 2/7/7 14/13/13 13/8/8
f 12/14/14 17/17/17 16/15/15
f 6/10/10 15/16/16 14/13/13
f 4/6/6 2/7/7 1/5/5
# 19 facets

