# 14 vertices
v -84.7932 -32.6727 9.87635
v -80.1455 -34.9197 -4.35218
v -75.1258 -30.4508 12.6665
v -68.733 -31.139 6.59286
v -69.1755 -29.4296 13.0468
v -68.708 -31.2359 6.2285
v -68.1176 -33.2119 -3.39801
v -68.0984 -33.0398 -4.49935
v -68.6785 -31.3352 5.75107
v -88.508 -34.8384 -3.58228
v -87.36 -33.9593 2.98503
v -87.9533 -34.7999 -0.283671
v -86.0349 -32.6935 9.9409
v -85.5604 -31.5833 11.5911
# 15 texture coordinates
vt 0.39627 0.75830
vt 0.42446 0.76695
vt 0.40052 0.77281
vt 0.44807 0.72601
vt 0.42617 0.71907
vt 0.44738 0.71567
vt 0.45787 0.75598
vt 0.44858 0.72801
vt 0.44818 0.72686
vt 0.40259 0.73969
vt 0.39597 0.73346
vt 0.39821 0.74070
vt 0.40535 0.78343
vt 0.46164 0.76075
vt 0.46633 0.76856
# 14 vertex normals
vn 0.0739331 -0.976887 0.200562
vn 0.086627 -0.987565 0.131195
vn 0.0485575 -0.991295 0.122382
vn 0.147357 -0.953441 0.263129
vn 0.104171 -0.919838 0.378215
vn 0.146888 -0.953643 0.262659
vn 0.138286 -0.989975 0.028733
vn 0.120229 -0.970724 0.207942
vn 0.135688 -0.963084 0.232505
vn 0.0867568 -0.952626 0.291508
vn 0.0336626 -0.833676 0.551227
vn 0.0365584 -0.931716 0.361343
vn -0.00850781 -0.999878 0.0131222
vn 0.150645 -0.977134 -0.150052
# 13 facets
f 12/3/3 2/2/2 11/1/1
f 5/6/6 3/5/5 4/4/4
f 9/8/8 2/2/2 7/7/7
f 3/5/5 1/10/10 6/9/9
f 6/9/9 2/2/2 9/8/8
f 13/12/12 3/5/5 14/11/11
f 10/13/13 2/2/2 12/3/3
f 2/2/2 1/10/10 13/12/12
f 8/15/14 7/14/7 2/2/2
f 6/9/9 1/10/10 2/2/2
f 6/9/9 4/4/4 3/5/5
f 13/12/12 11/1/1 2/2/2
f 13/12/12 1/10/10 3/5/5
