#  ==========================================================================
#  
#  Wavefront OBJ format exported by Red-i Productions' "Riptide Pro"
#     (a commercial plugin for Cinema 4D PC & Mac, R9.6 or later)
#  
#  Red-i Productions
#  http://skinprops.com
#  
#  ==========================================================================
mtllib HAND_new_118.mtl
v -112.955 -14.0832 -37.6726
v -128.825 -8.85081 -27.4424
v -124.65 -3.44151 -24.5579
v -121.046 -11.6365 -34.4762
v -123.953 -15.5438 -33.8318
v -115.43 -9.11034 -35.132
v -109.179 -1.45483 -26.5175
v -99.6342 -8.48805 -36.2419
v -120.29 -15.0083 -35.8261
v -102.14 -5.24913 -32.1612
v -116.994 0.640857 -23.1602
v -104.845 6.27561 -20.194
v -101.732 4.00393 -23.406
v -104.948 -12.2837 -36.6758
v -105.568 3.80695 -23.507
v -108.574 -8.02299 -34.474
v -108.635 -11.0583 -36.6238
v -126.001 -1.07487 -20.2364
v -119.545 -4.55794 -28.8139
v -112.925 4.12146 -20.9984
v -120.888 -8.04413 -32.2998
v -96.8886 6.48893 -19.114
v -97.4133 -0.421013 -25.4795
v -97.1181 5.52643 -20.7376
v -97.4013 -1.48487 -26.0225
v -98.7134 -8.42176 -36.1123
v -98.4823 -6.9512 -34.1948
v -98.6589 -9.82056 -36.6437
v -97.5711 -2.26927 -27.2641
v -98.591 -11.1494 -37.2631
v -127.876 -2.76629 -20.7986
v -129.429 -6.33549 -24.1235
v -127.509 -1.75892 -19.9992
v -126.54 1.8964 -17.8106
v -127.076 -0.091906 -19.0179
v -126.196 2.69073 -17.0744
v -130.533 -16.2662 -28.4313
v -131.306 -14.2437 -28.4277
v -130.559 -9.27044 -26.5704
v -130.995 -12.3268 -27.6665
v -125.41 3.95477 -15.4341
v -101.226 6.86448 -18.5848
v -103.095 7.19651 -18.3635
v -98.6587 6.6422 -18.898
v -121.699 4.73323 -15.9309
v -108.693 6.63278 -17.6386
v -115.206 5.71897 -16.7849
v -120.836 4.86421 -16.0444
# 48 vertices

vt 0.34923 0.33629
vt 0.38698 0.33278
vt 0.37290 0.33934
vt 0.37600 0.29477
vt 0.35889 0.25299
vt 0.38148 0.25869
vt 0.30835 0.29856
vt 0.31451 0.30508
vt 0.30909 0.30322
vt 0.41453 0.25711
vt 0.41164 0.25636
vt 0.41527 0.25365
vt 0.39832 0.31983
vt 0.38610 0.31799
vt 0.39211 0.34049
vt 0.39138 0.24662
vt 0.40505 0.24565
vt 0.35823 0.97414
vt 0.35521 0.96328
vt 0.36862 0.96011
vt 0.33965 0.24626
vt 0.33989 0.26081
vt 0.30975 0.26691
vt 0.34255 0.27796
vt 0.32266 0.28891
vt 0.38968 0.96608
vt 0.34732 0.24160
vt 0.36300 0.24015
vt 0.40162 0.27341
vt 0.41488 0.29419
vt 0.41434 0.26542
vt 0.34787 0.30610
vt 0.31012 0.31037
vt 0.40300 0.96027
vt 0.39297 0.96090
vt 0.41428 0.94489
vt 0.36061 0.32247
vt 0.41446 0.30356
vt 0.41249 0.33179
vt 0.29690 0.25897
vt 0.30306 0.26709
vt 0.40683 0.33902
vt 0.41269 0.33851
vt 0.41495 0.29925
vt 0.30550 0.28054
vt 0.32672 0.33366
vt 0.32971 0.33401
vt 0.31143 0.31904
vt 0.31216 0.32315
vt 0.33932 0.97487
vt 0.41846 0.24840
vt 0.33914 0.97622
vt 0.31392 0.25463
vt 0.31869 0.24685
vt 0.39834 0.33975
vt 0.31362 0.33124
# 56 texture coordinates

vn -0.186716 0.886842 -0.422667
vn -0.0737427 0.871151 -0.485446
vn -0.157928 0.917117 -0.365998
vn -0.0405675 0.689404 -0.723241
vn -0.149378 0.603049 -0.783593
vn -0.0793622 0.693094 -0.716466
vn -0.449333 0.68768 -0.570259
vn -0.385808 0.6541 -0.650619
vn -0.382686 0.59998 -0.702549
vn 0.0561107 0.668931 -0.741204
vn -0.0271683 0.49064 -0.870939
vn -0.0459431 0.335658 -0.940863
vn 0.0544532 0.725873 -0.68567
vn -0.118571 0.686635 -0.717268
vn -0.023799 0.902019 -0.43104
vn -0.0281854 0.390877 -0.920011
vn -0.0401383 0.245872 -0.968471
vn -0.456713 0.316858 -0.831273
vn -0.557919 0.286741 -0.778785
vn -0.382698 0.268171 -0.884096
vn -0.363342 0.626702 -0.689367
vn -0.490081 0.513783 -0.704165
vn -0.204319 0.755163 -0.622883
vn -0.4097 0.712277 -0.569918
vn -0.135585 0.330199 -0.934123
vn -0.00643577 0.796878 -0.604106
vn 0.0394084 0.836864 -0.545991
vn 0.0488748 0.80745 -0.587908
vn -0.262686 0.685094 -0.679443
vn -0.355333 0.549219 -0.756371
vn -0.209091 0.815844 -0.539147
vn 0.108265 0.506522 -0.855403
vn 0.0915569 0.788477 -0.608212
vn -0.522272 0.375471 -0.765672
vn -0.474784 0.572078 -0.66881
vn 0.0120373 0.859396 -0.511169
vn 0.0120377 0.859396 -0.511169
vn 0.0327791 0.672788 -0.739109
vn -0.465647 0.684653 -0.560735
vn -0.224902 0.84163 -0.490998
vn -0.19091 0.87913 -0.436673
vn -0.311118 0.637578 -0.704769
vn -0.255669 0.770672 -0.583693
vn -0.565121 0.0868026 -0.820429
vn -0.156296 0.410756 -0.898249
vn -0.525158 0.108753 -0.844027
vn 0.0643175 0.855254 -0.514203
vn -0.241433 0.82114 -0.517145
# 48 vertex normals

usemtl Default
f 46/3/3 12/2/2 47/1/1
f 16/6/6 6/5/5 7/4/4
f 33/9/9 18/8/8 31/7/7
f 28/12/12 8/11/11 26/10/10
f 15/14/14 13/13/13 7/4/4
f 43/15/15 12/2/2 46/3/3
f 8/11/11 14/17/17 17/16/16
f 9/20/20 5/19/19 4/18/18
f 2/23/22 21/22/21 4/21/18
f 3/25/24 19/24/23 21/22/21
f 19/24/23 7/4/4 6/5/5
f 9/20/20 4/18/18 1/26/25
f 1/28/25 4/27/18 6/5/5
f 6/5/5 16/6/6 17/16/16
f 7/4/4 10/29/26 16/6/6
f 10/29/26 8/11/11 16/6/6
f 4/21/18 21/22/21 6/5/5
f 8/11/11 17/16/16 16/6/6
f 27/31/28 10/29/26 29/30/27
f 6/5/5 17/16/16 1/28/25
f 7/4/4 19/24/23 11/32/29
f 33/9/9 35/33/30 18/8/8
f 11/32/29 19/24/23 3/25/24
f 14/36/17 1/35/25 17/34/16
f 15/14/14 7/4/4 11/32/29
f 12/2/2 15/14/14 20/37/31
f 24/39/33 23/38/32 13/13/13
f 12/2/2 13/13/13 15/14/14
f 18/8/8 11/32/29 3/25/24
f 11/32/29 20/37/31 15/14/14
f 39/41/35 2/23/22 40/40/34
f 21/22/21 19/24/23 6/5/5
f 3/25/24 21/22/21 2/23/22
f 7/4/4 13/13/13 23/38/32
f 26/10/10 8/11/11 10/29/26
f 22/43/37 24/39/33 44/42/36
f 14/17/17 8/11/11 28/12/12
f 29/30/27 7/4/4 25/44/38
f 31/7/7 3/25/24 32/45/39
f 11/32/29 18/8/8 35/33/30
f 48/47/41 20/37/31 45/46/40
f 36/49/43 11/32/29 34/48/42
f 4/18/18 5/19/19 37/50/44
f 3/25/24 2/23/22 39/41/35
f 28/12/12 30/51/45 14/17/17
f 23/38/32 25/44/38 7/4/4
f 29/30/27 10/29/26 7/4/4
f 10/29/26 27/31/28 26/10/10
f 37/50/44 38/52/46 4/18/18
f 40/53/34 2/23/22 4/21/18
f 39/41/35 32/45/39 3/25/24
f 40/53/34 4/21/18 38/54/46
f 31/7/7 18/8/8 3/25/24
f 35/33/30 34/48/42 11/32/29
f 36/49/43 20/37/31 11/32/29
f 42/55/47 13/13/13 12/2/2
f 44/42/36 24/39/33 13/13/13
f 47/1/1 20/37/31 48/47/41
f 45/46/40 36/49/43 41/56/48
f 13/13/13 42/55/47 44/42/36
f 12/2/2 43/15/15 42/55/47
f 47/1/1 12/2/2 20/37/31
f 45/46/40 20/37/31 36/49/43
# 63 facets

