#  ==========================================================================
#  
#  Wavefront OBJ format exported by Red-i Productions' "Riptide Pro"
#     (a commercial plugin for Cinema 4D PC & Mac, R9.6 or later)
#  
#  Red-i Productions
#  http://skinprops.com
#  
#  ==========================================================================
mtllib HAND_new_18.mtl
v 56.5672 -5.24355 26.3746
v 53.114 2.95582 19.9631
v 50.5068 -7.10935 32.7357
v 46.6896 4.20266 22.5706
v 50.6618 -4.23274 30.6333
v 49.9671 -5.5659 33.5567
v 55.7921 -2.37781 27.143
v 48.8952 2.92216 27.7429
v 51.6637 -7.1031 30.4212
v 52.2072 0.302956 28.3098
v 52.4832 4.56596 17.7613
v 52.0469 5.2619 15.9432
v 51.6723 6.12804 13.2862
v 51.0826 7.01852 9.05981
v 46.3816 2.55724 28.9316
v 47.9786 -2.93167 31.9293
v 47.5785 -0.666798 31.5023
v 42.2083 7.53398 10.0234
v 42.4089 7.31419 11.2252
v 42.5386 7.09634 12.2653
v 43.1722 5.44681 17.3577
v 43.2758 5.18501 18.1631
v 43.3303 4.97872 18.7191
v 43.4007 4.52167 19.3625
v 43.8558 4.5936 21.2834
v 46.2418 3.31902 28.5248
v 45.7374 4.03152 27.1568
v 45.1238 4.44389 25.1892
v 43.859 7.44191 9.82175
# 29 vertices

vt 0.79813 0.71029
vt 0.78843 0.71104
vt 0.78624 0.68947
vt 0.82126 0.69414
vt 0.80956 0.70028
vt 0.82936 0.72102
vt 0.78964 0.67816
vt 0.79631 0.68621
vt 0.83909 0.69868
vt 0.78317 0.68028
vt 0.82994 0.68724
vt 0.82540 0.68516
vt 0.87651 0.71016
vt 0.85343 0.73383
vt 0.86095 0.70080
vt 0.80382 0.67649
vt 0.81176 0.67841
vt 0.82322 0.68402
vt 0.88385 0.71377
vt 0.88137 0.71912
vt 0.88062 0.71229
vt 0.87027 0.74231
vt 0.84470 0.73060
vt 0.85833 0.69979
vt 0.85632 0.69840
vt 0.85421 0.69640
vt 0.84950 0.69362
vt 0.83753 0.72678
vt 0.83621 0.68954
# 29 texture coordinates

vn 0.654037 0.487311 0.578588
vn 0.643192 -0.0311714 0.76507
vn 0.733488 0.148891 0.663194
vn 0.401472 0.823678 0.400469
vn 0.513923 0.439885 0.736467
vn 0.239607 0.936009 0.25783
vn 0.820657 0.371236 0.434403
vn 0.68787 0.369079 0.624993
vn 0.235853 0.970339 0.053063
vn 0.891903 0.0745898 0.446033
vn 0.292944 0.93628 0.193813
vn 0.292048 0.725978 0.622626
vn 0.077147 0.970142 0.229941
vn 0.0724233 0.961431 0.265339
vn 0.0676082 0.951436 0.300331
vn 0.550326 0.412432 0.725976
vn 0.433857 0.466582 0.770759
vn 0.312832 0.567062 0.761956
vn 0.0752586 0.983041 0.167229
vn 0.0752586 0.983041 0.167229
vn 0.0774738 0.981275 0.176344
vn 0.0796821 0.979419 0.185443
vn 0.0728058 0.944483 0.320392
vn 0.0728058 0.944483 0.320392
vn 0.0878692 0.884278 0.458618
vn 0.137773 0.955164 0.262069
vn 0.156141 0.986513 -0.0491038
vn 0.0878692 0.884278 0.458618
vn 0.227824 0.972585 0.046637
# 29 vertex normals

usemtl Default
f 9/3/3 1/2/2 7/1/1
f 10/5/5 7/1/1 8/4/4
f 7/1/1 2/6/6 8/4/4
f 9/3/3 5/8/8 6/7/7
f 4/9/9 8/4/4 2/6/6
f 10/5/5 9/3/3 7/1/1
f 3/10/10 9/3/3 6/7/7
f 26/12/12 8/4/4 27/11/11
f 5/8/8 9/3/3 10/5/5
f 21/15/15 13/14/14 20/13/13
f 6/7/7 5/8/8 16/16/16
f 16/16/16 10/5/5 17/17/17
f 16/16/16 5/8/8 10/5/5
f 17/17/17 10/5/5 15/18/18
f 19/21/21 29/20/20 18/19/19
f 29/20/20 19/21/21 14/22/22
f 20/13/13 14/22/22 19/21/21
f 20/13/13 13/14/14 14/22/22
f 22/24/24 12/23/23 21/15/15
f 23/25/25 12/23/23 22/24/24
f 24/26/26 2/6/6 23/25/25
f 25/27/27 2/6/6 24/26/26
f 25/27/27 4/9/9 2/6/6
f 2/6/6 11/28/28 23/25/25
f 23/25/25 11/28/28 12/23/23
f 12/23/23 13/14/14 21/15/15
f 15/18/18 8/4/4 26/12/12
f 27/11/11 4/9/9 28/29/29
f 28/29/29 4/9/9 25/27/27
f 27/11/11 8/4/4 4/9/9
f 15/18/18 10/5/5 8/4/4
# 31 facets

