#  ==========================================================================
#  
#  Wavefront OBJ format exported by Red-i Productions' "Riptide Pro"
#     (a commercial plugin for Cinema 4D PC & Mac, R9.6 or later)
#  
#  Red-i Productions
#  http://skinprops.com
#  
#  ==========================================================================
mtllib HAND_new_129.mtl
v -119.397 -20.2219 44.8835
v -119.809 -25.0404 43.575
v -122.373 -31.301 41.641
v -123.302 -34.7467 38.5682
v -123.873 -38.8496 31.9594
v -111.827 -24.3164 38.5487
v -112.51 -19.6845 40.684
v -105.143 -27.7207 30.778
v -110.832 -33.6095 27.4342
v -110.304 -14.8755 38.9078
v -118.902 -38.435 26.8415
v -105.639 -32.9177 20.4505
v -100.58 -15.3622 31.7503
v -100.456 -19.2809 31.6865
v -100.496 -17.4499 31.7525
v -100.782 -22.4553 30.811
v -103.191 -30.0114 25.4786
v -101.959 -27.4711 28.0945
v -101.799 -27.2887 28.4224
v -100.947 -23.8954 30.3612
v -101.592 -26.4174 28.8972
v -124.842 -35.0365 39.2142
v -125.417 -35.7424 38.3536
v -122.864 -31.3625 41.8821
v -122.998 -31.6102 41.7005
v -128.29 -39.4236 34.0836
v -130.195 -40.5499 30.9392
v -119.676 -20.3903 44.9798
v -120.802 -25.0431 44.0767
v -119.351 -14.7037 44.1507
v -119.512 -17.2816 44.5327
v -119.643 -20.2293 45.0001
v -121.223 -26.8805 43.755
v -107.635 -34.578 16.4033
v -112.413 -35.8052 19.5363
v -109.536 -35.1058 17.633
v -116.734 -37.9357 22.4628
v -121.3 -39.4322 25.4645
v -125.312 -40.1039 27.9682
# 39 vertices

vt 0.24225 0.64435
vt 0.24313 0.64442
vt 0.24213 0.64494
vt 0.23739 0.66694
vt 0.24076 0.66704
vt 0.23700 0.66895
vt 0.23334 0.68668
vt 0.23509 0.68665
vt 0.23313 0.68782
vt 0.23024 0.70339
vt 0.23560 0.70280
vt 0.22959 0.70754
vt 0.22625 0.72841
vt 0.24191 0.72785
vt 0.22486 0.74097
vt 0.30294 0.68853
vt 0.27206 0.66978
vt 0.26931 0.64687
vt 0.31611 0.72964
vt 0.28860 0.71643
vt 0.31634 0.70584
vt 0.23844 0.63563
vt 0.31695 0.69191
vt 0.31748 0.69008
vt 0.26363 0.73543
vt 0.25850 0.74345
vt 0.27715 0.74475
vt 0.24271 0.62662
vt 0.26815 0.62960
vt 0.24258 0.63610
vt 0.31720 0.68581
vt 0.31818 0.67410
vt 0.31861 0.66734
vt 0.31975 0.65432
vt 0.31925 0.64731
vt 0.30765 0.74581
vt 0.31571 0.74635
vt 0.31395 0.63901
vt 0.29598 0.74502
vt 0.24323 0.74227
# 40 texture coordinates

vn 0.429061 -0.0377765 0.902485
vn 0.474771 -0.0994153 0.874476
vn 0.441925 -0.236817 0.865228
vn 0.44342 -0.265594 0.85606
vn 0.515006 -0.349929 0.782507
vn 0.581092 -0.375762 0.721897
vn 0.518926 -0.536187 0.665748
vn 0.454948 -0.580637 0.675192
vn 0.39158 -0.670851 0.629781
vn 0.377554 -0.726114 0.574641
vn 0.399993 -0.761111 0.510604
vn 0.338929 -0.819512 0.462089
vn 0.300908 -0.869977 0.390633
vn 0.348172 -0.877379 0.330126
vn 0.221603 -0.951646 0.212748
vn 0.49845 -0.655347 0.56751
vn 0.552838 -0.371103 0.746091
vn 0.568206 -0.10271 0.816451
vn 0.405142 -0.88904 0.213233
vn 0.450131 -0.828489 0.333147
vn 0.471874 -0.795858 0.379401
vn 0.472572 0.114081 0.873877
vn 0.431126 -0.788787 0.438115
vn 0.460156 -0.718627 0.521374
vn 0.426407 -0.884363 0.189945
vn 0.303487 -0.940543 0.152558
vn 0.439363 -0.890797 0.115935
vn 0.500436 0.0962685 0.860405
vn 0.526473 0.0807801 0.846346
vn 0.541302 -0.50973 0.668706
vn 0.554042 -0.446665 0.702515
vn 0.581614 -0.286862 0.761206
vn 0.591994 -0.186463 0.784075
vn 0.596055 0.00449062 0.802931
vn 0.364853 -0.911995 0.187478
vn 0.373891 -0.9082 0.188094
vn 0.593425 0.0249124 0.804503
vn 0.458729 -0.873494 0.16302
vn 0.249782 -0.945873 0.207205
# 39 vertex normals

usemtl Mat
f 28/3/3 1/2/2 32/1/1
f 33/6/6 2/5/5 29/4/4
f 25/9/9 3/8/8 24/7/7
f 23/12/12 4/11/11 22/10/10
f 27/15/15 5/14/14 26/13/13
f 8/16/16 4/11/11 5/14/14
f 8/16/16 3/8/8 4/11/11
f 6/17/17 2/5/5 3/8/8
f 7/18/18 1/2/2 2/5/5
f 17/21/21 9/20/20 12/19/19
f 9/20/20 8/16/16 5/14/14
f 32/1/1 1/2/2 31/22/22
f 6/17/17 3/8/8 8/16/16
f 19/24/24 8/16/16 18/23/23
f 9/20/20 5/14/14 11/25/25
f 29/4/4 2/5/5 1/2/2
f 26/13/13 4/11/11 23/12/12
f 24/7/7 3/8/8 2/5/5
f 1/2/2 28/3/3 29/4/4
f 22/10/10 3/8/8 25/9/9
f 37/27/27 11/25/25 38/26/26
f 31/30/22 10/29/29 30/28/28
f 7/18/18 10/29/29 1/2/2
f 31/30/22 1/2/2 10/29/29
f 21/31/30 8/16/16 19/24/24
f 16/33/32 6/17/17 20/32/31
f 15/35/34 7/18/18 14/34/33
f 34/37/36 12/19/19 36/36/35
f 13/38/37 7/18/18 15/35/34
f 6/17/17 7/18/18 2/5/5
f 14/34/33 6/17/17 16/33/32
f 20/32/31 8/16/16 21/31/30
f 18/23/23 9/20/20 17/21/21
f 13/38/37 10/29/29 7/18/18
f 14/34/33 7/18/18 6/17/17
f 20/32/31 6/17/17 8/16/16
f 18/23/23 8/16/16 9/20/20
f 26/13/13 5/14/14 4/11/11
f 22/10/10 4/11/11 3/8/8
f 2/5/5 33/6/6 24/7/7
f 36/36/35 9/20/20 35/39/38
f 35/39/38 9/20/20 11/25/25
f 38/26/26 5/14/14 39/40/39
f 39/40/39 5/14/14 27/15/15
f 36/36/35 12/19/19 9/20/20
f 11/25/25 37/27/27 35/39/38
f 38/26/26 11/25/25 5/14/14
# 47 facets

