# 15 vertices
v 11.1487 12.6195 0.887916
v 5.92758 13.2279 -1.71182
v 14.5322 11.988 -4.47277
v 8.55007 12.8047 -9.01343
v 19.4406 10.8339 1.77176
v 19.3382 10.9125 -1.91279
v 19.0731 10.6296 -6.83799
v 19.1306 10.8459 -4.48732
v 5.73965 12.5712 -9.01745
v 5.76658 13.2102 -1.59369
v 5.76704 13.2137 -1.99028
v 5.76659 13.2065 -1.71184
v 6.6873 12.8771 0.34595
v 6.54664 12.8815 0.329028
v 5.75684 12.9036 0.251675
# 18 texture coordinates
vt 0.95603 0.68219
vt 0.95889 0.68424
vt 0.95823 0.68973
vt 0.71335 0.46323
vt 0.74304 0.46005
vt 0.72900 0.47542
vt 0.71305 0.46226
vt 0.71284 0.46312
vt 0.72584 0.44255
vt 0.71276 0.46350
vt 0.74788 0.47497
vt 0.75093 0.46671
vt 0.75201 0.45911
vt 0.74996 0.45270
vt 0.71705 0.44299
vt 0.71180 0.46932
vt 0.71437 0.47003
vt 0.71482 0.47017
# 15 vertex normals
vn 0.219879 0.975519 -0.00408873
vn 0.192714 0.980363 -0.0418375
vn 0.233239 0.967916 -0.0934771
vn 0.00582051 0.999912 0.0118798
vn 0.147966 0.988245 0.0384536
vn -0.031218 0.998963 -0.0331416
vn -0.131851 0.991266 -0.00273407
vn 0.130365 0.987966 -0.0832383
vn -0.0244453 0.99296 0.115899
vn 0.208966 0.977807 0.0150503
vn 0.220246 0.970835 -0.0947152
vn -0.00629558 0.995978 -0.0893735
vn 0.0115139 0.986405 0.163927
vn 0.0115139 0.986405 0.163927
vn 0.0204338 0.986792 0.1607
# 15 facets
f 8/3/3 3/2/2 6/1/1
f 1/6/5 3/5/2 2/4/4
f 12/8/7 2/4/4 11/7/6
f 4/9/8 2/4/4 3/5/2
f 12/8/7 10/10/9 2/4/4
f 6/12/1 1/6/5 5/11/10
f 4/9/8 3/5/2 8/13/3
f 6/12/1 3/5/2 1/6/5
f 8/13/3 7/14/11 4/9/8
f 2/4/4 4/9/8 9/15/12
f 14/17/14 10/10/9 15/16/13
f 1/6/5 2/4/4 13/18/15
f 13/18/15 10/10/9 14/17/14
f 13/18/15 2/4/4 10/10/9
f 9/15/12 11/7/6 2/4/4
