# 15 vertices
v 65.6693 -11.2104 7.23447
v 69.7378 -11.8499 3.41982
v 69.9074 -12.0912 8.72447
v 67.7604 -11.475 -2.77083
v 59.0232 -9.95347 6.1649
v 58.6626 -9.89664 2.75743
v 68.5589 -12.088 8.78526
v 66.0579 -11.4838 9.0062
v 64.2286 -11.1285 9.19553
v 59.3559 -10.3376 9.91443
v 65.0483 -10.4508 -1.93083
v 63.7504 -10.192 -1.52061
v 60.81 -10.3152 -0.547221
v 59.674 -10.0982 -0.114413
v 58.2984 -9.89839 0.417066
# 15 texture coordinates
vt 0.78211 0.15445
vt 0.79318 0.15454
vt 0.78156 0.17896
vt 0.80230 0.19380
vt 0.80131 0.18725
vt 0.80863 0.19201
vt 0.82062 0.16367
vt 0.81414 0.15510
vt 0.81939 0.15560
vt 0.80979 0.15498
vt 0.79856 0.15437
vt 0.78854 0.19794
vt 0.79302 0.19599
vt 0.82296 0.17569
vt 0.82630 0.18852
# 15 vertex normals
vn -0.338867 -0.939432 0.0513482
vn -0.278083 -0.960528 -0.00744039
vn -0.210892 -0.976051 -0.0533827
vn -0.227931 -0.968585 -0.0994547
vn -0.17375 -0.983097 -0.0577138
vn -0.181337 -0.979077 -0.0923333
vn -0.169443 -0.985494 0.00950004
vn -0.169443 -0.985494 0.00949996
vn -0.135463 -0.990542 0.0218217
vn -0.0921953 -0.99412 -0.0568005
vn -0.143224 -0.986176 -0.0833235
vn -0.00439355 -0.998964 -0.0452919
vn -0.124003 -0.989727 -0.0711629
vn -0.176866 -0.982652 -0.0557997
vn -0.171886 -0.981418 -0.0852917
# 14 facets
f 2/3/3 11/2/2 4/1/1
f 9/6/6 1/5/5 8/4/4
f 15/9/9 14/8/8 6/7/7
f 12/11/11 1/5/5 13/10/10
f 7/13/13 2/3/3 3/12/12
f 1/5/5 5/14/14 6/7/7
f 8/4/4 2/3/3 7/13/13
f 5/14/14 1/5/5 9/6/6
f 8/4/4 1/5/5 2/3/3
f 9/6/6 10/15/15 5/14/14
f 2/3/3 1/5/5 12/11/11
f 1/5/5 6/7/7 14/8/8
f 14/8/8 13/10/10 1/5/5
f 12/11/11 11/2/2 2/3/3
