#  ==========================================================================
#  
#  Wavefront OBJ format exported by Red-i Productions' "Riptide Pro"
#     (a commercial plugin for Cinema 4D PC & Mac, R9.6 or later)
#  
#  Red-i Productions
#  http://skinprops.com
#  
#  ==========================================================================
mtllib HAND_new_53.mtl
v 32.5046 -9.06223 -21.1405
v 37.6525 -4.0674 -23.7829
v 41.9877 -14.6378 -12.7304
v 41.7641 -12.3662 -18.6177
v 37.7159 -16.4034 -7.21984
v 34.0049 -17.1125 -10.2106
v 33.878 -15.6187 -15.402
v 35.4997 -11.8908 -19.8234
v 39.0416 -8.06625 -22.418
v 37.5817 -8.08949 -22.2656
v 33.0183 -8.69509 -21.3556
v 32.1818 -8.67651 -21.1408
v 44.2539 -13.7446 -11.2454
v 43.7464 -13.9532 -12.9345
v 43.4943 -14.0643 -13.6852
v 40.7536 -10.9222 -20.4573
v 40.1436 -9.70129 -21.1709
v 38.3495 -9.35876 -21.6605
v 45.173 -13.3491 -8.17616
v 32.0496 -15.6858 -14.704
v 31.4299 -15.0004 -15.7392
v 30.9964 -14.0499 -16.7431
v 30.1669 -12.1554 -18.2747
v 34.9198 -16.9221 -6.56955
v 29.6276 -11.1948 -19.312
v 29.3047 -10.2081 -19.8889
v 28.9146 -8.39459 -20.4694
v 28.6668 -6.58843 -20.9884
v 28.6307 -6.43646 -21.0356
v 28.4669 -5.37768 -21.3139
# 30 vertices

vt 0.85606 0.10499
vt 0.85650 0.09899
vt 0.86234 0.09833
vt 0.88770 0.09844
vt 0.87712 0.10647
vt 0.88340 0.08432
vt 0.88895 0.08455
vt 0.85725 0.09688
vt 0.88967 0.08063
vt 0.87434 0.06983
vt 0.85759 0.07920
vt 0.88152 0.05729
vt 0.88068 0.05861
vt 0.87886 0.05769
vt 0.88671 0.06242
vt 0.88798 0.05702
vt 0.88711 0.10792
vt 0.88979 0.07653
vt 0.89056 0.06918
vt 0.85632 0.07087
vt 0.85744 0.06635
vt 0.86480 0.05812
vt 0.86214 0.06256
vt 0.85607 0.05895
vt 0.85435 0.04527
vt 0.85507 0.11501
vt 0.88590 0.06622
vt 0.88596 0.05029
vt 0.88556 0.04987
vt 0.88339 0.04670
# 30 texture coordinates

vn 0.371621 -0.928384 0.00076004
vn 0.363803 -0.931415 0.0106927
vn 0.278889 -0.947314 -0.157531
vn 0.148194 -0.975257 -0.164049
vn 0.301432 -0.953157 -0.0251208
vn 0.0117401 -0.871029 -0.491092
vn -0.111499 -0.918096 -0.380353
vn 0.249893 -0.951882 -0.177408
vn -0.124971 -0.808499 -0.575075
vn -0.064733 -0.624462 -0.778368
vn 0.121072 -0.855168 -0.504014
vn -0.230088 -0.256358 -0.938797
vn -0.177061 -0.348749 -0.920339
vn -0.181469 -0.345718 -0.920624
vn -0.169474 -0.471832 -0.865247
vn -0.221652 -0.273181 -0.936078
vn 0.183595 -0.982988 0.00525164
vn -0.123826 -0.718359 -0.684564
vn -0.161927 -0.715259 -0.679841
vn 0.0276103 -0.64792 -0.761208
vn 0.0651196 -0.570011 -0.819052
vn -0.109386 -0.431313 -0.895546
vn -0.00097728 -0.542831 -0.839841
vn -0.0186201 -0.460637 -0.887393
vn -0.147786 -0.326071 -0.933722
vn 0.379623 -0.925125 0.00553797
vn -0.142284 -0.655416 -0.741745
vn -0.232986 -0.32533 -0.916449
vn -0.226627 -0.309398 -0.923533
vn -0.211943 -0.279021 -0.936604
# 30 vertex normals

usemtl Mat
f 3/3/3 14/2/2 13/1/1
f 5/5/5 6/4/4 3/3/3
f 20/7/7 7/6/6 6/4/4
f 14/2/2 3/3/3 15/8/8
f 21/9/9 7/6/6 20/7/7
f 4/11/11 7/6/6 8/10/10
f 11/14/14 1/13/13 12/12/12
f 3/3/3 7/6/6 4/11/11
f 8/10/10 1/13/13 11/14/14
f 27/16/16 1/13/13 26/15/15
f 6/4/4 5/5/5 24/17/17
f 3/3/3 6/4/4 7/6/6
f 23/19/19 8/10/10 22/18/18
f 17/21/21 16/20/20 8/10/10
f 9/24/24 18/23/23 10/22/22
f 9/24/24 10/22/22 2/25/25
f 11/14/14 2/25/25 10/22/22
f 5/5/5 3/3/3 13/1/1
f 15/8/8 3/3/3 4/11/11
f 13/1/1 19/26/26 5/5/5
f 4/11/11 8/10/10 16/20/20
f 9/24/24 17/21/21 18/23/23
f 17/21/21 8/10/10 18/23/23
f 22/18/18 7/6/6 21/9/9
f 22/18/18 8/10/10 7/6/6
f 25/27/27 8/10/10 23/19/19
f 28/28/28 12/12/12 27/16/16
f 26/15/15 8/10/10 25/27/27
f 26/15/15 1/13/13 8/10/10
f 11/14/14 12/12/12 28/28/28
f 11/14/14 28/28/28 29/29/29
f 30/30/30 11/14/14 29/29/29
f 30/30/30 2/25/25 11/14/14
f 11/14/14 10/22/22 8/10/10
f 18/23/23 8/10/10 10/22/22
f 12/12/12 1/13/13 27/16/16
# 36 facets

