# 55 vertices
v 95.467 -5.81659 8.51694
v 106.654 -4.69628 -1.40061
v 106.362 -5.92136 -1.68733
v 95.8414 -0.0388149 2.11132
v 104.08 -1.88758 1.85362
v 103.952 -3.68974 6.61937
v 103.951 -6.64219 7.92015
v 105.549 -2.7795 5.2772
v 98.9581 -2.44895 7.40228
v 95.8294 0.0190395 4.18336
v 104.065 -4.18555 -1.2669
v 98.7573 -3.79102 8.12311
v 96.6372 -1.08868 -0.784735
v 98.404 -0.64051 5.30919
v 96.5265 -2.41447 -1.36852
v 103.88 -1.93919 3.68909
v 105.822 -2.82465 0.445887
v 96.107 -4.77541 -1.84437
v 105.612 -4.56756 6.91402
v 105.73 -4.25315 6.77094
v 106.234 -3.17131 5.51803
v 104.811 -6.72577 7.84194
v 108.864 -4.98502 -1.38356
v 106.369 -2.88955 5.15554
v 106.776 -4.10426 -0.901441
v 106.952 -3.04273 0.313972
v 106.813 -2.49388 2.70469
v 106.972 -2.44133 1.61267
v 106.952 -2.93063 0.582782
v 106.681 -4.55794 -1.27394
v 106.649 -2.52061 3.90429
v 95.8122 -4.04436 8.4819
v 95.8648 -3.28032 8.1375
v 95.9 -2.3026 7.23466
v 95.9363 -1.74272 6.93257
v 95.9442 -0.986856 6.02805
v 109.492 -7.22062 7.71807
v 109.517 -6.80825 7.57432
v 109.571 -5.56849 7.14107
v 109.581 -5.47389 7.09935
v 109.607 -5.10182 6.70465
v 109.812 -3.46508 4.77529
v 109.827 -3.35318 4.64304
v 109.858 -3.19455 4.15374
v 109.851 -3.16779 3.65063
v 109.746 -3.00842 1.85032
v 109.703 -2.96416 1.38518
v 109.629 -3.18162 0.907001
v 109.487 -3.47979 0.143048
v 109.443 -3.52354 0.0231419
v 109.227 -4.03075 -0.570919
v 109.051 -4.37032 -0.958044
v 108.904 -4.87427 -1.27992
v 108.694 -6.21191 -1.77245
v 108.816 -5.16784 -1.52718
# 57 texture coordinates
vt 0.76255 0.91511
vt 0.76467 0.91374
vt 0.76367 0.91605
vt 0.76997 0.92133
vt 0.77692 0.91576
vt 0.77241 0.92348
vt 0.79417 0.90410
vt 0.79927 0.90395
vt 0.78660 0.92385
vt 0.77524 0.92592
vt 0.77763 0.92346
vt 0.77589 0.92647
vt 0.75782 0.91040
vt 0.76228 0.90688
vt 0.75861 0.91136
vt 0.77234 0.91198
vt 0.77818 0.89510
vt 0.78020 0.92927
vt 0.78163 0.93015
vt 0.80100 0.91155
vt 0.78529 0.89051
vt 0.76089 0.92663
vt 0.76704 0.91877
vt 0.77116 0.88235
vt 0.76621 0.89047
vt 0.76775 0.88518
vt 0.77021 0.89291
vt 0.78213 0.93047
vt 0.78161 0.93548
vt 0.75065 0.92107
vt 0.75213 0.92189
vt 0.77654 0.88592
vt 0.77480 0.88503
vt 0.74594 0.91560
vt 0.75984 0.89018
vt 0.76148 0.88708
vt 0.79033 0.89408
vt 0.74729 0.91870
vt 0.75039 0.92086
vt 0.75897 0.92552
vt 0.74580 0.91628
vt 0.77523 0.93454
vt 0.77741 0.93550
vt 0.77785 0.93572
vt 0.77838 0.93602
vt 0.76958 0.93175
vt 0.77169 0.93297
vt 0.76225 0.92751
vt 0.76691 0.93013
vt 0.77164 0.86926
vt 0.77959 0.88751
vt 0.74505 0.92004
vt 0.75944 0.92577
vt 0.76815 0.93077
vt 0.77206 0.93311
vt 0.77441 0.93417
vt 0.77774 0.94049
# 55 vertex normals
vn 0.181178 0.725028 0.664461
vn 0.218951 0.829317 0.514095
vn 0.188979 0.831234 0.522816
vn 0.197596 0.978299 0.0623505
vn 0.193165 0.968521 -0.157019
vn 0.16402 0.958351 -0.233795
vn 0.191804 0.701397 -0.686478
vn 0.0815033 0.292253 -0.952862
vn 0.0863414 0.486898 -0.869181
vn 0.133559 0.906132 -0.401356
vn 0.150073 0.845083 -0.51314
vn 0.0941623 0.825 -0.557233
vn 0.0575265 0.37996 0.923213
vn 0.173979 0.533182 0.827918
vn 0.122269 0.598723 0.791569
vn 0.223694 0.967733 0.115993
vn 0.176029 0.897665 0.403993
vn 0.0685284 0.705917 -0.704972
vn 0.0817113 0.627607 -0.77423
vn 0.052447 0.241119 -0.969077
vn 0.182448 0.973747 0.136127
vn 0.193207 0.971311 0.13866
vn 0.183175 0.956406 0.227452
vn 0.100429 0.545373 0.832155
vn 0.127328 0.359746 0.924322
vn 0.100937 0.205276 0.973485
vn 0.124707 0.628518 0.767732
vn 0.0529395 0.490708 -0.869714
vn 0.00713245 0.245663 -0.969329
vn 0.0896877 0.512688 0.853878
vn 0.176622 0.720699 0.670372
vn 0.0274576 0.632378 0.774173
vn 0.0239801 0.545936 0.837484
vn 0.125417 0.308209 0.943015
vn 0.0990606 0.0324622 0.994552
vn 0.210716 0.950825 -0.227003
vn 0.0491893 0.343363 0.937914
vn 0.0386414 0.363941 0.93062
vn 0.19476 0.737689 0.646439
vn 0.0791472 0.352136 0.932596
vn 0.065428 0.631675 -0.772467
vn 0.082479 0.594575 -0.799798
vn 0.0898502 0.642714 -0.760819
vn 0.024109 0.36077 -0.932343
vn 0.134404 0.901119 -0.412213
vn 0.131989 0.914824 -0.381674
vn 0.197596 0.978299 0.0623512
vn 0.193565 0.978199 0.0752252
vn 0.0584642 0.806349 0.588544
vn 0.0593755 0.325345 0.943729
vn 0.182474 0.883296 0.431845
vn 0.179554 0.97914 -0.095108
vn 0.111659 0.869567 -0.481025
vn 0.0675803 0.74253 -0.666394
vn -0.00693574 0.229447 -0.973297
# 74 facets
f 24/3/3 8/2/2 21/1/1
f 28/6/6 5/5/5 27/4/4
f 11/9/9 15/8/8 13/7/7
f 26/12/12 17/11/11 29/10/10
f 20/15/15 6/14/14 19/13/13
f 14/17/17 8/2/2 16/16/16
f 30/19/19 11/9/9 25/18/18
f 18/20/20 15/8/8 11/9/9
f 10/21/21 14/17/17 16/16/16
f 27/4/4 31/23/23 44/22/22
f 32/26/26 12/25/25 33/24/24
f 9/27/27 12/25/25 6/14/14
f 3/29/29 11/9/9 2/28/28
f 10/21/21 16/16/16 5/5/5
f 13/7/7 17/11/11 11/9/9
f 41/31/31 20/15/15 40/30/30
f 9/27/27 8/2/2 14/17/17
f 34/33/33 9/27/27 35/32/32
f 6/14/14 8/2/2 9/27/27
f 2/28/28 11/9/9 30/19/19
f 12/25/25 7/34/34 6/14/14
f 12/25/25 1/36/35 7/35/34
f 5/5/5 4/37/36 10/21/21
f 13/7/7 4/37/36 17/11/11
f 5/5/5 17/11/11 4/37/36
f 33/24/24 12/25/25 34/33/33
f 39/39/38 19/13/13 38/38/37
f 21/1/1 6/14/14 20/15/15
f 42/40/39 21/1/1 41/31/31
f 19/13/13 7/34/34 22/41/40
f 25/18/18 17/11/11 26/12/12
f 53/43/42 30/19/19 52/42/41
f 27/4/4 16/16/16 31/23/23
f 18/20/20 11/9/9 3/29/29
f 30/19/19 23/44/43 2/28/28
f 31/23/23 8/2/2 24/3/3
f 29/10/10 5/5/5 28/6/6
f 2/28/28 23/44/43 55/45/44
f 25/18/18 11/9/9 17/11/11
f 49/47/46 29/10/10 48/46/45
f 29/10/10 17/11/11 5/5/5
f 46/49/48 27/4/4 45/48/47
f 27/4/4 5/5/5 16/16/16
f 31/23/23 16/16/16 8/2/2
f 21/1/1 8/2/2 6/14/14
f 19/13/13 6/14/14 7/34/34
f 1/50/35 12/25/25 32/26/26
f 9/27/27 14/17/17 36/51/49
f 36/51/49 14/17/17 10/21/21
f 36/51/49 35/32/32 9/27/27
f 34/33/33 12/25/25 9/27/27
f 38/38/37 22/41/40 37/52/50
f 38/38/37 19/13/13 22/41/40
f 40/30/30 19/13/13 39/39/38
f 40/30/30 20/15/15 19/13/13
f 41/31/31 21/1/1 20/15/15
f 24/3/3 21/1/1 42/40/39
f 42/40/39 43/53/51 24/3/3
f 31/23/23 24/3/3 43/53/51
f 43/53/51 44/22/22 31/23/23
f 44/22/22 45/48/47 27/4/4
f 47/54/52 27/4/4 46/49/48
f 47/54/52 28/6/6 27/4/4
f 48/46/45 28/6/6 47/54/52
f 48/46/45 29/10/10 28/6/6
f 50/55/53 29/10/10 49/47/46
f 50/55/53 26/12/12 29/10/10
f 51/56/54 26/12/12 50/55/53
f 51/56/54 25/18/18 26/12/12
f 52/42/41 25/18/18 51/56/54
f 52/42/41 30/19/19 25/18/18
f 3/29/29 2/28/28 55/45/44
f 30/19/19 53/43/42 23/44/43
f 55/45/44 54/57/55 3/29/29
