#  ==========================================================================
#  
#  Wavefront OBJ format exported by Red-i Productions' "Riptide Pro"
#     (a commercial plugin for Cinema 4D PC & Mac, R9.6 or later)
#  
#  Red-i Productions
#  http://skinprops.com
#  
#  ==========================================================================
mtllib HAND_new_92.mtl
v -15.2949 13.2039 3.74564
v -25.9203 10.8738 9.12558
v -12.4739 12.6595 -0.175957
v -12.0115 12.744 4.38029
v -12.0108 12.95 4.026
v -12.031 11.331 7.32087
v -11.8771 12.5875 -0.198306
v -32.417 11.5608 9.88246
v -32.3473 11.9626 8.61024
v -31.9701 12.9962 3.81982
v -32.2834 12.469 7.52464
v -31.5298 12.8222 -0.63022
v -31.9234 13.2019 3.16283
v -12.012 10.0622 8.65111
# 14 vertices

vt 0.58869 0.45526
vt 0.60351 0.47299
vt 0.58582 0.46771
vt 0.58509 0.47133
vt 0.59411 0.44051
vt 0.64150 0.46661
vt 0.58929 0.45288
vt 0.65048 0.48208
vt 0.65196 0.46978
vt 0.65395 0.45382
vt 0.58457 0.47949
vt 0.65187 0.47125
vt 0.65578 0.45550
vt 0.64947 0.48904
# 14 texture coordinates

vn 0.0616093 0.957827 0.280664
vn 0.0918074 0.908646 0.40735
vn 0.162399 0.942129 0.293292
vn 0.126818 0.921894 0.3661
vn 0.00745308 0.993416 -0.114318
vn 0.0223297 0.97368 0.226824
vn -0.00367823 0.994833 0.101463
vn 0.0458899 0.848535 0.527145
vn 0.0777547 0.989801 0.119362
vn 0.0705322 0.992852 -0.0962862
vn 0.135224 0.94266 0.305133
vn 0.033192 0.883032 0.468138
vn 0.116339 0.989879 -0.0812671
vn 0.0656406 0.722538 0.688208
# 14 vertex normals

usemtl Default
f 11/3/3 2/2/2 10/1/1
f 11/3/3 9/4/4 2/2/2
f 13/7/7 1/6/6 12/5/5
f 1/6/6 2/2/2 6/8/8
f 3/10/10 1/6/6 5/9/9
f 8/11/11 2/2/2 9/4/4
f 10/1/1 1/6/6 13/7/7
f 5/9/9 1/6/6 4/12/12
f 6/8/8 4/12/12 1/6/6
f 5/9/9 7/13/13 3/10/10
f 10/1/1 2/2/2 1/6/6
f 12/5/5 1/6/6 3/10/10
f 14/14/14 6/8/8 2/2/2
# 13 facets

