#  ==========================================================================
#  
#  Wavefront OBJ format exported by Red-i Productions' "Riptide Pro"
#     (a commercial plugin for Cinema 4D PC & Mac, R9.6 or later)
#  
#  Red-i Productions
#  http://skinprops.com
#  
#  ==========================================================================
mtllib HAND_new_90.mtl
v -16.5194 -5.42696 -25.031
v -21.0752 2.59703 -23.74
v -19.0689 -0.160927 -25.0907
v -19.4169 -3.26027 -25.7748
v -23.9165 4.88054 -21.6806
v -20.442 8.44211 -16.4599
v -11.2595 8.3946 -15.7193
v -11.3269 9.03953 -14.3217
v -10.4691 -5.46991 -23.6981
v -10.4592 -4.53581 -23.939
v -11.048 5.74315 -19.1049
v -10.6012 -1.42498 -23.7762
v -10.5211 -3.03253 -24.1021
v -10.9616 4.68635 -20.5322
v -10.9176 4.08197 -21.1509
v -10.8605 3.14431 -21.7137
v -10.7026 0.623971 -23.3853
v -27.601 -5.88326 -26.4147
v -28.495 2.41394 -23.7036
v -28.9233 4.91705 -21.3009
v -27.697 -4.08797 -26.6605
v -30.1964 9.82256 -13.5677
v -28.2593 0.966707 -24.9676
v -28.1123 -0.172404 -25.5604
v -27.8009 -3.0344 -26.447
v -29.8333 8.81866 -15.0277
v -29.3438 6.69096 -18.3779
v -11.418 9.63355 -11.9929
v -21.8366 10.0725 -13.0393
v -17.835 10.0812 -12.6525
# 30 vertices

vt 0.62702 0.35844
vt 0.63795 0.37316
vt 0.62210 0.37034
vt 0.61760 0.38172
vt 0.64278 0.39621
vt 0.67591 0.39088
vt 0.67132 0.40458
vt 0.64206 0.33868
vt 0.65946 0.35662
vt 0.63156 0.34795
vt 0.68024 0.37874
vt 0.68370 0.36918
vt 0.68665 0.36219
vt 0.66241 0.34546
vt 0.68922 0.35720
vt 0.67789 0.38517
vt 0.64989 0.36512
vt 0.69146 0.34461
vt 0.69608 0.34724
vt 0.69973 0.35483
vt 0.65352 0.33397
vt 0.66445 0.33591
vt 0.65378 0.33763
vt 0.62971 0.35211
vt 0.65253 0.34129
vt 0.61236 0.39436
vt 0.60924 0.40186
vt 0.64739 0.41116
vt 0.66975 0.40942
vt 0.66744 0.41700
vt 0.67888 0.38234
vt 0.63501 0.40729
# 32 texture coordinates

vn -0.0299193 0.666486 -0.744917
vn -0.00921945 0.777162 -0.629233
vn -0.042035 0.776409 -0.628825
vn -0.0410755 0.846165 -0.531336
vn 0.0195664 0.850946 -0.524889
vn 0.0590258 0.795914 -0.602525
vn 0.046267 0.853611 -0.518853
vn 0.0722635 0.237621 -0.968666
vn 0.0952001 0.390646 -0.915605
vn 0.0473909 0.384643 -0.921848
vn 0.132077 0.52868 -0.838483
vn 0.160512 0.318779 -0.934139
vn 0.177218 0.198478 -0.963951
vn 0.145881 0.107326 -0.983463
vn 0.186018 0.00639348 -0.982525
vn 0.0685327 0.76172 -0.644272
vn 0.062014 0.611427 -0.788867
vn 0.16708 -0.14671 -0.974967
vn 0.206851 -0.24633 -0.946855
vn 0.199231 -0.172755 -0.964605
vn 0.12806 -0.127799 -0.983498
vn 0.112838 -0.0320039 -0.993098
vn 0.023729 0.53251 -0.846091
vn -0.0508386 0.832206 -0.552132
vn -0.027488 0.862926 -0.504583
vn 0.065635 0.941184 -0.331458
vn 0.0520189 0.92563 -0.374838
vn 0.0923208 0.965696 -0.242711
vn 0.107061 0.621193 -0.77631
vn 0.0256368 0.906429 -0.42158
# 30 vertex normals

usemtl Default
f 20/3/3 5/2/2 19/1/1
f 27/4/4 5/2/2 20/3/3
f 7/7/7 11/6/6 6/5/5
f 24/10/10 3/9/9 25/8/8
f 17/12/12 3/9/9 16/11/11
f 13/15/15 4/14/14 12/13/13
f 2/17/17 5/2/2 14/16/16
f 16/11/11 3/9/9 2/17/17
f 14/16/16 6/5/5 11/6/6
f 1/18/18 4/14/14 13/15/15
f 10/20/20 9/19/19 1/18/18
f 4/14/14 3/9/9 17/12/12
f 21/23/22 1/22/18 18/21/21
f 23/24/23 3/9/9 24/10/10
f 25/25/8 4/14/14 21/23/22
f 22/27/25 6/5/5 26/26/24
f 26/26/24 5/2/2 27/4/4
f 19/1/1 2/17/17 23/24/23
f 28/30/28 8/29/27 30/28/26
f 8/29/27 7/7/7 6/5/5
f 14/16/16 5/2/2 6/5/5
f 14/16/16 15/31/29 2/17/17
f 2/17/17 15/31/29 16/11/11
f 17/12/12 12/13/13 4/14/14
f 13/15/15 10/20/20 1/18/18
f 25/25/8 3/9/9 4/14/14
f 21/23/22 4/14/14 1/22/18
f 26/26/24 6/5/5 5/2/2
f 19/1/1 5/2/2 2/17/17
f 23/24/23 2/17/17 3/9/9
f 8/29/27 6/5/5 29/32/30
f 29/32/30 6/5/5 22/27/25
f 29/32/30 30/28/26 8/29/27
# 33 facets

