#  ==========================================================================
#  
#  Wavefront OBJ format exported by Red-i Productions' "Riptide Pro"
#     (a commercial plugin for Cinema 4D PC & Mac, R9.6 or later)
#  
#  Red-i Productions
#  http://skinprops.com
#  
#  ==========================================================================
mtllib HAND_new_41.mtl
v 96.4458 -7.28362 -16.2817
v 101.119 -7.64883 -17.2123
v 99.0598 -8.467 -9.77072
v 100.082 -4.83096 -8.09997
v 98.6476 -7.29763 -8.53532
v 101.08 -8.94822 -16.0758
v 98.3385 -9.13561 -14.2188
v 91.5287 -5.43385 -15.5883
v 90.645 -7.40128 -12.5378
v 94.5878 -4.67888 -16.8079
v 98.7606 -9.19876 -11.5995
v 92.5356 -3.5493 -6.51908
v 92.429 -4.33704 -6.72028
v 92.0623 -5.68722 -7.45635
v 91.9588 -5.86159 -7.65762
v 91.2214 -7.28389 -10.2666
v 90.6159 -5.73392 -15.1278
v 90.6136 -5.14184 -15.5323
v 90.6763 -4.1827 -16.1199
v 104.958 -5.6796 -8.95575
v 104.694 -6.73966 -9.09841
v 104.628 -7.03114 -9.16353
v 104.451 -7.82282 -9.33617
v 104.225 -8.59175 -9.91272
v 104.133 -8.90665 -10.245
v 104.118 -9.03138 -10.3767
v 103.932 -9.19042 -11.713
v 103.849 -9.289 -12.4913
v 103.777 -9.51036 -13.1555
v 103.705 -9.4858 -13.7674
v 103.586 -9.30682 -14.7533
v 103.407 -8.83067 -16.4219
v 103.371 -8.12554 -17.0327
v 103.512 -7.26699 -17.7449
v 103.722 -6.09867 -18.0883
# 35 vertices

vt 0.68234 0.10989
vt 0.66455 0.10947
vt 0.66936 0.10543
vt 0.68569 0.11244
vt 0.68216 0.12267
vt 0.64623 0.10332
vt 0.64996 0.10570
vt 0.64243 0.10629
vt 0.65493 0.13172
vt 0.65728 0.11743
vt 0.64926 0.11116
vt 0.68255 0.13197
vt 0.64187 0.10921
vt 0.64086 0.11492
vt 0.63939 0.13989
vt 0.63317 0.13540
vt 0.64379 0.13988
vt 0.65635 0.13717
vt 0.63737 0.13402
vt 0.63828 0.13091
vt 0.67866 0.14253
vt 0.68423 0.15110
vt 0.67832 0.14338
vt 0.68814 0.11009
vt 0.63966 0.12210
vt 0.63920 0.12491
vt 0.63435 0.13501
vt 0.63859 0.12887
vt 0.63855 0.12945
vt 0.68981 0.15536
vt 0.67163 0.15007
vt 0.68563 0.10973
vt 0.69005 0.10690
vt 0.67952 0.10540
vt 0.63990 0.12033
vt 0.65579 0.12556
vt 0.64013 0.11799
vt 0.64970 0.10098
vt 0.65459 0.10195
vt 0.64912 0.10373
vt 0.00000 0.00000
vt 1.00000 0.00000
vt 1.00000 1.00000
# 43 texture coordinates

vn -0.217077 -0.599367 -0.770478
vn -0.276558 -0.647676 -0.709952
vn -0.215421 -0.36532 -0.905613
vn -0.113759 -0.714121 -0.690717
vn -0.210291 -0.934968 -0.285678
vn -0.124943 -0.450153 -0.884167
vn -0.143406 -0.499431 -0.854403
vn -0.0752014 -0.642462 -0.762619
vn -0.191079 -0.8925 0.408573
vn -0.367672 -0.915538 -0.163121
vn -0.112487 -0.883354 -0.455008
vn -0.160985 -0.938346 0.305924
vn -0.0518684 -0.786324 -0.615634
vn -0.0210551 -0.974295 -0.224291
vn 0.142232 -0.166733 0.975689
vn 0.12589 -0.203715 0.970903
vn 0.129913 -0.225541 0.965533
vn 0.0492043 -0.519639 0.852968
vn 0.0848402 -0.431787 0.897977
vn 0.0278055 -0.669874 0.741954
vn -0.100275 -0.777167 0.621254
vn 0.0894921 -0.377159 0.921815
vn -0.0226238 -0.618678 0.785319
vn -0.218114 -0.525686 -0.822241
vn -0.00249272 -0.962159 0.272477
vn -0.0935883 -0.98672 0.132756
vn 0.111054 -0.237109 0.965115
vn -0.0489799 -0.901241 0.430541
vn 0.00136951 -0.726022 0.68767
vn 0.154046 -0.261366 0.952868
vn -0.211165 -0.500588 -0.839536
vn -0.0171852 -0.989607 0.142767
vn -0.25416 -0.947572 0.193676
vn -0.0589244 -0.993449 -0.0979129
vn -0.172319 -0.249213 -0.952995
# 35 vertex normals

usemtl Mat
f 10/3/3 1/2/2 8/1/1
f 9/5/5 17/4/4 8/1/1
f 33/8/8 2/7/7 34/6/6
f 9/5/5 7/10/10 3/9/9
f 6/11/11 7/10/10 1/2/2
f 1/2/2 2/7/7 6/11/11
f 2/7/7 1/2/2 10/3/3
f 3/9/9 16/12/12 9/5/5
f 31/14/14 6/11/11 32/13/13
f 4/17/17 21/16/16 20/15/15
f 24/20/20 23/19/19 5/18/18
f 8/1/1 1/2/2 9/5/5
f 16/12/12 3/9/9 15/21/21
f 14/23/23 5/18/18 13/22/22
f 18/24/24 8/1/1 17/4/4
f 1/2/2 7/10/10 9/5/5
f 27/26/26 3/9/9 28/25/25
f 21/16/16 4/17/17 22/27/27
f 3/9/9 27/26/26 26/28/28
f 25/29/29 3/9/9 26/28/28
f 5/18/18 4/31/17 12/30/30
f 15/21/21 5/18/18 14/23/23
f 12/30/30 13/22/22 5/18/18
f 15/21/21 3/9/9 5/18/18
f 19/33/31 8/1/1 18/32/24
f 19/33/31 10/34/3 8/1/1
f 22/27/27 4/17/17 5/18/18
f 5/18/18 23/19/19 22/27/27
f 5/18/18 3/9/9 25/29/29
f 25/29/29 24/20/20 5/18/18
f 28/25/25 11/36/33 29/35/32
f 28/25/25 3/9/9 11/36/33
f 11/36/33 7/10/10 30/37/34
f 30/37/34 6/11/11 31/14/14
f 30/37/34 29/35/32 11/36/33
f 30/37/34 7/10/10 6/11/11
f 32/13/13 2/7/7 33/8/8
f 32/13/13 6/11/11 2/7/7
f 2/7/7 10/39/3 35/38/35
f 35/38/35 34/40/6 2/7/7
f 11/43/33 3/42/9 7/41/10
# 41 facets

