#  ==========================================================================
#  
#  Wavefront OBJ format exported by Red-i Productions' "Riptide Pro"
#     (a commercial plugin for Cinema 4D PC & Mac, R9.6 or later)
#  
#  Red-i Productions
#  http://skinprops.com
#  
#  ==========================================================================
mtllib HAND_new_63.mtl
v 28.8946 -18.364 0.270533
v 33.232 -18.4109 3.69792
v 19.7259 -15.9672 1.20774
v 23.0375 -15.6736 -2.51205
v 31.28 -17.391 -1.73675
v 19.4614 -15.6035 4.38271
v 36.1798 -15.3985 0.43404
v 36.4414 -15.4772 2.01035
v 35.2265 -16.8583 -5.349
v 36.6314 -15.6125 3.04156
v 34.9198 -16.9221 -6.56955
v 32.6805 -17.2478 -6.09198
v 30.7163 -17.5042 -5.63508
v 29.5219 -17.6604 -5.39667
v 28.9248 -17.871 -5.27393
v 26.1619 -16.7746 -4.69183
v 22.1831 -15.2427 -4.45096
v 21.1971 -14.8847 -4.39137
v 19.6407 -14.616 -4.32903
v 30.0079 -18.5444 4.17377
v 29.1615 -18.7865 4.24369
v 27.4184 -18.2149 4.30252
v 24.7325 -17.1331 4.38563
v 21.3672 -15.5564 4.37507
# 24 vertices

vt 0.92824 0.10376
vt 0.92839 0.10932
vt 0.91580 0.10561
vt 0.94129 0.12806
vt 0.93067 0.13262
vt 0.93249 0.10142
vt 0.91764 0.13605
vt 0.91417 0.12209
vt 0.92272 0.13411
vt 0.89958 0.10663
vt 0.89941 0.11700
vt 0.89339 0.10746
vt 0.95263 0.12785
vt 0.94670 0.12139
vt 0.90716 0.13863
vt 0.91342 0.13670
vt 0.88691 0.11110
vt 0.89120 0.13146
vt 0.89257 0.13752
vt 0.89290 0.14097
vt 0.90332 0.10602
vt 0.88711 0.10792
vt 0.90650 0.10620
vt 0.94087 0.10679
vt 0.94587 0.11333
vt 0.93428 0.10689
# 26 texture coordinates

vn -0.352609 -0.93431 -0.0522641
vn -0.249892 -0.9663 -0.0617939
vn -0.372169 -0.925829 -0.0658114
vn -0.204555 -0.9783 -0.0329509
vn -0.39052 -0.915393 -0.0977175
vn -0.23248 -0.956905 -0.174031
vn 0.0819369 -0.990039 -0.114499
vn -0.0795794 -0.99189 -0.0990994
vn -0.343901 -0.934552 -0.0913475
vn 0.131631 -0.991251 0.00974703
vn 0.259204 -0.962765 -0.0767972
vn 0.141882 -0.989797 0.013091
vn 0.128869 -0.988676 0.076897
vn -0.0406596 -0.992589 -0.114517
vn 0.397272 -0.881119 -0.256524
vn 0.138865 -0.977168 -0.160809
vn 0.198464 -0.977408 0.0727001
vn 0.362343 -0.931311 0.0369685
vn 0.519979 -0.824596 -0.222853
vn 0.596541 -0.774226 -0.211454
vn 0.255978 -0.965288 -0.0518967
vn 0.147001 -0.989026 0.0147629
vn -0.158622 -0.983381 -0.0883175
vn -0.174529 -0.957195 -0.230904
# 24 vertex normals

usemtl Mat
f 16/3/3 4/2/2 17/1/1
f 23/5/5 24/4/4 4/2/2
f 17/1/1 4/2/2 18/6/6
f 22/9/9 1/8/8 21/7/7
f 12/12/12 5/11/11 13/10/10
f 3/14/14 4/2/2 6/13/13
f 4/2/2 24/4/4 6/13/13
f 20/16/16 5/11/11 2/15/15
f 7/18/18 5/11/11 9/17/17
f 10/20/20 2/15/15 8/19/19
f 8/19/19 5/11/11 7/18/18
f 8/19/19 2/15/15 5/11/11
f 13/10/10 5/11/11 14/21/21
f 9/17/17 5/11/11 12/12/12
f 12/12/12 11/22/22 9/17/17
f 14/21/21 1/8/8 15/23/23
f 15/23/23 4/2/2 16/3/3
f 18/26/6 3/25/14 19/24/24
f 18/26/6 4/2/2 3/25/14
f 15/23/23 1/8/8 4/2/2
f 14/21/21 5/11/11 1/8/8
f 21/7/7 5/11/11 20/16/16
f 21/7/7 1/8/8 5/11/11
f 23/5/5 1/8/8 22/9/9
f 23/5/5 4/2/2 1/8/8
# 25 facets

