#  ==========================================================================
#  
#  Wavefront OBJ format exported by Red-i Productions' "Riptide Pro"
#     (a commercial plugin for Cinema 4D PC & Mac, R9.6 or later)
#  
#  Red-i Productions
#  http://skinprops.com
#  
#  ==========================================================================
mtllib HAND_new_57.mtl
v 35.0848 -2.18029 33.989
v 43.8 3.68421 29.2443
v 31.3866 3.32241 21.9899
v 45.5712 -2.61569 35.0325
v 44.126 4.5976 26.8577
v 37.6962 -7.42266 41.4314
v 49.9671 -5.5659 33.5567
v 39.4916 5.15183 19.1208
v 44.6369 -1.31136 33.5434
v 39.5712 7.41092 11.9336
v 42.5735 -2.19909 36.5516
v 39.1212 -3.90626 39.0111
v 39.1969 4.07015 27.3935
v 37.2576 2.1279 30.2195
v 46.3816 2.55724 28.9316
v 47.9786 -2.93167 31.9293
v 47.5785 -0.666798 31.5023
v 42.2083 7.53398 10.0234
v 42.4089 7.31419 11.2252
v 42.5386 7.09634 12.2653
v 43.1722 5.44681 17.3577
v 43.2758 5.18501 18.1631
v 43.3303 4.97872 18.7191
v 43.4007 4.52167 19.3625
v 43.8558 4.5936 21.2834
v 46.2418 3.31902 28.5248
v 45.7374 4.03152 27.1568
v 45.1238 4.44389 25.1892
v 30.7527 7.09668 10.8985
v 30.9112 6.21649 14.042
v 36.8012 -4.93288 38.8663
v 32.8925 1.32596 27.6587
v 38.206 7.74468 10.3419
# 33 vertices

vt 0.84010 0.65529
vt 0.87453 0.65962
vt 0.84370 0.66831
vt 0.89568 0.67560
vt 0.86421 0.68649
vt 0.80382 0.67649
vt 0.81317 0.66440
vt 0.81176 0.67841
vt 0.83421 0.63580
vt 0.81047 0.65147
vt 0.81253 0.63134
vt 0.85421 0.69640
vt 0.84950 0.69362
vt 0.85674 0.64790
vt 0.83621 0.68954
vt 0.83438 0.68373
vt 0.79985 0.65946
vt 0.81851 0.62509
vt 0.89034 0.70331
vt 0.88400 0.70247
vt 0.90401 0.68133
vt 0.82921 0.67690
vt 0.78964 0.67816
vt 0.82994 0.68724
vt 0.82322 0.68402
vt 0.82540 0.68516
vt 0.85632 0.69840
vt 0.85833 0.69979
vt 0.86095 0.70080
vt 0.87651 0.71016
vt 0.88062 0.71229
vt 0.88385 0.71377
vt 0.81393 0.61836
# 33 texture coordinates

vn -0.199754 0.815867 0.542641
vn -0.250584 0.916534 0.311725
vn -0.16216 0.940834 0.29755
vn -0.0711633 0.949485 0.305637
vn 0.0235633 0.969652 0.24335
vn 0.560533 0.4937 0.664878
vn 0.381592 0.702241 0.601037
vn 0.43288 0.466659 0.771261
vn -0.301061 0.774574 0.556235
vn 0.0542866 0.854044 0.51736
vn -0.281122 0.769548 0.573381
vn 0.137773 0.955164 0.262069
vn 0.144603 0.989034 -0.0300302
vn -0.420225 0.773793 0.473978
vn 0.227823 0.972585 0.0466371
vn 0.115022 0.980413 0.159877
vn 0.482601 0.786243 0.385901
vn -0.344856 0.689444 0.636979
vn -0.000288394 0.978665 0.205464
vn 0.0142203 0.971767 0.235512
vn -0.065371 0.96207 0.264853
vn 0.139816 0.804302 0.577538
vn 0.579558 0.727235 0.367752
vn 0.269799 0.91933 0.286427
vn 0.335105 0.601106 0.725518
vn 0.292048 0.725979 0.622626
vn 0.0878693 0.884278 0.458618
vn 0.0728058 0.944483 0.320392
vn 0.0675479 0.951478 0.300212
vn 0.0723019 0.961507 0.265098
vn 0.0785789 0.980358 0.180895
vn 0.0696389 0.984726 0.159579
vn -0.319755 0.621712 0.715004
# 33 vertex normals

usemtl Mat
f 13/3/3 3/2/2 14/1/1
f 3/2/2 8/5/5 30/4/4
f 17/8/8 9/7/7 16/6/6
f 11/10/10 14/1/1 1/9/9
f 1/9/9 12/11/11 11/10/10
f 25/13/13 24/12/12 8/5/5
f 1/9/9 14/1/1 32/14/14
f 5/16/16 28/15/15 25/13/13
f 11/10/10 4/17/17 9/7/7
f 8/5/5 13/3/3 5/16/16
f 31/18/18 12/11/11 1/9/9
f 29/21/21 10/20/20 33/19/19
f 9/7/7 2/22/22 14/1/1
f 4/17/17 7/23/23 9/7/7
f 7/23/23 16/6/6 9/7/7
f 28/15/15 5/16/16 27/24/24
f 13/3/3 8/5/5 3/2/2
f 15/25/25 2/22/22 9/7/7
f 26/26/26 2/22/22 15/25/25
f 32/14/14 14/1/1 3/2/2
f 13/3/3 14/1/1 2/22/22
f 2/22/22 5/16/16 13/3/3
f 9/7/7 14/1/1 11/10/10
f 23/27/27 8/5/5 24/12/12
f 22/28/28 8/5/5 23/27/27
f 21/29/29 8/5/5 22/28/28
f 19/31/31 10/20/20 20/30/30
f 10/20/20 19/31/31 18/32/32
f 9/7/7 17/8/8 15/25/25
f 33/19/19 10/20/20 18/32/32
f 20/30/30 8/5/5 21/29/29
f 20/30/30 10/20/20 8/5/5
f 25/13/13 8/5/5 5/16/16
f 27/24/24 5/16/16 2/22/22
f 2/22/22 26/26/26 27/24/24
f 30/4/4 10/20/20 29/21/21
f 30/4/4 8/5/5 10/20/20
f 6/33/33 12/11/11 31/18/18
# 38 facets

