#  ==========================================================================
#  
#  Wavefront OBJ format exported by Red-i Productions' "Riptide Pro"
#     (a commercial plugin for Cinema 4D PC & Mac, R9.6 or later)
#  
#  Red-i Productions
#  http://skinprops.com
#  
#  ==========================================================================
mtllib HAND_new_70.mtl
v 16.4769 -11.2808 16.2876
v 16.4212 -7.73623 18.8453
v 11.4192 -12.0641 13.9153
v 10.9095 -9.85682 16.8948
v 18.6256 -6.62683 20.5844
v 18.5856 -7.77369 20.2383
v 18.5467 -9.28167 19.2817
v 18.4858 -11.2256 17.8115
v 18.5554 -12.4972 15.8026
v 18.549 -13.0642 14.8135
v 17.5464 -12.6558 14.7379
v 15.7791 -11.8969 14.4395
v 5.14323 -9.99426 14.7579
v 5.1173 -11.0554 12.7166
v 5.16994 -8.92317 16.2333
v 5.33216 -6.70983 17.172
v 5.19676 -7.88399 16.6913
v 17.3141 -6.67314 19.3195
v 16.0568 -6.71497 18.7948
v 11.3891 -6.5776 18.0863
# 20 vertices

vt 0.69718 0.62044
vt 0.70341 0.60966
vt 0.70668 0.61399
vt 0.68453 0.61941
vt 0.67778 0.62702
vt 0.89343 0.60823
vt 0.89986 0.60692
vt 0.89374 0.61114
vt 0.97547 0.15999
vt 0.98054 0.15943
vt 0.98445 0.16834
vt 0.97462 0.17148
vt 0.98243 0.16619
vt 0.97889 0.17543
vt 0.90324 0.60885
vt 0.90446 0.60516
vt 0.90584 0.60742
vt 0.96672 0.16115
vt 0.97101 0.16773
vt 0.90025 0.61000
vt 0.96640 0.15590
vt 0.96580 0.15842
vt 0.96326 0.15756
vt 0.97201 0.15315
vt 0.97396 0.15551
vt 0.70720 0.61749
vt 0.67730 0.61734
vt 0.68153 0.61624
vt 0.69326 0.55385
vt 0.71720 0.56494
vt 0.69434 0.56586
vt 0.72126 0.56294
vt 0.70996 0.55910
vt 0.71706 0.57596
vt 0.69991 0.57122
# 35 texture coordinates

vn -0.15135 -0.851736 0.501637
vn -0.152015 -0.615174 0.773597
vn -0.308192 -0.751906 0.5828
vn -0.20465 -0.83106 0.517163
vn -0.224142 -0.863534 0.451741
vn -0.511973 -0.346171 0.786161
vn -0.349791 -0.252031 0.90229
vn -0.624268 0.0160788 0.781045
vn -0.503556 -0.492008 0.710183
vn -0.546237 0.0871924 0.83308
vn -0.267773 -0.0479994 0.962286
vn -0.3597 -0.803662 0.474071
vn -0.439781 -0.664804 0.603844
vn -0.381663 -0.806265 0.451963
vn -0.363822 -0.807093 0.465011
vn -0.21484 -0.899302 0.380919
vn -0.188434 -0.685133 0.703623
vn -0.163125 -0.181384 0.969789
vn -0.169371 -0.381435 0.908747
vn -0.14973 -0.0026048 0.988724
# 20 vertex normals

usemtl Default
f 1/3/3 4/2/2 3/1/1
f 14/5/5 3/1/1 13/4/4
f 5/8/8 2/7/7 6/6/6
f 2/11/7 4/10/2 1/9/3
f 6/14/6 2/13/7 7/12/9
f 19/17/11 2/16/7 18/15/10
f 8/19/13 1/9/3 9/18/12
f 18/20/10 2/7/7 5/8/8
f 7/12/9 2/13/7 1/9/3
f 1/9/3 8/19/13 7/12/9
f 10/23/15 9/22/12 11/21/14
f 11/21/14 1/25/3 12/24/16
f 11/21/14 9/22/12 1/25/3
f 12/26/16 1/3/3 3/1/1
f 3/1/1 4/28/2 15/27/17
f 17/31/19 2/30/7 16/29/18
f 20/33/20 2/30/7 19/32/11
f 4/34/2 2/30/7 17/31/19
f 2/30/7 20/33/20 16/29/18
f 17/31/19 15/35/17 4/34/2
f 15/27/17 13/4/4 3/1/1
# 21 facets

