# 29 vertices
v -114.097 -41.2 -7.82724
v -114.971 -42.344 1.06153
v -94.5416 -29.5224 -15.5396
v -93.515 -32.2221 -11.625
v -107.917 -39.9716 2.02844
v -90.2111 -34.2388 -7.26354
v -108.361 -40.2706 -5.20727
v -114.811 -38.4461 -13.7346
v -106.011 -37.6968 -11.2082
v -114.2 -42.0039 -4.75442
v -98.5214 -35.7099 -4.81012
v -106.894 -35.7684 -14.7906
v -94.9915 -34.7452 -2.94868
v -88.508 -34.8384 -3.58228
v -89.4809 -34.3257 -7.21306
v -89.6875 -34.0333 -8.02191
v -90.8265 -32.2939 -12.4073
v -91.4688 -30.32 -14.3215
v -120.015 -40.9479 -8.37864
v -119.104 -41.4236 -6.62762
v -121.31 -39.7378 -10.8228
v -114.787 -42.134 1.78358
v -117.696 -42.2813 -3.93461
v -115.208 -42.3541 0.940727
v -122.047 -38.7011 -12.1877
v -91.9482 -29.3172 -16.0146
v -113.328 -41.0601 4.72838
v -90.8071 -34.495 -3.40619
v -91.2411 -34.449 -3.37001
# 29 texture coordinates
vt 0.35692 0.83557
vt 0.32250 0.82592
vt 0.34066 0.81975
vt 0.31243 0.80994
vt 0.33276 0.79728
vt 0.31189 0.81064
vt 0.37394 0.80620
vt 0.31109 0.83943
vt 0.31106 0.82855
vt 0.38413 0.79551
vt 0.40239 0.82414
vt 0.40708 0.84488
vt 0.31131 0.85615
vt 0.33336 0.85748
vt 0.31196 0.86305
vt 0.36149 0.85149
vt 0.40693 0.80274
vt 0.40910 0.80143
vt 0.40957 0.80435
vt 0.32725 0.83494
vt 0.41356 0.83253
vt 0.41182 0.82169
vt 0.31100 0.84614
vt 0.31207 0.80745
vt 0.31275 0.79630
vt 0.40535 0.78343
vt 0.39942 0.79062
vt 0.39803 0.79117
vt 0.41498 0.84015
# 29 vertex normals
vn 0.31893 -0.87397 -0.366688
vn 0.139124 -0.974719 -0.174833
vn 0.341481 -0.934448 -0.100981
vn 0.241081 -0.969756 0.0381233
vn 0.330794 -0.941819 0.059606
vn 0.0674992 -0.996499 -0.0493331
vn 0.383901 -0.912044 -0.144206
vn -0.0104052 -0.962539 -0.270944
vn 0.0360552 -0.983197 -0.17895
vn 0.150555 -0.973224 -0.173689
vn 0.0568833 -0.906315 -0.418757
vn 0.167358 -0.815823 -0.553557
vn -0.0551245 -0.861299 -0.505099
vn 0.0321014 -0.881837 -0.47046
vn -0.0930484 -0.816466 -0.569846
vn 0.254718 -0.837833 -0.48286
vn -0.0858618 -0.972219 -0.217756
vn -0.117772 -0.982214 -0.14624
vn -0.112283 -0.936763 -0.331464
vn 0.112729 -0.928334 -0.354243
vn -0.0754575 -0.807242 -0.585378
vn -0.171605 -0.841353 -0.51252
vn -0.0112459 -0.928015 -0.372372
vn 0.287775 -0.936779 0.199075
vn 0.287776 -0.936779 0.199073
vn -0.154321 -0.983198 -0.0975049
vn -0.13319 -0.986967 -0.0903109
vn -0.0499048 -0.996505 -0.066985
vn -0.024114 -0.863137 -0.504393
# 34 facets
f 7/3/3 10/2/2 9/1/1
f 5/5/5 2/4/4 7/3/3
f 10/2/2 2/4/4 24/6/6
f 11/7/7 7/3/3 9/1/1
f 23/9/9 20/8/8 10/2/2
f 11/7/7 4/11/11 13/10/10
f 4/11/11 9/1/1 3/12/12
f 25/15/15 8/14/14 21/13/13
f 9/1/1 12/16/16 3/12/12
f 13/10/10 4/11/11 6/17/17
f 16/19/19 15/18/18 6/17/17
f 9/1/1 4/11/11 11/7/7
f 1/20/20 12/16/16 9/1/1
f 10/2/2 1/20/20 9/1/1
f 7/3/3 11/7/7 5/5/5
f 10/2/2 7/3/3 2/4/4
f 1/20/20 8/14/14 12/16/16
f 17/22/22 4/11/11 18/21/21
f 13/10/10 5/5/5 11/7/7
f 16/19/19 4/11/11 17/22/22
f 1/20/20 10/2/2 20/8/8
f 8/14/14 1/20/20 19/23/23
f 18/21/21 4/11/11 3/12/12
f 16/19/19 6/17/17 4/11/11
f 22/24/24 2/4/4 5/5/5
f 24/6/6 23/9/9 10/2/2
f 20/8/8 19/23/23 1/20/20
f 19/23/23 21/13/13 8/14/14
f 27/25/25 22/24/24 5/5/5
f 28/27/27 15/18/18 14/26/26
f 29/28/28 15/18/18 28/27/27
f 13/10/10 6/17/17 29/28/28
f 29/28/28 6/17/17 15/18/18
f 26/29/29 18/21/21 3/12/12
