#  ==========================================================================
#  
#  Wavefront OBJ format exported by Red-i Productions' "Riptide Pro"
#     (a commercial plugin for Cinema 4D PC & Mac, R9.6 or later)
#  
#  Red-i Productions
#  http://skinprops.com
#  
#  ==========================================================================
mtllib HAND_new_76.mtl
v 11.1487 12.6195 0.887916
v 13.2091 8.35721 10.5986
v 8.04022 12.2523 4.01046
v 19.6234 7.709 11.4108
v 19.7253 8.53102 7.89263
v 19.7073 9.53442 5.82134
v 19.6419 9.99576 4.3376
v 19.4406 10.8339 1.77176
v 5.73613 12.2517 4.17597
v 5.72123 11.7172 5.13806
v 5.67823 10.1698 7.77944
v 5.65371 9.27195 8.84636
v 6.6873 12.8771 0.34595
v 6.54664 12.8815 0.329028
v 5.75684 12.9036 0.251675
# 15 vertices

vt 0.70978 0.48169
vt 0.71746 0.48253
vt 0.70929 0.48559
vt 0.73336 0.50394
vt 0.74561 0.50219
vt 0.74419 0.50885
vt 0.72900 0.47542
vt 0.71482 0.47017
vt 0.74618 0.48517
vt 0.74726 0.48008
vt 0.74640 0.49758
vt 0.74456 0.48879
vt 0.71437 0.47003
vt 0.70830 0.49524
vt 0.70340 0.49801
vt 0.71180 0.46932
# 16 texture coordinates

vn 0.0234328 0.943797 0.329694
vn 0.0792579 0.948307 0.307296
vn 0.0296062 0.869501 0.493044
vn 0.0436269 0.885768 0.462073
vn 0.120055 0.925195 0.360001
vn 0.0691464 0.970996 0.228877
vn 0.128792 0.960813 0.245461
vn 0.0248946 0.986952 0.15908
vn 0.173895 0.941681 0.288093
vn 0.171209 0.940425 0.293749
vn 0.158528 0.919751 0.359064
vn 0.0115152 0.986405 0.163927
vn -0.0190932 0.817018 0.576296
vn -0.0563501 0.764556 0.64209
vn 0.011514 0.986405 0.163927
# 15 vertex normals

usemtl Default
f 10/3/3 3/2/2 9/1/1
f 4/6/6 5/5/5 2/4/4
f 13/8/8 3/2/2 1/7/7
f 8/10/10 1/7/7 7/9/9
f 3/2/2 2/4/4 5/11/5
f 7/9/9 1/7/7 3/2/2
f 5/11/5 6/12/11 3/2/2
f 3/2/2 6/12/11 7/9/9
f 14/13/12 3/2/2 13/8/8
f 2/4/4 3/2/2 10/3/3
f 12/15/14 2/4/4 11/14/13
f 10/3/3 11/14/13 2/4/4
f 15/16/15 3/2/2 14/13/12
f 15/16/15 9/1/1 3/2/2
# 14 facets

