# 21 vertices
v 22.1741 -3.83835 -18.3708
v 26.7666 -1.31014 -19.2742
v 29.2549 9.54883 -5.93831
v 22.6194 5.67608 -13.0058
v 26.9846 -5.58911 -20.9155
v 18.71 2.74889 -15.5161
v 26.7787 1.48285 -17.9426
v 28.2702 5.09943 -14.9988
v 28.6093 7.99459 -10.8146
v 23.8771 7.7178 -9.77685
v 18.7678 -5.78907 -17.506
v 28.4669 -5.37768 -21.3139
v 28.495 -5.0067 -21.2904
v 28.3087 -1.46693 -19.9953
v 28.2012 0.822358 -18.8026
v 18.6764 7.07877 -13.0156
v 18.7657 7.62865 -11.9123
v 18.8589 9.38329 -9.5269
v 19.0731 10.6296 -6.83799
v 18.7904 -1.46893 -17.6374
v 24.3316 9.19453 -5.73556
# 34 texture coordinates
vt 0.88808 0.04693
vt 0.89867 0.03542
vt 0.91344 0.04021
vt 0.92594 0.02477
vt 0.92086 0.03722
vt 0.91102 0.02802
vt 0.91867 0.02166
vt 0.97077 0.70683
vt 0.96218 0.72880
vt 0.94661 0.72161
vt 0.99657 0.71132
vt 0.99629 0.72278
vt 0.98300 0.70859
vt 0.76697 0.42823
vt 0.76530 0.43912
vt 0.75510 0.43628
vt 0.97584 0.73132
vt 0.92570 0.04883
vt 0.75474 0.43886
vt 0.76480 0.44268
vt 0.75413 0.44264
vt 0.88399 0.04476
vt 0.88339 0.04670
vt 0.98845 0.73603
vt 0.99485 0.74187
vt 0.88213 0.03549
vt 0.88692 0.03547
vt 0.98933 0.74050
vt 0.99454 0.74655
vt 0.76378 0.45002
vt 0.75136 0.44757
vt 0.74996 0.45270
vt 0.95980 0.69807
vt 0.76278 0.45659
# 21 vertex normals
vn -0.343647 0.258378 -0.902855
vn -0.329736 0.397529 -0.856297
vn -0.235961 0.254835 -0.937753
vn -0.00699528 0.475032 -0.879941
vn -0.0571651 0.219803 -0.973868
vn 0.0745959 0.881991 -0.465324
vn -0.145307 0.893827 -0.424217
vn -0.100006 0.94521 -0.310768
vn -0.0183524 0.710689 -0.703267
vn 0.249 0.695236 -0.674274
vn -0.148308 0.757172 -0.636156
vn -0.307344 0.118091 -0.944243
vn 0.254357 0.803472 -0.53827
vn -0.306714 0.195795 -0.931446
vn -0.269497 0.0811758 -0.959574
vn -0.304238 0.536794 -0.786951
vn -0.355199 0.348132 -0.867547
vn -0.2753 0.501987 -0.81989
vn 0.249165 0.826505 -0.504783
vn 0.290882 0.873621 -0.390094
vn 0.119175 0.928168 -0.352565
# 24 facets
f 1/3/3 2/2/2 5/1/1
f 20/5/5 6/4/4 1/3/3
f 6/7/4 2/6/2 1/3/3
f 3/10/8 9/9/7 10/8/6
f 4/13/9 2/12/2 6/11/4
f 16/16/10 4/15/9 6/14/4
f 10/8/6 9/9/7 8/17/11
f 1/3/3 5/1/1 11/18/12
f 20/5/5 1/3/3 11/18/12
f 17/21/13 4/20/9 16/19/10
f 10/8/6 8/17/11 4/13/9
f 12/23/15 5/1/1 13/22/14
f 7/24/16 4/13/9 8/17/11
f 2/25/2 4/13/9 7/24/16
f 5/1/1 2/27/2 14/26/17
f 14/26/17 13/22/14 5/1/1
f 2/25/2 7/24/16 15/28/18
f 15/28/18 14/29/17 2/25/2
f 15/28/18 7/24/16 8/17/11
f 18/31/19 10/30/6 17/21/13
f 19/32/20 10/30/6 18/31/19
f 10/30/6 4/20/9 17/21/13
f 3/10/8 10/8/6 21/33/21
f 21/34/21 10/30/6 19/32/20
