#  ==========================================================================
#  
#  Wavefront OBJ format exported by Red-i Productions' "Riptide Pro"
#     (a commercial plugin for Cinema 4D PC & Mac, R9.6 or later)
#  
#  Red-i Productions
#  http://skinprops.com
#  
#  ==========================================================================
mtllib HAND_new_87.mtl
v -18.3697 -22.7157 -0.865472
v -22.9967 -17.2735 9.54918
v -10.3819 -19.608 0.947988
v -10.9586 -13.425 12.1901
v -10.7977 -16.5272 7.22764
v -10.5894 -18.5214 2.91126
v -10.7336 -17.4026 6.31462
v -28.2892 -26.6209 -1.87165
v -29.6922 -20.5499 7.75558
v -29.7167 -20.4864 7.958
v -29.607 -20.8863 7.14417
v -29.7699 -20.1937 8.27132
v -30.3738 -17.101 12.0197
v -28.6784 -25.5039 1.2673
v -14.3048 -13.5038 12.0678
v -19.6007 -14.6299 12.042
v -26.2755 -15.4619 11.911
v -28.2775 -16.2346 11.9594
v -28.4584 -26.1353 -0.506841
v -15.4745 -21.1549 0.539894
v -19.8496 -22.4747 0.189358
v -22.4462 -23.8183 -0.0220813
# 22 vertices

vt 0.57142 0.65853
vt 0.58939 0.66515
vt 0.56423 0.66205
vt 0.60428 0.70054
vt 0.60966 0.70316
vt 0.59566 0.70563
vt 0.58194 0.65801
vt 0.56771 0.67880
vt 0.57561 0.71511
vt 0.57425 0.70940
vt 0.56802 0.68025
vt 0.63108 0.66713
vt 0.56825 0.68093
vt 0.63520 0.68631
vt 0.61876 0.69412
vt 0.56879 0.68332
vt 0.63411 0.67887
vt 0.63047 0.66281
vt 0.62729 0.64575
vt 0.61627 0.64588
vt 0.58515 0.65309
vt 0.58465 0.65857
vt 0.59902 0.65126
vt 0.57666 0.71950
# 24 texture coordinates

vn 0.247174 -0.566818 0.785889
vn 0.182995 -0.691816 0.698501
vn 0.226822 -0.652693 0.722871
vn 0.269704 -0.785018 0.55768
vn 0.2776 -0.840834 0.464689
vn 0.32152 -0.793593 0.516561
vn 0.161475 -0.661982 0.731919
vn 0.186048 -0.722777 0.665567
vn 0.311612 -0.882356 0.352628
vn 0.320635 -0.81051 0.490169
vn 0.179429 -0.797745 0.575681
vn 0.180723 -0.838879 0.513441
vn 0.191554 -0.906733 0.375688
vn 0.217137 -0.844155 0.490157
vn 0.215661 -0.84331 0.492259
vn 0.25887 -0.797281 0.54528
vn 0.207088 -0.868877 0.449631
vn 0.125739 -0.782164 0.610253
vn 0.000594738 -0.847945 0.530084
vn 0.0820734 -0.817473 0.570089
vn 0.134894 -0.765986 0.628545
vn 0.311612 -0.882355 0.352629
# 22 vertex normals

usemtl Mat
f 13/3/3 2/2/2 18/1/1
f 22/6/6 1/5/5 21/4/4
f 18/1/1 2/2/2 17/7/7
f 13/3/3 12/8/8 2/2/2
f 22/6/6 14/10/10 19/9/9
f 9/13/13 7/12/12 10/11/11
f 20/15/15 1/5/5 3/14/14
f 6/17/17 9/13/13 11/16/16
f 7/12/12 5/18/18 2/2/2
f 10/11/11 2/2/2 12/8/8
f 2/2/2 10/11/11 7/12/12
f 15/20/20 5/18/18 4/19/19
f 21/4/4 1/5/5 20/15/15
f 9/13/13 6/17/17 7/12/12
f 17/22/7 2/2/2 16/21/21
f 16/23/21 5/18/18 15/20/20
f 16/23/21 2/2/2 5/18/18
f 3/14/14 6/17/17 20/15/15
f 11/16/16 14/10/10 22/6/6
f 20/15/15 11/16/16 21/4/4
f 19/9/9 1/5/5 22/6/6
f 19/9/9 8/24/22 1/5/5
f 22/6/6 21/4/4 11/16/16
f 20/15/15 6/17/17 11/16/16
# 24 facets

