#  ==========================================================================
#  
#  Wavefront OBJ format exported by Red-i Productions' "Riptide Pro"
#     (a commercial plugin for Cinema 4D PC & Mac, R9.6 or later)
#  
#  Red-i Productions
#  http://skinprops.com
#  
#  ==========================================================================
mtllib HAND_new_4.mtl
v 63.5073 -8.72718 -20.6408
v 65.3418 -9.8256 -17.5219
v 73.4969 -6.51338 -18.854
v 70.3561 -7.60301 -21.6805
v 75.1161 -4.55221 -17.15
v 71.7527 -7.07794 -17.0603
v 63.4966 -6.75005 -23.4629
v 67.5063 -5.97895 -26.5381
v 63.7191 -3.76791 -25.9927
v 67.4725 -10.0032 -13.4003
v 62.1394 -10.4525 -16.1283
v 67.8614 -7.48863 -24.8856
v 59.7917 -6.28293 -24.2057
v 58.0225 -5.14511 -24.8484
v 58.0785 -6.34064 -24.0995
v 58.3694 -7.30303 -23.2994
v 58.9968 -8.37391 -21.9979
v 59.9703 -9.13725 -19.7785
v 61.0036 -9.73854 -17.9106
v 67.5933 -3.85759 -27.8446
v 64.0618 -10.7979 -11.9797
v 71.9098 -7.76761 -15.2697
v 72.6917 -7.13591 -15.5203
v 74.0528 -5.87698 -16.053
v 75.6164 -4.55861 -16.3876
v 57.8477 -3.5978 -25.1562
# 26 vertices

vt 0.75563 0.08399
vt 0.77820 0.09809
vt 0.77288 0.11463
vt 0.80000 0.07061
vt 0.79341 0.06777
vt 0.79934 0.06659
vt 0.79575 0.08611
vt 0.78262 0.08489
vt 0.80059 0.07669
vt 0.74921 0.10858
vt 0.75213 0.10214
vt 0.75334 0.10941
vt 0.74455 0.09492
vt 0.76442 0.07123
vt 0.78063 0.07242
vt 0.73776 0.10063
vt 0.79078 0.10141
vt 0.76506 0.06278
vt 0.77379 0.05958
vt 0.74284 0.10681
vt 0.78030 0.05841
vt 0.79951 0.06134
vt 0.79249 0.09379
vt 0.76931 0.05705
vt 0.78711 0.11790
vt 0.73602 0.10454
vt 0.00000 0.00000
vt 1.00000 0.00000
vt 1.00000 1.00000
# 29 texture coordinates

vn 0.275346 -0.948914 -0.154103
vn 0.107629 -0.953417 -0.2818
vn 0.282785 -0.942321 -0.179065
vn 0.0420385 -0.69569 -0.717111
vn 0.033309 -0.674352 -0.737658
vn -0.0301982 -0.589101 -0.807495
vn 0.0292661 -0.943926 -0.328857
vn 0.0183942 -0.906456 -0.4219
vn 0.0933768 -0.822873 -0.560501
vn 0.535784 -0.765863 -0.355513
vn 0.4962 -0.850397 -0.174955
vn 0.408745 -0.839065 -0.359023
vn 0.457889 -0.872481 0.170629
vn -0.172111 -0.87499 -0.452515
vn -0.201226 -0.728976 -0.654295
vn 0.591505 -0.792878 -0.146513
vn 0.107506 -0.96968 -0.219459
vn -0.383856 -0.595595 -0.705635
vn -0.215192 -0.671057 -0.709489
vn 0.551768 -0.748855 -0.367109
vn 0.062195 -0.764737 -0.641334
vn 0.0193943 -0.937699 -0.346907
vn -0.389196 -0.471412 -0.791389
vn 0.161975 -0.974356 -0.15619
vn 0.551939 -0.748078 -0.368433
vn 0.143876 0.208651 0.967349
# 26 vertex normals

usemtl Default
f 10/3/3 2/2/2 4/1/1
f 15/6/6 13/5/5 16/4/4
f 17/9/9 1/8/8 18/7/7
f 4/1/1 2/2/2 1/8/8
f 22/12/12 6/11/11 23/10/10
f 3/13/13 6/11/11 4/1/1
f 7/15/15 12/14/14 1/8/8
f 5/16/16 6/11/11 3/13/13
f 1/8/8 12/14/14 4/1/1
f 2/2/2 10/3/3 11/17/17
f 9/19/19 8/18/18 7/15/15
f 9/19/19 7/15/15 13/5/5
f 23/10/10 6/11/11 24/20/20
f 8/18/18 12/14/14 7/15/15
f 6/11/11 10/3/3 4/1/1
f 13/5/5 7/15/15 1/8/8
f 14/22/21 9/21/19 13/5/5
f 13/5/5 15/6/6 14/22/21
f 13/5/5 1/8/8 17/9/9
f 17/9/9 16/4/4 13/5/5
f 1/8/8 2/2/2 19/23/22
f 19/23/22 2/2/2 11/17/17
f 19/23/22 18/7/7 1/8/8
f 8/18/18 9/19/19 20/24/23
f 21/25/24 11/17/17 10/3/3
f 10/3/3 6/11/11 22/12/12
f 24/20/20 5/16/16 25/26/25
f 24/20/20 6/11/11 5/16/16
f 9/29/19 26/28/26 14/27/21
# 29 facets

