# 40 vertices
v 90.4866 -5.19513 16.238
v 97.0661 -2.79002 22.5963
v 96.3264 -7.87662 17.2957
v 100.277 -4.30239 25.3057
v 90.3952 -7.08421 16.2074
v 99.9411 -3.50242 23.4987
v 98.9314 -5.78436 18.4295
v 96.0533 -2.97407 20.4385
v 95.7327 -3.3892 24.9668
v 94.2852 -3.94625 25.7556
v 100.513 -4.04008 21.1441
v 90.4131 -6.28302 16.1797
v 89.4799 -5.03433 26.2042
v 89.5859 -4.74093 26.0854
v 89.743 -4.2672 25.8208
v 90.1266 -3.11427 25.0583
v 90.3019 -2.62185 24.6284
v 90.4998 -2.86055 17.8028
v 90.6749 -2.00279 18.8117
v 90.743 -1.55364 19.9037
v 90.6741 -1.56791 20.7049
v 90.6205 -1.34967 21.873
v 90.4518 -1.7723 23.0901
v 90.3189 -2.16958 24.1047
v 102.417 -6.30429 27.2431
v 102.953 -5.13804 25.9504
v 102.373 -6.39801 27.3543
v 102.385 -6.37235 27.325
v 102.36 -6.43264 27.3736
v 101.648 -8.36827 28.1565
v 102.358 -6.43776 27.3756
v 102.608 -9.06602 19.1001
v 102.762 -8.5237 19.2296
v 103.338 -6.00041 20.9101
v 103.29 -6.28009 20.6008
v 103.36 -5.0813 22.9579
v 103.124 -4.88896 25.2405
v 103.358 -5.07714 22.9845
v 103.026 -7.6394 19.3392
v 101.649 -8.36562 28.1555
# 40 texture coordinates
vt 0.74400 0.82697
vt 0.74033 0.82989
vt 0.72144 0.83623
vt 0.70134 0.81486
vt 0.71541 0.81557
vt 0.70561 0.81842
vt 0.73815 0.81507
vt 0.72156 0.81927
vt 0.73659 0.81174
vt 0.71620 0.80257
vt 0.72753 0.79679
vt 0.72845 0.79856
vt 0.73164 0.80311
vt 0.71457 0.80752
vt 0.72964 0.80012
vt 0.72551 0.79279
vt 0.71607 0.83157
vt 0.70112 0.83299
vt 0.70372 0.83828
vt 0.70797 0.82487
vt 0.74077 0.81783
vt 0.73518 0.80939
vt 0.69463 0.81966
vt 0.69744 0.82553
vt 0.71081 0.83806
vt 0.69146 0.81303
vt 0.69368 0.81776
vt 0.70056 0.83193
vt 0.73793 0.83180
vt 0.68903 0.80634
vt 0.72422 0.79039
vt 0.69126 0.81249
vt 0.72457 0.79132
vt 0.73342 0.80668
vt 0.69133 0.81262
vt 0.69127 0.81251
vt 0.71188 0.83867
vt 0.71148 0.84030
vt 0.69138 0.81272
vt 0.71549 0.83837
# 39 vertex normals
vn 0.239823 0.262861 -0.934553
vn 0.185627 0.000694084 -0.98262
vn 0.233203 0.0836391 -0.968825
vn 0.123547 0.843774 0.522286
vn 0.209657 0.973846 0.0875658
vn 0.275643 0.950562 0.143012
vn 0.301584 0.799219 -0.5199
vn 0.285077 0.876646 -0.387585
vn 0.270809 0.946653 -0.174676
vn 0.0219722 0.641535 0.766779
vn -0.0113115 0.608483 0.793487
vn 0.0354928 0.707498 0.705823
vn 0.160495 0.922809 0.350234
vn 0.119013 0.834391 0.53817
vn 0.0936837 0.817527 0.56822
vn -0.024962 0.525854 0.850209
vn 0.318617 0.438197 -0.840515
vn 0.403927 0.624825 -0.668159
vn 0.343817 0.327268 -0.880162
vn 0.380079 0.847491 -0.370538
vn 0.291722 0.662386 -0.690031
vn 0.243542 0.963846 -0.108115
vn 0.313241 0.934109 0.171233
vn 0.40656 0.909735 -0.0842127
vn 0.268284 0.0951591 -0.958629
vn 0.0817523 0.736863 0.67108
vn 0.154105 0.863686 0.479894
vn 0.462664 0.854623 -0.235717
vn 0.461551 0.72593 -0.509899
vn 0.175433 -0.0379305 -0.98376
vn -0.0889243 0.401437 0.91156
vn -0.0573388 0.392353 0.918026
vn -0.0652514 0.394614 0.916527
vn -0.0271955 0.46746 0.883596
vn 0.207443 0.974005 0.0910012
vn 0.0331082 0.620227 0.783724
vn -0.035196 0.423497 0.905214
vn 0.297881 0.140769 -0.944167
vn 0.0963379 0.740558 0.665051
# 45 facets
f 3/3/3 12/2/2 1/1/1
f 6/6/6 2/5/5 4/4/4
f 20/9/9 8/8/8 19/7/7
f 17/12/12 16/11/11 10/10/10
f 24/15/15 9/14/14 23/13/13
f 15/16/16 10/10/10 16/11/11
f 1/1/1 7/17/17 3/3/3
f 39/19/19 7/17/17 35/18/18
f 2/5/5 6/6/6 11/20/20
f 18/21/21 7/17/17 1/1/1
f 20/9/9 21/22/22 8/8/8
f 38/24/24 6/6/6 37/23/23
f 2/5/5 9/14/14 4/4/4
f 11/20/20 8/8/8 2/5/5
f 33/25/25 7/17/17 39/19/19
f 26/27/27 4/4/4 25/26/26
f 7/17/17 8/8/8 11/20/20
f 34/28/29 11/20/20 36/24/28
f 3/3/3 5/29/30 12/2/2
f 40/30/31 31/32/33 13/31/32 30/30/31
f 14/33/34 10/10/10 15/16/16
f 19/7/7 8/8/8 18/21/21
f 8/8/8 7/17/17 18/21/21
f 2/5/5 8/8/8 21/22/22
f 23/13/13 2/5/5 22/34/35
f 10/10/10 9/14/14 24/15/15
f 23/13/13 9/14/14 2/5/5
f 21/22/22 22/34/35 2/5/5
f 9/14/14 10/10/10 27/35/36
f 27/35/36 14/33/34 29/36/37
f 29/36/37 13/31/32 31/32/33
f 32/38/38 7/17/17 33/37/25
f 35/18/18 11/20/20 34/28/29
f 11/20/20 6/6/6 38/24/24
f 25/26/26 4/4/4 28/39/39
f 6/6/6 4/4/4 26/27/27
f 26/27/27 37/23/23 6/6/6
f 38/24/24 36/24/28 11/20/20
f 35/18/18 7/17/17 11/20/20
f 32/38/38 3/40/3 7/17/17
f 29/36/37 14/33/34 13/31/32
f 27/35/36 28/39/39 9/14/14
f 27/35/36 10/10/10 14/33/34
f 4/4/4 9/14/14 28/39/39
f 24/15/15 17/12/12 10/10/10
