# 26 vertices
v -82.5141 11.6249 -15.6213
v -92.2266 14.6235 -9.14131
v -91.9138 12.6831 -13.9321
v -76.8294 14.113 -9.52685
v -87.3686 13.69 -12.6115
v -93.8172 6.61561 -18.8287
v -82.2425 15.2555 -4.67741
v -73.3365 12.4225 -12.1038
v -72.795 8.92651 -17.5203
v -74.0282 15.303 -4.75715
v -73.8186 14.893 -7.09686
v -73.4715 13.128 -10.7472
v -96.8886 6.48893 -19.114
v -95.854 13.5575 -10.2573
v -96.1724 12.6738 -12.2552
v -96.5022 10.4699 -15.0506
v -96.6953 7.29964 -17.7465
v -95.5596 14.0201 -8.60942
v -94.71 14.2483 -4.4783
v -92.6172 14.6318 -4.54363
v -93.8777 14.4008 -4.50428
v -78.0734 9.21222 -17.9705
v -77.4315 9.21364 -17.9209
v -86.1409 8.64555 -18.5176
v -86.7339 8.54641 -18.5498
v -87.0865 8.53451 -18.5755
# 26 texture coordinates
vt 0.42449 0.38661
vt 0.46941 0.39314
vt 0.45174 0.40533
vt 0.48049 0.38504
vt 0.45574 0.36890
vt 0.48669 0.36169
vt 0.47674 0.40232
vt 0.47953 0.38993
vt 0.41358 0.37985
vt 0.41356 0.38572
vt 0.42727 0.37013
vt 0.44028 0.37827
vt 0.41262 0.35986
vt 0.41334 0.37262
vt 0.42263 0.34034
vt 0.41286 0.34417
vt 0.41269 0.33851
vt 0.44375 0.35053
vt 0.47069 0.35912
vt 0.44650 0.35155
vt 0.47571 0.40694
vt 0.47257 0.35964
vt 0.42069 0.40025
vt 0.41665 0.39942
vt 0.41398 0.39888
vt 0.44479 0.35081
# 26 vertex normals
vn -0.104226 0.977289 -0.184505
vn 0.0540262 0.939152 -0.339226
vn -0.0188317 0.986546 -0.162393
vn 0.112975 0.86398 -0.490689
vn 0.0605958 0.817902 -0.572157
vn 0.115538 0.815388 -0.567269
vn 0.0225863 0.956718 -0.290138
vn 0.100542 0.891067 -0.442596
vn -0.171045 0.928154 -0.330566
vn -0.191072 0.977585 -0.0884229
vn -0.130381 0.814399 -0.565469
vn -0.0153062 0.844082 -0.535996
vn -0.164281 0.694569 -0.700418
vn -0.193402 0.852018 -0.486478
vn -0.101918 0.709068 -0.697735
vn -0.0593233 0.765007 -0.641284
vn 0.0120372 0.859396 -0.51117
vn -0.0378806 0.725302 -0.687388
vn 0.024852 0.720521 -0.692988
vn -0.059837 0.732299 -0.67835
vn -0.00738253 0.984847 -0.173268
vn 0.0756805 0.767092 -0.637058
vn -0.120644 0.992623 -0.012058
vn -0.180747 0.98338 -0.0171476
vn -0.180746 0.98338 -0.0171475
vn -0.0337103 0.753657 -0.656403
# 29 facets
f 7/3/3 4/2/2 2/1/1
f 9/6/6 1/5/5 8/4/4
f 12/8/8 4/2/2 11/7/7
f 18/10/10 2/1/1 14/9/9
f 2/1/1 5/12/12 3/11/11
f 15/14/14 3/11/11 16/13/13
f 13/17/17 17/16/16 6/15/15
f 3/11/11 26/18/18 6/15/15
f 24/20/20 1/5/5 22/19/19
f 2/1/1 4/2/2 5/12/12
f 5/12/12 4/2/2 1/5/5
f 11/7/7 7/3/3 10/21/21
f 23/22/22 1/5/5 9/6/6
f 1/5/5 4/2/2 12/8/8
f 14/9/9 3/11/11 15/14/14
f 16/13/13 6/15/15 17/16/16
f 11/7/7 4/2/2 7/3/3
f 12/8/8 8/4/4 1/5/5
f 23/22/22 22/19/19 1/5/5
f 21/24/24 20/23/23 2/1/1
f 14/9/9 2/1/1 3/11/11
f 16/13/13 3/11/11 6/15/15
f 7/3/3 2/1/1 20/23/23
f 21/24/24 18/10/10 19/25/25
f 21/24/24 2/1/1 18/10/10
f 5/12/12 1/5/5 24/20/20
f 26/18/18 5/12/12 25/26/26
f 26/18/18 3/11/11 5/12/12
f 24/20/20 25/26/26 5/12/12
