# 28 vertices
v 9.59172 -0.960988 -19.3786
v 8.33304 5.52621 -17.8342
v 8.25015 10.7878 -13.0415
v 12.6647 -5.09783 -18.2401
v 18.71 2.74889 -15.5161
v 7.39726 2.32205 -19.6957
v 16.6523 0.0282939 -17.1739
v 8.55007 12.8047 -9.01343
v 18.7678 -5.78907 -17.506
v 18.6764 7.07877 -13.0156
v 18.7657 7.62865 -11.9123
v 18.8589 9.38329 -9.5269
v 19.0731 10.6296 -6.83799
v 18.7904 -1.46893 -17.6374
v 5.73965 12.5712 -9.01745
v 5.74464 12.0588 -10.5142
v 5.72346 11.1895 -12.2499
v 5.59851 6.23627 -17.5476
v 5.56095 4.75758 -18.8476
v 5.33193 -4.03041 -20.2865
v 5.39726 -1.54413 -20.4551
v 5.49357 2.14345 -20.0838
v 5.50581 2.62162 -19.7607
v 5.68558 9.66876 -14.4024
v 5.15992 -5.03133 -20.1325
v 5.48788 1.92454 -20.1286
v 5.47571 1.45689 -20.2299
v 5.5192 3.13503 -19.6941
# 36 texture coordinates
vt 0.73088 0.39273
vt 0.73612 0.39635
vt 0.73061 0.39350
vt 0.74720 0.39047
vt 0.77120 0.39118
vt 0.76653 0.40533
vt 0.73008 0.39536
vt 0.75136 0.44757
vt 0.72584 0.44255
vt 0.75413 0.44264
vt 0.73479 0.40831
vt 0.76285 0.42467
vt 0.72815 0.42877
vt 0.72003 0.42948
vt 0.72193 0.42166
vt 0.77900 0.39455
vt 0.72961 0.39662
vt 0.71705 0.44299
vt 0.71872 0.43533
vt 0.72585 0.40816
vt 0.72767 0.40211
vt 0.71928 0.36095
vt 0.72498 0.36451
vt 0.71778 0.36500
vt 0.74996 0.45270
vt 0.73152 0.39123
vt 0.75510 0.43628
vt 0.76697 0.42823
vt 0.75474 0.43886
vt 0.92086 0.03722
vt 0.92555 0.03534
vt 0.92570 0.04883
vt 0.92594 0.02477
vt 0.72951 0.37292
vt 0.74579 0.37856
vt 0.73536 0.38288
# 28 vertex normals
vn 0.177217 0.198479 -0.96395
vn 0.205538 0.244601 -0.947589
vn 0.150244 0.380867 -0.912342
vn 0.27168 0.0133091 -0.962296
vn 0.238951 -0.0537547 -0.969543
vn 0.182098 0.194489 -0.963854
vn 0.0874701 0.349978 -0.932665
vn 0.249165 0.826505 -0.504783
vn 0.122406 0.883715 -0.451735
vn 0.278238 0.824809 -0.492213
vn 0.206048 0.542019 -0.814715
vn 0.231669 0.483633 -0.844055
vn 0.170312 0.766915 -0.618736
vn -0.0156931 0.870553 -0.491824
vn 0.0482993 0.724911 -0.687148
vn -0.0511114 0.0383758 -0.997955
vn 0.149687 0.347582 -0.925624
vn -0.0778952 0.943145 -0.323126
vn -0.0381434 0.921438 -0.386649
vn 0.0945555 0.663645 -0.742047
vn 0.144175 0.557775 -0.817374
vn 0.238602 -0.187548 -0.952835
vn 0.248901 -0.130065 -0.959756
vn 0.26643 0.866211 -0.422722
vn 0.20821 0.135634 -0.968634
vn 0.249 0.695236 -0.674274
vn -0.0571642 0.219803 -0.973868
vn 0.249272 -0.00328106 -0.968428
# 31 facets
f 22/3/3 6/2/2 26/1/1
f 7/6/6 4/5/5 1/4/4
f 23/7/7 6/2/2 22/3/3
f 11/10/10 8/9/9 12/8/8
f 3/13/13 5/12/12 2/11/11
f 24/15/15 17/14/14 3/13/13
f 7/6/6 9/16/16 4/5/5
f 7/6/6 1/4/4 6/2/2
f 7/6/6 6/2/2 2/11/11
f 23/7/7 28/17/17 6/2/2
f 16/19/19 15/18/18 8/9/9
f 19/21/21 18/20/20 2/11/11
f 2/11/11 5/12/12 7/6/6
f 20/24/23 4/23/5 25/22/22
f 13/25/24 12/8/8 8/9/9
f 26/1/1 6/2/2 27/26/25
f 5/28/12 3/13/13 10/27/26
f 3/13/13 8/9/9 11/10/10
f 11/10/10 10/29/26 3/13/13
f 9/32/16 7/31/6 14/30/27
f 14/30/27 7/31/6 5/33/12
f 8/9/9 3/13/13 17/14/14
f 21/36/28 4/35/5 20/34/23
f 24/15/15 3/13/13 2/11/11
f 6/2/2 1/4/4 21/36/28
f 2/11/11 6/2/2 28/17/17
f 21/36/28 1/4/4 4/35/5
f 21/36/28 27/26/25 6/2/2
f 28/17/17 19/21/21 2/11/11
f 2/11/11 18/20/20 24/15/15
f 17/14/14 16/19/19 8/9/9
