#  ==========================================================================
#  
#  Wavefront OBJ format exported by Red-i Productions' "Riptide Pro"
#     (a commercial plugin for Cinema 4D PC & Mac, R9.6 or later)
#  
#  Red-i Productions
#  http://skinprops.com
#  
#  ==========================================================================
mtllib HAND_new_123.mtl
v -92.5708 -34.7202 1.65623
v -95.6297 -32.8541 10.4397
v -101.27 -32.3357 14.5759
v -107.917 -39.9716 2.02844
v -101.888 -34.7157 9.31067
v -94.9915 -34.7452 -2.94868
v -88.508 -34.8384 -3.58228
v -87.36 -33.9593 2.98503
v -87.9533 -34.7999 -0.283671
v -86.0349 -32.6935 9.9409
v -85.5604 -31.5833 11.5911
v -108.389 -35.2045 14.8761
v -112.336 -40.3292 6.73285
v -109.25 -36.2802 13.1029
v -111.748 -39.6445 7.93862
v -107.635 -34.578 16.4033
v -90.8151 -31.5756 11.9143
v -94.2583 -31.3948 12.6654
v -113.328 -41.0601 4.72838
v -90.8071 -34.495 -3.40619
v -91.2411 -34.449 -3.37001
# 21 vertices

vt 0.33925 0.74076
vt 0.36438 0.74850
vt 0.34430 0.76171
vt 0.31378 0.78354
vt 0.33276 0.79728
vt 0.38654 0.77624
vt 0.38413 0.79551
vt 0.31513 0.76091
vt 0.39803 0.79117
vt 0.40052 0.77281
vt 0.40535 0.78343
vt 0.39821 0.74070
vt 0.39627 0.75830
vt 0.39597 0.73346
vt 0.39942 0.79062
vt 0.31275 0.79630
vt 0.31321 0.78871
vt 0.31556 0.75266
vt 0.36522 0.73548
vt 0.37839 0.73542
vt 0.31571 0.74635
# 21 texture coordinates

vn 0.294537 -0.893253 0.339627
vn 0.115963 -0.908993 0.400355
vn 0.300721 -0.908181 0.29116
vn 0.38596 -0.86294 0.326143
vn 0.380349 -0.886132 0.264774
vn 0.0242726 -0.997262 0.0698453
vn 0.179361 -0.98082 0.0762957
vn 0.367899 -0.85707 0.360667
vn -0.0186369 -0.998096 -0.0587987
vn 0.0353616 -0.991543 0.124865
vn -0.0832618 -0.995637 -0.0421127
vn 0.03475 -0.928623 0.369393
vn 0.0630418 -0.974701 0.21444
vn 0.0387441 -0.82187 0.568356
vn -0.13319 -0.986967 -0.0903103
vn 0.287776 -0.936779 0.199074
vn 0.341104 -0.905751 0.251522
vn 0.367739 -0.881674 0.295666
vn 0.151631 -0.866849 0.474953
vn 0.0515529 -0.831712 0.552808
vn 0.373891 -0.908199 0.188094
# 21 vertex normals

usemtl Mat
f 5/3/3 2/2/2 3/1/1
f 4/5/5 5/3/3 15/4/4
f 1/6/6 2/2/2 5/3/3
f 5/3/3 6/7/7 1/6/6
f 14/8/8 15/4/4 5/3/3
f 21/9/9 1/6/6 6/7/7
f 7/11/11 9/10/10 1/6/6
f 8/13/13 10/12/12 2/2/2
f 11/14/14 2/2/2 10/12/12
f 5/3/3 4/5/5 6/7/7
f 20/15/15 1/6/6 21/9/9
f 8/13/13 1/6/6 9/10/10
f 13/17/17 19/16/16 4/5/5
f 5/3/3 3/1/1 12/18/18
f 20/15/15 7/11/11 1/6/6
f 8/13/13 2/2/2 1/6/6
f 17/20/20 18/19/19 2/2/2
f 12/18/18 14/8/8 5/3/3
f 15/4/4 13/17/17 4/5/5
f 16/21/21 12/18/18 3/1/1
f 17/20/20 2/2/2 11/14/14
f 3/1/1 2/2/2 18/19/19
# 22 facets

