# 23 vertices
v -7.3079 10.6505 -9.63364
v 2.65783 12.9376 -7.38317
v -3.61948 11.958 -1.71309
v 5.73965 12.5712 -9.01745
v 5.76658 13.2102 -1.59369
v 5.76704 13.2137 -1.99028
v 5.76659 13.2065 -1.71184
v -11.7844 12.0221 -2.62861
v -11.8634 12.5632 -0.650713
v -11.8219 12.3458 -1.79669
v -11.8771 12.5875 -0.198306
v 5.75684 12.9036 0.251675
v -11.418 9.63355 -11.9929
v 4.49117 12.4157 -9.24275
v 3.16935 12.2318 -9.47838
v -0.700888 11.377 -10.1205
v -7.2685 10.0211 -11.2245
v -8.60441 9.51016 -11.4136
v 3.42548 12.9521 0.123952
v 3.31587 12.9373 0.119461
v -3.45904 12.0276 -0.15812
v -10.0047 12.4448 -0.541773
v 3.33977 12.94 0.101602
# 26 texture coordinates
vt 0.71305 0.46226
vt 0.70726 0.44348
vt 0.71705 0.44299
vt 0.67836 0.42838
vt 0.68347 0.45660
vt 0.69932 0.43146
vt 0.71035 0.43683
vt 0.67598 0.42052
vt 0.65814 0.44748
vt 0.66744 0.41700
vt 0.70418 0.46754
vt 0.71276 0.46350
vt 0.71180 0.46932
vt 0.71284 0.46312
vt 0.65726 0.45036
vt 0.65616 0.45403
vt 0.66206 0.45575
vt 0.71407 0.43864
vt 0.68284 0.46184
vt 0.67993 0.42284
vt 0.70393 0.46741
vt 0.65578 0.45550
vt 0.70384 0.46745
vt 0.00000 0.00000
vt 1.00000 0.00000
vt 1.00000 1.00000
# 23 vertex normals
vn -0.0650037 0.997792 -0.0136039
vn -0.102236 0.966047 -0.23728
vn 0.00531963 0.977856 -0.209212
vn -0.138974 0.956261 -0.257393
vn -0.0699447 0.99651 -0.0455607
vn -0.137602 0.923632 -0.357728
vn -0.109091 0.933655 -0.341155
vn -0.100339 0.946425 -0.30694
vn -0.196596 0.921595 -0.334684
vn 0.0923206 0.965696 -0.242711
vn -0.0845718 0.995824 0.0343768
vn -0.084573 0.995824 0.0343789
vn 0.0115138 0.986405 0.163927
vn -0.131845 0.991197 -0.0120697
vn -0.12263 0.953071 -0.276798
vn 0.0575383 0.991314 -0.118259
vn 0.0665261 0.996458 -0.0514462
vn -0.0652364 0.942159 -0.328756
vn -0.0327953 0.998609 -0.0412972
vn -0.209302 0.907486 -0.364227
vn -0.131789 0.990801 -0.0307341
vn 0.066526 0.996458 -0.0514451
vn -0.131788 0.990801 -0.0307399
# 26 facets
f 4/3/3 2/2/2 6/1/1
f 3/5/5 2/2/2 1/4/4
f 15/7/7 16/6/6 2/2/2
f 13/10/10 8/9/9 18/8/8
f 12/13/13 5/12/12 19/11/11
f 6/1/1 3/5/5 7/14/14
f 9/16/16 1/4/4 10/15/15
f 22/17/17 3/5/5 9/16/16
f 14/18/18 15/7/7 2/2/2
f 6/1/1 2/2/2 3/5/5
f 22/17/17 21/19/19 3/5/5
f 9/16/16 3/5/5 1/4/4
f 8/9/9 10/15/15 1/4/4
f 14/18/18 2/2/2 4/3/3
f 17/20/20 2/2/2 16/6/6
f 8/9/9 1/4/4 17/20/20
f 17/20/20 1/4/4 2/2/2
f 17/20/20 18/8/8 8/9/9
f 23/21/21 7/14/14 3/5/5
f 9/16/16 11/22/22 22/17/17
f 21/19/19 20/23/23 23/21/21
f 21/19/19 22/17/17 11/22/22
f 23/21/21 3/5/5 21/19/19
f 20/26/23 19/25/11 23/24/21
f 19/26/11 5/25/12 23/24/21
f 7/26/14 23/25/21 5/24/12
