#  ==========================================================================
#  
#  Wavefront OBJ format exported by Red-i Productions' "Riptide Pro"
#     (a commercial plugin for Cinema 4D PC & Mac, R9.6 or later)
#  
#  Red-i Productions
#  http://skinprops.com
#  
#  ==========================================================================
mtllib HAND_new_16.mtl
v 56.163 -10.5666 -9.03354
v 60.2997 -10.1961 -1.89881
v 63.1977 -9.89867 -4.04243
v 66.4988 -11.2358 -6.72056
v 67.7604 -11.475 -2.77083
v 64.0618 -10.7979 -11.9797
v 58.1845 -9.89894 -0.315083
v 65.0483 -10.4508 -1.93083
v 63.7504 -10.192 -1.52061
v 60.81 -10.3152 -0.547221
v 59.674 -10.0982 -0.114413
v 58.2984 -9.89839 0.417066
v 60.8154 -10.3191 -10.8726
v 59.5241 -9.899 -10.4759
v 58.6606 -9.96759 -10.2156
v 56.4956 -10.4582 -9.64117
v 55.9575 -10.5861 -9.51741
# 17 vertices

vt 0.79964 0.11936
vt 0.78246 0.13881
vt 0.78711 0.11790
vt 0.79318 0.15454
vt 0.79777 0.14490
vt 0.79856 0.15437
vt 0.81823 0.12168
vt 0.81649 0.11985
vt 0.81851 0.11989
vt 0.81900 0.15307
vt 0.81089 0.15081
vt 0.80979 0.15498
vt 0.81414 0.15510
vt 0.78211 0.15445
vt 0.81939 0.15560
vt 0.80828 0.11965
vt 0.80495 0.11951
# 17 texture coordinates

vn -0.226893 -0.969115 0.0966166
vn -0.274244 -0.959759 0.0604443
vn -0.150144 -0.988582 -0.0127404
vn -0.298648 -0.954285 0.0122159
vn -0.168863 -0.985405 0.0215162
vn -0.0636451 -0.993647 -0.0928127
vn 0.117544 -0.993028 -0.00892412
vn 0.207525 -0.976267 -0.0619346
vn 0.219198 -0.974196 -0.0537901
vn -0.113268 -0.992734 0.0406084
vn 0.0192006 -0.999095 -0.0379413
vn -0.0912271 -0.994409 -0.0531798
vn -0.153965 -0.988063 0.00519357
vn -0.338867 -0.939432 0.0513485
vn -0.135464 -0.990542 0.0218207
vn 0.1356 -0.989296 -0.053901
vn -0.0423229 -0.99883 0.0234039
# 17 vertex normals

usemtl Default
f 6/3/3 4/2/2 13/1/1
f 9/6/6 3/5/5 8/4/4
f 17/9/9 16/8/8 1/7/7
f 2/11/11 7/10/10 1/7/7
f 11/13/13 2/11/11 10/12/12
f 8/4/4 4/2/2 5/14/14
f 2/11/11 3/5/5 9/6/6
f 7/10/10 2/11/11 11/13/13
f 11/13/13 12/15/15 7/10/10
f 9/6/6 10/12/12 2/11/11
f 8/4/4 3/5/5 4/2/2
f 13/1/1 4/2/2 3/5/5
f 14/17/17 2/11/11 15/16/16
f 2/11/11 1/7/7 16/8/8
f 16/8/8 15/16/16 2/11/11
f 14/17/17 3/5/5 2/11/11
f 3/5/5 14/17/17 13/1/1
# 17 facets

