# 27 vertices
v 56.5672 -5.24355 26.3746
v 53.3651 -10.5429 21.598
v 59.824 -10.8781 15.1906
v 58.9682 -8.41019 23.808
v 50.5068 -7.10935 32.7357
v 52.6221 -8.47778 27.7489
v 51.6637 -7.1031 30.4212
v 49.4927 -13.1677 10.0846
v 55.9819 -11.2198 14.2921
v 52.6221 -8.47778 27.7489
v 59.8179 -10.9596 16.9744
v 59.7041 -10.6572 19.9602
v 54.0973 -10.7323 19.5537
v 59.3559 -10.3376 9.91443
v 50.4881 -8.48473 30.7331
v 50.8618 -9.61798 29.1136
v 50.8618 -9.61798 29.1136
v 50.7256 -9.97307 27.0446
v 50.4485 -11.2378 22.7891
v 50.4485 -11.2378 22.7891
v 50.4086 -12.5872 19.3111
v 50.4328 -13.2921 16.6215
v 50.1784 -13.4676 14.4505
v 58.5614 -10.2108 10.056
v 52.5356 -12.4934 11.5885
v 49.8463 -13.3224 12.336
v 52.0184 -12.4096 11.7222
# 29 texture coordinates
vt 0.87661 0.25251
vt 0.87177 0.24810
vt 0.87701 0.24703
vt 0.78843 0.71104
vt 0.77966 0.71130
vt 0.78269 0.70072
vt 0.83100 0.20657
vt 0.84303 0.19924
vt 0.83360 0.21206
vt 0.85286 0.18656
vt 0.82921 0.18803
vt 0.86199 0.17820
vt 0.85461 0.18639
vt 0.86474 0.20010
vt 0.86348 0.19336
vt 0.78624 0.68947
vt 0.87325 0.24109
vt 0.86418 0.23900
vt 0.87098 0.23408
vt 0.86276 0.18602
vt 0.85678 0.23879
vt 0.85069 0.23723
vt 0.85913 0.22065
vt 0.86878 0.22021
vt 0.82630 0.18852
vt 0.85463 0.21466
vt 0.83751 0.22230
vt 0.84290 0.23463
vt 0.86736 0.20917
# 26 vertex normals
vn 0.746762 -0.55147 0.371791
vn 0.70442 -0.525023 0.477644
vn 0.730408 -0.522069 0.440395
vn 0.589981 -0.429011 0.684012
vn 0.305484 -0.737199 0.602675
vn 0.517842 -0.666381 0.536448
vn 0.0534732 -0.998005 0.0335626
vn 0.186767 -0.96824 0.16622
vn 0.0482037 -0.998447 0.0279137
vn 0.112659 -0.97167 0.207763
vn 0.149034 -0.975238 -0.163402
vn 0.223785 -0.973404 0.0490437
vn 0.215361 -0.969534 0.116722
vn 0.395518 -0.908659 0.133808
vn 0.358683 -0.930913 -0.0688987
vn 0.593458 -0.798874 0.0980203
vn 0.577005 -0.802746 0.150548
vn 0.355749 -0.926906 -0.119533
vn 0.248062 -0.916159 0.314829
vn 0.558795 -0.804173 0.202618
vn -0.171887 -0.981418 -0.0852915
vn 0.221387 -0.960556 0.168284
vn 0.032788 -0.97801 0.205964
vn 0.709791 -0.48962 0.506427
vn 0.34591 -0.876072 0.335923
vn 0.405555 -0.876541 0.259233
# 28 facets
f 15/3/3 7/2/2 5/1/1
f 6/6/6 4/5/5 1/4/4
f 11/9/9 9/8/8 3/7/7
f 24/11/11 3/7/7 25/10/10
f 27/13/13 8/12/12 25/10/10
f 23/15/15 9/8/8 22/14/14
f 7/16/2 6/6/6 1/4/4
f 18/19/17 10/18/17 16/17/16
f 27/13/13 26/20/18 8/12/12
f 2/23/19 4/22/5 6/21/6
f 18/19/17 20/24/20 10/18/17
f 14/25/21 3/7/7 24/11/11
f 12/27/23 2/23/19 13/26/22
f 9/8/8 11/9/9 12/27/23
f 13/26/22 9/8/8 12/27/23
f 4/28/5 2/23/19 12/27/23
f 17/17/24 7/2/2 15/3/3
f 2/23/19 6/18/6 19/24/25
f 22/14/14 9/8/8 21/29/26
f 9/8/8 13/26/22 21/29/26
f 19/24/25 21/29/26 2/23/19
f 17/17/24 6/18/6 7/2/2
f 25/10/10 9/8/8 27/13/13
f 27/13/13 23/15/15 26/20/18
f 27/13/13 9/8/8 23/15/15
f 25/10/10 3/7/7 9/8/8
f 24/11/11 25/10/10 8/12/12
f 13/26/22 2/23/19 21/29/26
