#  ==========================================================================
#  
#  Wavefront OBJ format exported by Red-i Productions' "Riptide Pro"
#     (a commercial plugin for Cinema 4D PC & Mac, R9.6 or later)
#  
#  Red-i Productions
#  http://skinprops.com
#  
#  ==========================================================================
mtllib HAND_new_98.mtl
v -32.8886 -5.92281 -27.3056
v -39.76 -6.21044 -28.8648
v -39.9957 -25.0536 -16.162
v -39.0573 -20.6583 -18.8385
v -35.9871 -8.72163 -26.4919
v -38.1261 -14.3678 -21.2765
v -27.601 -5.88326 -26.4147
v -27.5015 -7.58846 -25.8096
v -27.4876 -16.2811 -18.776
v -27.4127 -20.8472 -15.7862
v -27.5307 -24.5423 -11.5033
v -27.5276 -12.8143 -21.2212
v -27.5488 -14.2688 -19.7988
v -27.4989 -15.5353 -19.2739
v -27.4855 -8.55976 -25.1742
v -46.3809 -26.7097 -15.6701
v -46.0277 -6.59937 -31.2996
v -45.9371 -9.09229 -30.6497
v -46.372 -14.6343 -23.108
v -45.9545 -10.3088 -29.7421
v -46.2268 -22.2841 -19.8411
v -46.3746 -15.1953 -22.7418
v -46.3029 -25.8734 -16.9265
v -45.937 -9.09504 -30.6488
v -46.3812 -14.8533 -22.887
v -46.2397 -24.3252 -18.4747
v -39.949 -26.4427 -14.4129
v -29.8202 -24.8926 -12.0397
# 28 vertices

vt 0.61370 0.83151
vt 0.58787 0.85591
vt 0.58452 0.85055
vt 0.61443 0.78245
vt 0.55898 0.77620
vt 0.60273 0.76445
vt 0.59096 0.74932
vt 0.62892 0.84192
vt 0.61872 0.85032
vt 0.55084 0.79740
vt 0.57272 0.79068
vt 0.56834 0.82402
vt 0.59849 0.86171
vt 0.58594 0.86813
vt 0.53924 0.77926
vt 0.54234 0.78389
vt 0.56989 0.82618
vt 0.54550 0.78993
vt 0.63608 0.81388
vt 0.62381 0.79620
vt 0.63499 0.82108
vt 0.65569 0.81618
vt 0.65266 0.81991
vt 0.58441 0.75318
vt 0.61955 0.78979
vt 0.61631 0.78527
vt 0.56924 0.82522
vt 0.59184 0.81080
vt 0.60241 0.85512
vt 0.55546 0.77026
# 30 texture coordinates

vn 0.198252 -0.588361 -0.783918
vn 0.362433 -0.420841 -0.831586
vn 0.319969 -0.698378 -0.640225
vn 0.207013 -0.538543 -0.816773
vn 0.218834 -0.677805 -0.70192
vn 0.235945 -0.640529 -0.730789
vn 0.260582 -0.743728 -0.615601
vn 0.183293 -0.4561 -0.870848
vn 0.322102 -0.325825 -0.888869
vn 0.228125 -0.485516 -0.843939
vn 0.191478 -0.439606 -0.877543
vn 0.204245 -0.373084 -0.905037
vn 0.364982 -0.22241 -0.904059
vn 0.372094 -0.242705 -0.895902
vn 0.162773 -0.799336 -0.578417
vn 0.174562 -0.766101 -0.618561
vn 0.23696 -0.76148 -0.603322
vn 0.206376 -0.623974 -0.753701
vn 0.132652 -0.610491 -0.780836
vn 0.115596 -0.68609 -0.718274
vn 0.129865 -0.436388 -0.890337
vn 0.136325 -0.377852 -0.915775
vn 0.25709 -0.753421 -0.605195
vn 0.120957 -0.545683 -0.829216
vn 0.171295 -0.460493 -0.870979
vn 0.190822 -0.551868 -0.811806
vn 0.155981 -0.549133 -0.82105
vn 0.205179 -0.76376 -0.612023
# 28 vertex normals

usemtl Default
f 20/3/3 24/2/2 5/1/1
f 10/6/6 3/5/5 9/4/4
f 11/7/7 3/5/5 10/6/6
f 2/9/9 1/8/8 5/1/1
f 22/12/12 4/11/11 21/10/10
f 18/2/14 17/14/13 2/13/9
f 23/16/16 3/5/5 16/15/15
f 20/3/3 5/1/1 19/17/17
f 26/18/18 3/5/5 23/16/16
f 12/20/20 5/1/1 15/19/19
f 15/19/19 5/1/1 8/21/21
f 5/1/1 1/23/8 7/22/22
f 28/24/23 3/5/5 11/7/7
f 13/25/24 5/1/1 12/20/20
f 14/26/25 4/11/11 13/25/24
f 9/4/4 4/11/11 14/26/25
f 5/1/1 6/28/27 25/27/26
f 18/2/14 2/29/9 5/1/1 24/2/2
f 25/27/26 4/11/11 22/12/12
f 21/10/10 3/5/5 26/18/18
f 7/22/22 8/21/21 5/1/1
f 13/25/24 6/28/27 5/1/1
f 4/11/11 6/28/27 13/25/24
f 9/4/4 3/5/5 4/11/11
f 28/24/23 27/30/28 3/5/5
f 25/27/26 19/17/17 5/1/1
f 25/27/26 6/28/27 4/11/11
f 21/10/10 4/11/11 3/5/5
f 16/15/15 3/5/5 27/30/28
# 29 facets

