#  ==========================================================================
#  
#  Wavefront OBJ format exported by Red-i Productions' "Riptide Pro"
#     (a commercial plugin for Cinema 4D PC & Mac, R9.6 or later)
#  
#  Red-i Productions
#  http://skinprops.com
#  
#  ==========================================================================
mtllib HAND_new_20.mtl
v 44.1641 8.68419 -1.02972
v 49.56 7.74359 -1.03287
v 49.4243 8.04907 -1.86124
v 49.0015 8.09188 -4.3712
v 48.991 8.08841 -4.4206
v 48.9822 8.09087 -4.48208
v 48.8481 8.0103 -5.08187
v 48.2499 7.45126 -9.06758
v 39.7195 8.80968 -5.8333
v 40.6677 9.00854 -0.635906
v 48.5927 8.12904 -4.30494
v 39.3389 8.52114 -7.70742
v 42.6885 8.1252 -8.33263
v 47.2561 7.57366 -8.93632
v 47.2182 7.57866 -8.93133
v 40.4429 8.96039 -1.93823
v 40.4429 8.96039 -1.93823
v 49.1104 8.08403 -4.44725
# 18 vertices

vt 0.90348 0.75881
vt 0.91081 0.74134
vt 0.91119 0.76123
vt 0.90009 0.75810
vt 0.91349 0.76213
vt 0.92752 0.76442
vt 0.92649 0.76740
vt 0.91135 0.76130
vt 0.91637 0.73105
vt 0.92055 0.73307
vt 0.91178 0.75998
vt 0.93369 0.75102
vt 0.93154 0.73870
vt 0.93795 0.74078
vt 0.92759 0.76427
vt 0.91155 0.76137
vt 0.00000 0.00000
vt 1.00000 0.00000
vt 1.00000 1.00000
# 19 texture coordinates

vn 0.143142 0.976771 0.159463
vn 0.105144 0.994121 0.0258446
vn 0.0679266 0.996243 -0.053726
vn 0.163007 0.934056 0.317754
vn 0.103291 0.982549 -0.154686
vn 0.104976 0.982377 -0.154644
vn 0.100861 0.983062 -0.153022
vn 0.0354391 0.997144 -0.0666897
vn 0.0864703 0.994911 -0.0517169
vn 0.0864704 0.994911 -0.0517167
vn 0.0796522 0.994578 -0.0668535
vn 0.0915962 0.982802 -0.160345
vn 0.0900709 0.989571 -0.112414
vn 0.0846527 0.982078 -0.168395
vn 0.103809 0.98256 -0.154271
vn 0.08008 0.989324 -0.121762
vn 0.0856825 0.994836 -0.0544033
vn 0.0529419 0.996492 -0.064808
# 18 vertex normals

usemtl Default
f 4/3/3 1/2/2 3/1/1
f 3/1/1 1/2/2 2/4/4
f 8/7/7 14/6/6 7/5/5
f 5/8/8 1/2/2 4/3/3
f 11/11/11 17/10/10 10/9/9
f 12/14/14 9/13/13 13/12/12
f 1/2/2 5/8/8 11/11/11
f 9/13/13 6/16/16 15/15/15
f 15/15/15 13/12/12 9/13/13
f 7/19/5 14/18/6 15/17/15
f 7/19/5 15/18/15 6/17/16
f 9/19/13 16/18/17 11/17/11
f 6/19/16 5/18/8 11/17/11
f 11/19/11 6/18/16 9/17/13
f 7/19/5 6/18/16 18/17/18
f 5/19/8 18/18/18 6/17/16
f 4/19/3 18/18/18 5/17/8
f 11/11/11 10/9/9 1/2/2
# 18 facets

