#  ==========================================================================
#  
#  Wavefront OBJ format exported by Red-i Productions' "Riptide Pro"
#     (a commercial plugin for Cinema 4D PC & Mac, R9.6 or later)
#  
#  Red-i Productions
#  http://skinprops.com
#  
#  ==========================================================================
mtllib HAND_new_113.mtl
v -84.9635 -18.7621 20.1226
v -84.8074 -28.5999 15.7733
v -73.2953 -21.4805 18.4739
v -81.5309 -25.0389 17.4106
v -80.599 -19.2727 18.6305
v -75.1258 -30.4508 12.6665
v -69.1755 -29.4296 13.0468
v -70.1638 -22.9042 18.4482
v -69.9348 -24.7121 18.1825
v -70.4715 -20.5314 18.9932
v -70.6636 -18.9032 18.8445
v -70.3689 -21.3488 18.8984
v -69.4459 -27.9518 15.5486
v -69.6676 -26.51 16.8334
v -69.847 -25.3582 17.9229
v -70.8889 -16.9538 18.5353
v -85.4838 -18.5329 20.5158
v -85.45 -19.0606 20.3777
v -85.4578 -19.7474 19.9541
v -85.5604 -31.5833 11.5911
v -85.4554 -18.8819 20.4528
v -85.2987 -23.0711 18.8307
v -85.4593 -18.7787 20.4926
v -85.3334 -30.0752 14.7207
v -85.2796 -28.6731 15.7645
v -85.1576 -25.3119 18.233
v -85.2478 -28.2233 16.1675
v -85.737 -16.147 20.6672
v -85.4428 -16.1458 20.4425
v -83.0102 -16.0515 19.634
v -83.1649 -16.0575 19.6854
v -74.0661 -14.6462 18.6325
v -80.343 -15.711 18.9246
v -71.2318 -14.1462 18.6009
# 34 vertices

vt 0.42617 0.71907
vt 0.44497 0.70635
vt 0.44738 0.71567
vt 0.43622 0.67125
vt 0.42763 0.67554
vt 0.43575 0.66711
vt 0.44319 0.69909
vt 0.38250 0.66358
vt 0.38458 0.66389
vt 0.38253 0.66399
vt 0.39341 0.72139
vt 0.39597 0.73346
vt 0.43506 0.65847
vt 0.38235 0.66262
vt 0.38258 0.66497
vt 0.38332 0.66859
vt 0.39204 0.71055
vt 0.39431 0.71256
vt 0.39267 0.71318
vt 0.43685 0.67480
vt 0.40227 0.69363
vt 0.40308 0.65919
vt 0.43854 0.68173
vt 0.44012 0.69021
vt 0.44092 0.69354
vt 0.44895 0.55285
vt 0.44500 0.55410
vt 0.43820 0.54910
vt 0.42811 0.66146
vt 0.39432 0.65159
vt 0.39365 0.65184
vt 0.38829 0.69506
vt 0.38665 0.68164
vt 0.40750 0.64998
vt 0.40600 0.64850
vt 0.38382 0.65553
vt 0.38323 0.66214
vt 0.38303 0.65491
vt 0.42305 0.65068
vt 0.41549 0.64936
# 40 texture coordinates

vn 0.0485642 -0.747656 0.662309
vn 0.0168987 -0.771671 0.635797
vn 0.113033 -0.850103 0.514343
vn -0.170046 -0.0329748 0.984884
vn -0.116431 -0.0881701 0.989277
vn -0.228637 0.0941175 0.968951
vn -0.0659721 -0.680382 0.729883
vn 0.594888 -0.146032 0.790432
vn 0.499492 -0.180832 0.847235
vn 0.581179 -0.287114 0.761444
vn 0.0983523 -0.770632 0.629646
vn 0.0534414 -0.901094 0.430318
vn -0.0759133 0.0268305 0.996753
vn 0.604102 0.00400619 0.796897
vn 0.597307 -0.361711 0.715814
vn 0.396893 -0.34453 0.85075
vn 0.178785 -0.603865 0.776778
vn 0.0862353 -0.622696 0.777698
vn 0.107555 -0.654447 0.748419
vn -0.13097 -0.211726 0.968514
vn 0.052884 -0.33815 0.939605
vn 0.168049 -0.137955 0.976078
vn -0.0826289 -0.199377 0.976433
vn -0.0564957 -0.267307 0.961954
vn -0.0220255 -0.562425 0.826555
vn 0.037974 -0.0540355 0.997817
vn 0.165144 -0.0929346 0.981881
vn 0.292352 -0.0780869 0.953118
vn 0.316881 -0.0577282 0.946707
vn 0.232096 -0.352864 0.906432
vn 0.255025 -0.26656 0.929467
vn 0.516673 -0.0100483 0.856124
vn 0.606831 0.0139814 0.794708
vn 0.014937 -0.0215068 0.999657
# 34 vertex normals

usemtl Mat
f 7/3/3 13/2/2 6/1/1
f 11/6/6 3/5/5 10/4/4
f 14/7/7 6/1/1 13/2/2
f 21/10/10 1/9/9 23/8/8
f 20/12/12 6/1/1 24/11/11
f 11/6/6 16/13/13 3/5/5
f 17/14/14 23/8/8 1/9/9
f 18/15/15 1/9/9 21/10/10
f 19/16/16 1/9/9 18/15/15
f 25/19/19 2/18/18 27/17/17
f 12/20/20 10/4/4 3/5/5
f 3/5/5 5/22/22 4/21/21
f 12/20/20 3/5/5 8/23/23
f 8/23/23 4/21/21 9/24/24
f 4/21/21 2/18/18 15/25/25
f 15/25/25 6/1/1 14/7/7
f 33/28/27 5/27/22 32/26/26
f 5/22/22 3/5/5 16/29/13
f 31/31/29 5/22/22 30/30/28
f 5/22/22 1/9/9 19/16/16
f 6/1/1 2/18/18 25/19/19
f 27/17/17 4/21/21 26/32/30
f 26/32/30 5/22/22 22/33/31
f 15/25/25 2/18/18 6/1/1
f 15/25/25 9/24/24 4/21/21
f 8/23/23 3/5/5 4/21/21
f 25/19/19 24/11/11 6/1/1
f 27/17/17 2/18/18 4/21/21
f 26/32/30 4/21/21 5/22/22
f 19/16/16 22/33/31 5/22/22
f 30/35/28 5/22/22 33/34/27
f 17/37/14 1/9/9 29/36/32
f 29/36/32 28/38/33 17/37/14
f 1/9/9 5/22/22 31/31/29
f 31/31/29 29/36/32 1/9/9
f 5/22/22 16/29/13 34/39/34
f 34/39/34 32/40/26 5/22/22
# 37 facets

