#  ==========================================================================
#  
#  Wavefront OBJ format exported by Red-i Productions' "Riptide Pro"
#     (a commercial plugin for Cinema 4D PC & Mac, R9.6 or later)
#  
#  Red-i Productions
#  http://skinprops.com
#  
#  ==========================================================================
mtllib HAND_new_93.mtl
v -23.1077 2.89198 14.4061
v -25.6602 -6.91795 18.754
v -29.8924 -3.75977 18.9686
v -12.637 -3.28979 15.7879
v -25.9203 10.8738 9.12558
v -11.871 4.82796 11.89
v -11.6541 -2.17534 15.2098
v -11.9939 8.78118 10.0312
v -11.9857 8.49114 10.1971
v -11.557 -4.82429 15.9248
v -11.4979 -6.35746 16.2356
v -11.9937 8.83747 9.9352
v -11.6238 -3.22419 15.7829
v -32.3399 5.07368 14.2224
v -32.301 2.27523 16.1274
v -31.857 -7.39618 19.4816
v -32.417 11.5608 9.88246
v -32.3473 6.3619 13.2356
v -31.9778 -5.83726 19.455
v -32.1051 -4.02552 19.2869
v -32.1406 -3.32528 19.0785
v -12.012 10.0622 8.65111
# 22 vertices

vt 0.64263 0.54397
vt 0.58554 0.54164
vt 0.61001 0.51610
vt 0.57881 0.53895
vt 0.57851 0.54211
vt 0.60351 0.47299
vt 0.64947 0.48904
vt 0.64850 0.49575
vt 0.59693 0.55299
vt 0.57863 0.55591
vt 0.57870 0.54928
vt 0.58254 0.49776
vt 0.58227 0.50345
vt 0.58124 0.51523
vt 0.64586 0.55023
vt 0.64609 0.54414
vt 0.64625 0.53987
vt 0.64762 0.51194
vt 0.64570 0.55623
vt 0.64849 0.49613
vt 0.58457 0.47949
vt 0.64836 0.49734
# 22 texture coordinates

vn 0.10122 0.309141 0.945614
vn 0.13934 0.299155 0.943976
vn 0.115721 0.494774 0.861282
vn 0.123091 0.407919 0.904683
vn 0.119863 0.165671 0.97887
vn 0.0993316 0.867697 0.487069
vn 0.0656406 0.722539 0.688207
vn 0.0814922 0.795864 0.599966
vn 0.141995 0.120595 0.982494
vn 0.114607 0.0258237 0.993075
vn 0.120729 0.0631657 0.990674
vn 0.112126 0.572542 0.812172
vn 0.121558 0.582075 0.803998
vn 0.124549 0.513317 0.849113
vn 0.0822979 0.145923 0.985867
vn -0.0140955 0.289643 0.957031
vn 0.00871619 0.454357 0.890777
vn 0.100778 0.422906 0.900552
vn 0.164173 0.201884 0.965552
vn 0.0972226 0.75158 0.652438
vn 0.103452 0.719364 0.686887
vn 0.103139 0.458614 0.88263
# 22 vertex normals

usemtl Mat
f 1/3/3 3/2/2 4/1/1
f 20/5/5 3/2/2 21/4/4
f 12/8/8 22/7/7 5/6/6
f 4/1/1 3/2/2 2/9/9
f 19/11/11 16/10/10 2/9/9
f 14/13/13 1/3/3 18/12/12
f 15/14/14 1/3/3 14/13/13
f 13/16/16 4/1/1 10/15/15
f 7/17/17 4/1/1 13/16/16
f 7/17/17 6/18/18 4/1/1
f 4/1/1 2/9/9 11/19/19
f 1/3/3 4/1/1 6/18/18
f 17/21/21 8/20/20 5/6/6
f 1/3/3 9/22/22 8/20/20
f 18/12/12 1/3/3 17/21/21
f 2/9/9 3/2/2 20/5/5
f 21/4/4 1/3/3 15/14/14
f 11/19/19 10/15/15 4/1/1
f 6/18/18 9/22/22 1/3/3
f 8/20/20 17/21/21 1/3/3
f 8/20/20 12/8/8 5/6/6
f 20/5/5 19/11/11 2/9/9
f 21/4/4 3/2/2 1/3/3
# 23 facets

