#  ==========================================================================
#  
#  Wavefront OBJ format exported by Red-i Productions' "Riptide Pro"
#     (a commercial plugin for Cinema 4D PC & Mac, R9.6 or later)
#  
#  Red-i Productions
#  http://skinprops.com
#  
#  ==========================================================================
mtllib HAND_new_48.mtl
v 95.3511 -8.55349 -44.685
v 96.1999 -7.05048 -40.0118
v 93.4126 -7.57272 -44.0396
v 90.7559 -4.88903 -33.7278
v 91.0931 -4.29444 -39.3069
v 89.4498 -8.45544 -42.719
v 89.0696 -6.71171 -42.2381
v 93.5447 -5.4454 -37.113
v 86.947 -3.33948 -38.4456
v 89.1963 -3.04228 -35.762
v 92.2814 -4.61314 -38.1415
v 96.4682 -9.4357 -37.8273
v 97.5407 -9.53684 -42.7627
v 88.1921 -2.81428 -36.8887
v 96.74 -9.64035 -43.8946
v 90.8277 -5.72384 -42.1348
v 85.8639 -4.9019 -39.4954
v 93.5777 -10.2809 -44.587
v 85.108 -7.02566 -39.9906
v 97.5033 -8.47668 -40.9898
v 97.3159 -8.43316 -42.8286
v 97.5737 -10.1225 -40.3815
v 97.5763 -10.246 -41.088
v 97.2363 -10.3682 -42.0888
v 96.6994 -10.4046 -42.8936
v 96.2677 -10.4738 -43.7231
v 95.4069 -10.4412 -44.0809
v 89.6683 -3.58936 -35.1164
v 90.5477 -7.984 -33.2084
# 29 vertices

vt 0.99519 0.94656
vt 0.99008 0.94608
vt 0.98993 0.94089
vt 0.97051 0.92574
vt 0.97151 0.93716
vt 0.96771 0.92513
vt 0.97868 0.94540
vt 0.97459 0.93348
vt 0.98534 0.94892
vt 0.97798 0.93066
vt 0.98607 0.95176
vt 0.98914 0.95045
vt 0.98604 0.93237
vt 0.98131 0.95004
vt 0.99003 0.92825
vt 0.98126 0.91323
vt 0.97414 0.92383
vt 0.99495 0.93023
vt 0.98918 0.91421
vt 0.66859 0.04404
vt 0.66921 0.03836
vt 0.67405 0.04874
vt 0.66975 0.02173
vt 0.66938 0.01858
vt 0.67076 0.01778
vt 0.66542 0.02611
vt 0.66596 0.02373
vt 0.66746 0.02533
vt 0.97432 0.94912
vt 0.97649 0.95236
vt 0.98315 0.95408
vt 0.96238 0.92906
vt 0.99295 0.94841
vt 0.97880 0.92034
vt 0.99599 0.93641
vt 0.99582 0.93434
vt 0.98453 0.95407
vt 0.99152 0.95015
# 38 texture coordinates

vn -0.120512 0.019453 -0.992521
vn 0.317615 0.329706 -0.889053
vn -0.114191 0.513183 -0.850649
vn 0.474039 0.876964 0.0788709
vn 0.654879 0.683983 0.321404
vn 0.533417 0.790609 0.300673
vn 0.624475 0.781037 0.00360305
vn 0.445968 0.891988 -0.0739655
vn 0.726522 0.566071 -0.389524
vn 0.319072 0.883888 -0.341958
vn 0.914918 -0.242049 -0.323012
vn 0.657359 -0.245592 -0.712435
vn -0.053739 0.772963 -0.632171
vn 0.937832 0.303177 0.16898
vn -0.381292 0.364846 -0.849414
vn -0.352454 0.54696 -0.759349
vn 0.243428 0.925482 -0.290217
vn -0.397435 0.157993 -0.903927
vn -0.493034 0.244892 -0.834833
vn 0.672545 0.466197 0.574755
vn 0.78841 0.307984 0.532499
vn 0.626041 0.0879273 0.774817
vn 0.71442 -0.569797 -0.406123
vn 0.595876 -0.471466 -0.650116
vn 0.986566 -0.141849 -0.0810284
vn 0.768407 -0.548549 -0.329613
vn 0.978156 0.107624 0.17784
vn 0.291716 -0.315953 -0.902816
vn -0.0606513 0.808018 -0.586028
# 29 vertex normals

usemtl Default
f 3/3/3 1/2/2 18/1/1
f 28/6/6 8/5/5 10/4/4
f 11/8/8 8/5/5 2/7/7
f 5/10/10 2/7/7 21/9/9
f 15/12/12 21/9/9 13/11/11
f 3/3/3 16/13/13 5/10/10
f 20/14/14 21/9/9 2/7/7
f 5/10/10 11/8/8 2/7/7
f 17/16/16 16/13/13 7/15/15
f 14/17/17 5/10/10 16/13/13
f 13/11/11 21/9/9 20/14/14
f 19/19/19 7/15/15 6/18/18
f 7/15/15 16/13/13 3/3/3
f 29/22/22 12/21/21 4/20/20
f 1/2/2 5/10/10 21/9/9
f 26/25/24 15/24/12 25/23/23
f 2/7/7 8/5/5 20/14/14
f 24/28/26 13/27/11 23/26/25
f 12/29/21 20/14/14 8/5/5
f 15/12/12 1/2/2 21/9/9
f 22/31/27 20/14/14 12/30/21
f 8/5/5 28/6/6 4/32/20
f 1/2/2 27/33/28 18/1/1
f 9/34/29 16/13/13 17/16/16
f 10/4/4 8/5/5 11/8/8
f 1/2/2 3/3/3 5/10/10
f 3/3/3 18/1/1 6/35/18
f 5/10/10 14/17/17 11/8/8
f 10/4/4 11/8/8 14/17/17
f 4/32/20 12/29/21 8/5/5
f 9/34/29 14/17/17 16/13/13
f 7/15/15 19/19/19 17/16/16
f 3/3/3 6/36/18 7/15/15
f 23/37/25 20/14/14 22/31/27
f 23/37/25 13/11/11 20/14/14
f 25/23/23 13/27/11 24/28/26
f 25/23/23 15/24/12 13/27/11
f 27/33/28 15/12/12 26/38/24
f 27/33/28 1/2/2 15/12/12
# 39 facets

