# 26 vertices
v 78.2455 -1.03582 -31.8278
v 83.4695 -2.9832 -28.3231
v 89.5502 -7.73941 -32.4301
v 90.7559 -4.88903 -33.7278
v 87.253 -2.4329 -33.8723
v 86.947 -3.33948 -38.4456
v 89.1963 -3.04228 -35.762
v 76.2078 -2.99407 -33.4635
v 82.7966 -2.22097 -34.5924
v 80.154 -0.743116 -30.2338
v 82.5686 -4.43609 -26.75
v 88.1921 -2.81428 -36.8887
v 85.8639 -4.9019 -39.4954
v 82.8556 -1.78532 -32.4146
v 78.6288 -5.30065 -35.1817
v 85.108 -7.02566 -39.9906
v 84.2206 -2.35775 -30.7938
v 76.317 -3.75233 -33.4113
v 76.1193 -4.87854 -33.6567
v 82.3407 -5.82035 -26.3657
v 82.3717 -2.91139 -27.3147
v 82.1589 -2.21453 -27.8337
v 81.7154 -1.5953 -28.5045
v 81.2243 -1.50311 -29.0663
v 89.6683 -3.58936 -35.1164
v 90.5477 -7.984 -33.2084
# 32 texture coordinates
vt 0.98126 0.91323
vt 0.97332 0.88849
vt 0.97971 0.89284
vt 0.95444 0.89866
vt 0.95762 0.90775
vt 0.95305 0.89935
vt 0.97414 0.92383
vt 0.96998 0.90537
vt 0.97880 0.92034
vt 0.96238 0.92906
vt 0.96534 0.91763
vt 0.95026 0.90506
vt 0.96336 0.90420
vt 0.96567 0.89414
vt 0.95019 0.90051
vt 0.94781 0.90149
vt 0.96030 0.89704
vt 0.97441 0.88542
vt 0.97749 0.88551
vt 0.95197 0.92194
vt 0.94860 0.91577
vt 0.97051 0.92574
vt 0.98918 0.91421
vt 0.94719 0.91074
vt 0.69610 0.06870
vt 0.68817 0.06081
vt 0.71127 0.07579
vt 0.94469 0.90490
vt 0.96771 0.92513
vt 0.67405 0.04874
vt 0.67487 0.05049
vt 0.66859 0.04404
# 26 vertex normals
vn -0.419675 0.515306 -0.747217
vn -0.442455 0.424045 -0.790202
vn -0.546091 0.147305 -0.824673
vn 0.319621 0.943487 0.0876013
vn 0.421499 0.873986 0.241843
vn 0.410749 0.899329 0.149974
vn 0.0960577 0.982637 -0.15874
vn -0.111774 0.892392 -0.4372
vn -0.214594 0.851556 -0.478331
vn 0.609498 0.513769 0.603783
vn 0.371472 0.908075 0.193412
vn 0.591809 0.590244 0.548976
vn 0.162573 0.981332 -0.102747
vn 0.0172032 0.917597 -0.39714
vn 0.564015 0.705982 0.428342
vn 0.612929 0.472069 0.633616
vn 0.30028 0.953576 -0.0229189
vn -0.580522 0.0616304 -0.811909
vn -0.467613 0.265794 -0.843025
vn 0.643895 0.0859481 0.760271
vn 0.648408 0.222037 0.728194
vn 0.407505 0.904265 0.127455
vn -0.492329 0.360007 -0.792469
vn 0.655926 0.0997489 0.748205
vn 0.533417 0.790609 0.300673
vn 0.62604 0.087927 0.774818
# 29 facets
f 15/3/3 8/2/2 13/1/1
f 23/6/6 17/5/5 24/4/4
f 6/9/9 9/8/8 12/7/7
f 5/11/11 17/5/5 4/10/10
f 4/10/10 17/5/5 2/12/12
f 9/8/8 14/13/13 12/7/7
f 9/8/8 8/2/2 1/14/14
f 14/13/13 17/5/5 5/11/11
f 21/16/16 2/12/12 22/15/15
f 10/17/17 14/13/13 1/14/14
f 19/19/19 18/18/18 15/3/3
f 4/10/10 11/21/21 3/20/20
f 5/11/11 7/22/22 12/7/7
f 16/23/23 15/3/3 13/1/1
f 13/1/1 8/2/2 9/8/8
f 4/10/10 2/12/12 11/24/21
f 14/13/13 5/11/11 12/7/7
f 14/13/13 9/8/8 1/14/14
f 9/8/8 6/9/9 13/1/1
f 17/5/5 14/13/13 10/17/17
f 8/2/2 15/3/3 18/18/18
f 20/27/24 3/26/20 11/25/21
f 11/28/21 2/12/12 21/16/16
f 22/15/15 17/5/5 23/6/6
f 24/4/4 17/5/5 10/17/17
f 22/15/15 2/12/12 17/5/5
f 7/22/22 5/11/11 25/29/25
f 25/29/25 5/11/11 4/10/10
f 4/32/10 3/31/20 26/30/26
