# 25 vertices
v 51.9077 -10.728 -6.2301
v 56.163 -10.5666 -9.03354
v 56.5017 -9.66776 0.875103
v 46.2829 -11.2847 -3.60275
v 58.1845 -9.89894 -0.315083
v 58.2984 -9.89839 0.417066
v 55.9575 -10.5861 -9.51741
v 45.4077 -13.2481 -7.39236
v 47.5406 -11.1602 -4.19023
v 55.7743 -9.79147 -0.230524
v 55.4075 -9.79954 0.338541
v 57.6185 -10.0859 -2.75592
v 56.3734 -9.81479 -1.12354
v 46.1661 -11.5468 -4.10859
v 57.0954 -10.2586 -5.01191
v 56.2724 -10.1755 -4.91824
v 52.939 -10.4782 -4.6299
v 55.0037 -9.90831 1.06559
v 52.208 -10.4375 1.41056
v 47.6329 -11.4453 1.95433
v 55.4193 -10.7187 -9.45462
v 55.7531 -10.6334 -9.494
v 50.5922 -11.2578 -8.89349
v 48.3306 -12.1378 -8.57405
v 45.173 -13.3491 -8.17616
# 25 texture coordinates
vt 0.85406 0.13224
vt 0.84976 0.13118
vt 0.85416 0.13028
vt 0.82042 0.11969
vt 0.81823 0.12168
vt 0.81925 0.11982
vt 0.82740 0.15110
vt 0.82615 0.15507
vt 0.82461 0.14860
vt 0.82895 0.15278
vt 0.84023 0.15375
vt 0.85610 0.15052
vt 0.81900 0.15307
vt 0.81939 0.15560
vt 0.82155 0.13568
vt 0.81858 0.13616
vt 0.81851 0.11989
vt 0.83484 0.12749
vt 0.85481 0.11757
vt 0.84476 0.11698
vt 0.83721 0.11764
vt 0.83286 0.13379
vt 0.83097 0.15487
vt 0.81878 0.14428
vt 0.85507 0.11501
# 25 vertex normals
vn 0.200724 -0.975847 0.0862127
vn 0.204077 -0.950192 0.235557
vn 0.270508 -0.878902 0.392882
vn 0.164208 -0.984251 0.0654617
vn 0.119694 -0.992021 0.0395941
vn 0.229063 -0.971372 -0.0629806
vn 0.0973064 -0.992809 0.0697198
vn 0.0216091 -0.999304 0.0304049
vn 0.000103142 -0.996153 0.0876328
vn 0.142994 -0.989619 0.0143847
vn 0.18869 -0.980362 -0.0573263
vn 0.205609 -0.975509 -0.0781434
vn -0.0976107 -0.993104 0.0649364
vn -0.122331 -0.992292 0.0197786
vn 0.00439099 -0.995515 0.0945006
vn -0.0891764 -0.991321 0.0965912
vn 0.219198 -0.974197 -0.0537898
vn 0.217404 -0.970265 0.106402
vn 0.305498 -0.912863 0.270835
vn 0.361422 -0.932357 0.00923797
vn 0.246682 -0.966533 0.070447
vn 0.114311 -0.990147 0.0808883
vn 0.165246 -0.984688 -0.0555211
vn -0.0891764 -0.991321 0.0965912
vn 0.359506 -0.933058 0.0125838
# 30 facets
f 14/3/3 9/2/2 4/1/1
f 22/6/6 2/5/5 21/4/4
f 13/9/9 3/8/8 10/7/7
f 11/10/10 10/7/7 3/8/8
f 20/12/12 4/1/1 19/11/11
f 6/14/14 3/8/8 5/13/13
f 15/16/16 16/15/15 2/5/5
f 7/17/17 2/5/5 22/6/6
f 11/10/10 4/1/1 9/2/2
f 8/19/19 1/18/18 9/2/2
f 23/21/21 1/18/18 24/20/20
f 17/22/22 10/7/7 11/10/10
f 9/2/2 1/18/18 17/22/22
f 5/13/13 3/8/8 13/9/9
f 10/7/7 17/22/22 13/9/9
f 18/23/23 11/10/10 3/8/8
f 12/24/24 13/9/9 16/15/15
f 1/18/18 2/5/5 16/15/15
f 19/11/11 4/1/1 11/10/10
f 11/10/10 18/23/23 19/11/11
f 13/9/9 12/24/24 5/13/13
f 21/4/4 1/18/18 23/21/21
f 1/18/18 8/19/19 25/25/25
f 25/25/25 24/20/20 1/18/18
f 21/4/4 2/5/5 1/18/18
f 9/2/2 14/3/3 8/19/19
f 16/15/15 17/22/22 1/18/18
f 16/15/15 15/16/16 12/24/24
f 9/2/2 17/22/22 11/10/10
f 17/22/22 16/15/15 13/9/9
