# 17 vertices
v -10.4803 -6.35415 16.0614
v -1.26969 -6.33334 15.9489
v -3.41017 -10.3445 12.8622
v 2.87544 -10.6526 12.3089
v 5.14323 -9.99426 14.7579
v 5.1173 -11.0554 12.7166
v 5.16994 -8.92317 16.2333
v 5.33216 -6.70983 17.172
v 5.19676 -7.88399 16.6913
v -10.9586 -13.425 12.1901
v -11.2144 -11.3167 13.9213
v -11.4979 -6.35746 16.2356
v -11.4753 -6.79635 16.1192
v -11.3118 -9.74647 14.9278
v -11.5258 -8.45034 16.1164
v -1.20233 -10.8103 12.0555
v -3.24634 -11.0246 11.9831
# 23 texture coordinates
vt 0.68225 0.56634
vt 0.69434 0.56586
vt 0.69991 0.57122
vt 0.66638 0.57253
vt 0.64372 0.57630
vt 0.64339 0.56910
vt 0.64570 0.55623
vt 0.64908 0.55646
vt 0.64569 0.55797
vt 0.67295 0.61847
vt 0.67730 0.61734
vt 0.68453 0.61941
vt 0.65480 0.62407
vt 0.66380 0.62102
vt 0.67104 0.62931
vt 0.67778 0.62702
vt 0.69326 0.55385
vt 0.65817 0.63295
vt 0.65071 0.63129
vt 0.62504 0.63483
vt 0.62729 0.64575
vt 0.64601 0.56650
vt 0.65182 0.63488
# 17 vertex normals
vn -0.0959901 -0.559196 0.823459
vn -0.193475 -0.372237 0.907748
vn -0.273232 -0.596531 0.754649
vn 0.123782 -0.696102 0.707192
vn 0.179753 -0.567882 0.803243
vn 0.157491 -0.611535 0.775385
vn 0.164366 -0.245001 0.955488
vn 0.0794316 -0.0768393 0.993874
vn 0.112949 -0.125369 0.98566
vn -0.305023 -0.801778 0.513918
vn -0.138926 -0.801652 0.581424
vn -0.23659 -0.860854 0.450506
vn -0.189861 -0.353172 0.916091
vn 0.0312762 -0.826104 0.562649
vn 0.215565 -0.680912 0.699922
vn 0.0776383 -0.226347 0.970948
vn 0.154887 -0.767189 0.62244
# 16 facets
f 7/3/3 9/2/2 2/1/1
f 14/6/6 11/5/5 3/4/4
f 13/9/9 1/8/8 12/7/7
f 5/12/10 7/11/3 2/10/1
f 4/15/11 2/14/1 3/13/4
f 5/12/10 4/15/11 6/16/12
f 8/17/13 2/1/1 9/2/2
f 4/15/11 3/19/4 16/18/14
f 10/21/15 3/19/4 11/20/5
f 14/6/6 2/1/1 15/22/16
f 15/22/16 1/8/8 13/9/9
f 5/12/10 2/10/1 4/15/11
f 14/6/6 3/4/4 2/1/1
f 15/22/16 2/1/1 1/8/8
f 16/18/14 3/19/4 17/23/17
f 17/23/17 3/19/4 10/21/15
