# 41 vertices
v -61.4429 4.62985 17.8929
v -62.9323 1.59917 19.7983
v -53.4633 -3.79057 21.1882
v -67.0029 -9.6441 18.6345
v -69.7002 -0.693593 18.8458
v -70.5201 4.75161 17.4205
v -71.5398 9.12016 13.968
v -59.1364 -7.61399 20.468
v -65.6706 11.5673 11.0117
v -53.6927 0.840117 20.1327
v -51.4563 -6.56238 20.686
v -51.8219 0.0193344 20.1804
v -51.8368 0.481423 20.042
v -51.7286 9.4851 13.5228
v -51.769 8.41082 14.5639
v -51.6514 12.0619 11.2135
v -51.8408 0.964359 19.786
v -51.8105 4.84704 17.131
v -51.6455 -4.20132 21.0603
v -51.664 -3.95858 21.0901
v -72.1396 -6.64345 18.5355
v -71.8327 -9.30141 18.9604
v -74.0693 11.7449 10.2691
v -73.9346 9.91252 12.6744
v -73.774 8.06763 14.4099
v -71.4013 -12.759 18.6332
v -72.3006 -5.40295 18.8234
v -72.8413 -0.763015 18.2148
v -72.5878 -2.9835 18.6482
v -73.5289 5.44091 16.428
v -73.2788 3.14067 17.224
v -53.9581 -10.661 20.7002
v -71.2318 -14.1462 18.6009
v -69.2063 -13.7889 18.5783
v -66.0041 -13.0719 19.3386
v -64.3256 -12.696 19.7372
v -63.426 -12.5024 19.9099
v -60.09 -11.7812 20.5672
v -55.7924 -11.0221 20.5242
v -51.5453 -10.3583 20.3835
v -51.1639 -10.31 20.3357
# 51 texture coordinates
vt 0.47035 0.47001
vt 0.49480 0.49340
vt 0.46869 0.49012
vt 0.48914 0.45910
vt 0.52636 0.46528
vt 0.52488 0.47704
vt 0.51258 0.53330
vt 0.48818 0.50644
vt 0.51430 0.51322
vt 0.51986 0.51543
vt 0.52010 0.51339
vt 0.46049 0.48510
vt 0.45817 0.49428
vt 0.46631 0.45526
vt 0.46440 0.46437
vt 0.45321 0.55151
vt 0.45056 0.55234
vt 0.44255 0.54691
vt 0.45539 0.51005
vt 0.46547 0.51229
vt 0.45395 0.51989
vt 0.44741 0.53548
vt 0.51808 0.53569
vt 0.51803 0.53475
vt 0.48922 0.54698
vt 0.51911 0.54291
vt 0.52179 0.49707
vt 0.51963 0.51752
vt 0.51589 0.55495
vt 0.51995 0.55557
vt 0.52389 0.48193
vt 0.45532 0.64680
vt 0.47134 0.63017
vt 0.45805 0.64572
vt 0.45191 0.52995
vt 0.45053 0.53531
vt 0.46258 0.47325
vt 0.46834 0.64087
vt 0.46183 0.55102
vt 0.48379 0.63194
vt 0.45014 0.64670
vt 0.42305 0.65068
vt 0.42055 0.64535
vt 0.42845 0.65162
vt 0.44026 0.64653
vt 0.44706 0.63089
vt 0.50825 0.55569
vt 0.49896 0.55489
vt 0.51285 0.55080
vt 0.52102 0.55548
vt 0.42890 0.63873
# 41 vertex normals
vn -0.0727044 0.690491 0.719677
vn 0.00563746 0.623542 0.78177
vn -0.150787 0.395547 0.905983
vn -0.0113394 0.723959 0.68975
vn -0.0342617 0.667561 0.743767
vn -0.0282489 0.686778 0.726318
vn 0.0364277 -0.0133306 0.999247
vn -0.0907501 0.264343 0.96015
vn 0.069229 0.392931 0.916958
vn 0.118072 0.378579 0.918007
vn 0.124549 0.513317 0.849113
vn -0.164608 0.503127 0.848391
vn -0.217554 0.257699 0.941415
vn -0.0507166 0.797799 0.600787
vn -0.118981 0.733295 0.669419
vn -0.0879475 0.010315 0.996072
vn 0.0302964 -0.0431944 0.998607
vn 0.0700941 0.0401607 0.996732
vn -0.197173 0.20235 0.959259
vn -0.17283 0.135741 0.975553
vn -0.142291 0.0943851 0.985315
vn -0.082937 -0.109288 0.990544
vn 0.0389009 -0.136105 0.98993
vn 0.0645514 0.112109 0.991597
vn -0.148125 -0.00513198 0.988955
vn 0.0845927 -0.118031 0.9894
vn 0.0726888 0.575876 0.814299
vn 0.0882266 0.256986 0.962379
vn -0.00862319 -0.0702392 0.997493
vn 0.136856 -0.0809974 0.987274
vn 0.0129081 0.641959 0.76663
vn -0.228638 0.0941183 0.968951
vn -0.204621 0.0680731 0.976471
vn -0.138852 -0.0933896 0.9859
vn -0.147962 0.633077 0.759816
vn -0.101359 0.046844 0.993746
vn -0.0383828 -0.0211828 0.999039
vn -0.255188 0.122647 0.959081
vn 0.0149373 -0.0215065 0.999657
vn -0.0759135 0.0268306 0.996753
vn 0.134133 -0.0818299 0.987579
# 48 facets
f 6/3/3 1/2/2 7/1/1
f 14/6/6 16/5/5 9/4/4
f 10/9/9 2/8/8 3/7/7
f 2/8/8 1/2/2 6/3/3
f 1/2/2 2/8/8 10/9/9
f 7/1/1 1/2/2 9/4/4
f 17/11/11 10/9/9 13/10/10
f 31/13/13 6/3/3 30/12/12
f 24/15/15 7/1/1 23/14/14
f 22/18/18 26/17/17 4/16/16
f 29/21/21 5/20/20 28/19/19
f 6/3/3 5/20/20 2/8/8
f 22/18/18 4/16/16 21/22/22
f 20/24/24 3/7/7 19/23/23
f 8/25/25 3/7/7 2/8/8
f 11/26/26 19/23/23 3/7/7
f 18/27/27 10/9/9 17/11/11
f 13/10/10 10/9/9 12/28/28
f 40/30/30 3/7/7 32/29/29
f 14/6/6 1/2/2 15/31/31
f 10/9/9 3/7/7 20/24/24
f 1/2/2 10/9/9 18/27/27
f 37/34/33 8/33/25 36/32/32
f 21/36/22 8/25/25 27/35/34
f 30/12/12 7/1/1 25/37/35
f 2/8/8 5/20/20 8/25/25
f 28/19/19 6/3/3 31/13/13
f 8/25/25 5/20/20 29/21/21
f 20/24/24 12/28/28 10/9/9
f 18/27/27 15/31/31 1/2/2
f 14/6/6 9/4/4 1/2/2
f 38/38/36 8/33/25 37/34/33
f 21/36/22 4/39/16 8/25/25
f 29/21/21 27/35/34 8/25/25
f 28/19/19 5/20/20 6/3/3
f 30/12/12 6/3/3 7/1/1
f 23/14/14 7/1/1 9/4/4
f 39/40/37 8/33/25 38/38/36
f 36/32/32 8/33/25 35/41/38
f 25/37/35 7/1/1 24/15/15
f 34/44/40 26/43/17 33/42/39
f 35/41/38 4/46/16 34/45/40
f 32/49/29 8/48/25 39/47/37
f 41/50/41 3/7/7 40/30/30
f 41/50/41 11/26/26 3/7/7
f 32/49/29 3/7/7 8/48/25
f 35/41/38 8/33/25 4/46/16
f 34/44/40 4/51/16 26/43/17
