# 30 vertices
v 62.5576 6.46337 -3.93729
v 64.302 5.1311 -11.9053
v 78.5103 4.55199 -7.18167
v 71.7955 2.57441 -12.616
v 76.9077 0.514901 -13.1939
v 75.8615 2.64155 -4.3255
v 71.4815 4.96913 -9.91411
v 76.1545 -2.85014 -15.2031
v 79.3509 -1.88064 -2.8009
v 63.8355 6.23632 -7.04444
v 68.1434 4.50421 -1.04373
v 71.301 3.71075 -1.5771
v 76.5986 4.94861 -8.59155
v 62.8299 5.43044 -1.04063
v 62.1068 6.4529 -6.74036
v 62.0742 6.31734 -7.29927
v 61.2139 5.55387 -11.0755
v 79.2108 -0.283603 -3.77699
v 77.999 4.61531 -8.93214
v 77.662 3.98033 -10.3835
v 77.2535 2.55234 -12.0583
v 77.1504 2.15772 -12.5713
v 75.4924 -3.10392 -16.17
v 72.1458 0.212725 -15.6534
v 69.2297 2.56838 -15.1591
v 66.0557 4.49509 -14.2066
v 64.4813 5.08272 -13.801
v 63.8166 5.02488 -13.5512
v 62.9063 5.14452 -13.2228
v 60.9294 5.44343 -12.652
# 30 texture coordinates
vt 0.91616 0.82511
vt 0.90904 0.82221
vt 0.91614 0.82252
vt 0.89013 0.87571
vt 0.89095 0.86881
vt 0.89962 0.85181
vt 0.88898 0.86881
vt 0.89335 0.81252
vt 0.88925 0.84372
vt 0.87625 0.85815
vt 0.85803 0.82824
vt 0.86314 0.81584
vt 0.91168 0.87542
vt 0.90479 0.87658
vt 0.91497 0.85789
vt 0.85976 0.85062
vt 0.84237 0.86570
vt 0.91629 0.83139
vt 0.88518 0.80246
vt 0.91723 0.84542
vt 0.86939 0.86179
vt 0.87544 0.86370
vt 0.89718 0.80739
vt 0.89544 0.80656
vt 0.85100 0.86497
vt 0.87371 0.79933
vt 0.91143 0.81106
vt 0.91666 0.81947
vt 0.88162 0.86584
vt 0.91790 0.81177
# 30 vertex normals
vn 0.129515 0.991492 -0.0130545
vn 0.214364 0.960813 -0.175747
vn -0.00137639 0.997949 -0.0640001
vn 0.0682917 0.423038 -0.903535
vn 0.0525527 0.588933 -0.806471
vn 0.0903071 0.636479 -0.765989
vn 0.0682017 0.767759 -0.637099
vn 0.0855301 0.981748 -0.169867
vn 0.108359 0.890733 -0.441422
vn 0.173442 0.978319 0.11318
vn 0.427209 0.755141 0.497246
vn 0.213556 0.922912 0.320355
vn 0.547717 0.63713 -0.542284
vn 0.454756 0.740706 -0.494522
vn 0.594682 0.728251 -0.340594
vn 0.319547 0.694255 0.644902
vn 0.41911 0.563427 0.711967
vn 0.456627 0.883583 0.103787
vn 0.144787 0.98024 0.134781
vn 0.593756 0.794515 0.127278
vn 0.166281 0.890787 0.422906
vn 0.152503 0.943007 -0.29577
vn 0.0774631 0.970864 -0.226763
vn 0.100326 0.986159 -0.132006
vn 0.348625 0.542494 0.764304
vn 0.163007 0.934057 0.317753
vn 0.0878381 0.981013 -0.172913
vn 0.10668 0.988951 -0.102936
vn 0.0849361 0.807805 -0.583298
vn 0.113973 0.988296 -0.101394
# 34 facets
f 28/3/3 2/2/2 27/1/1
f 4/6/6 22/5/5 5/4/4
f 22/5/5 4/6/6 21/7/7
f 13/10/10 7/9/9 10/8/8
f 13/10/10 11/12/12 12/11/11
f 24/15/15 8/14/14 23/13/13
f 13/10/10 12/11/11 6/16/16
f 6/16/16 12/11/11 9/17/17
f 27/1/1 2/2/2 26/18/18
f 13/10/10 1/19/19 11/12/12
f 2/2/2 10/8/8 7/9/9
f 4/6/6 8/14/14 2/2/2
f 10/8/8 1/19/19 13/10/10
f 26/18/18 2/2/2 25/20/20
f 4/6/6 2/2/2 7/9/9
f 19/22/22 13/10/10 3/21/21
f 15/24/24 10/8/8 16/23/23
f 18/25/25 6/16/16 9/17/17
f 6/16/16 3/21/21 13/10/10
f 5/4/4 8/14/14 4/6/6
f 14/26/26 11/12/12 1/19/19
f 1/19/19 10/8/8 15/24/24
f 10/8/8 2/2/2 17/27/27
f 17/27/27 16/23/23 10/8/8
f 29/28/28 2/2/2 28/3/3
f 3/21/21 6/16/16 18/25/25
f 7/9/9 13/10/10 19/22/22
f 19/22/22 20/29/29 7/9/9
f 21/7/7 4/6/6 20/29/29
f 4/6/6 7/9/9 20/29/29
f 25/20/20 8/14/14 24/15/15
f 25/20/20 2/2/2 8/14/14
f 30/30/30 2/2/2 29/28/28
f 30/30/30 17/27/27 2/2/2

