# 54 vertices
v -90.6542 -17.7289 -33.5334
v -90.2927 -25.6039 -20.5923
v -72.9605 -8.36838 -33.4528
v -85.3815 -23.0916 -22.5782
v -81.2562 -14.7448 -31.403
v -71.2679 -25.4102 -22.0349
v -85.3365 -18.9519 -28.8375
v -80.5636 -11.3022 -32.6961
v -75.7745 -11.7277 -33.3183
v -96.8237 -10.8983 -37.2866
v -82.8856 -24.2059 -21.5962
v -88.5726 -27.6278 -18.1382
v -70.6339 -15.4557 -27.0207
v -95.1864 -10.6521 -35.4821
v -76.2248 -18.1405 -25.9011
v -73.0944 -14.6134 -30.6652
v -92.4562 -15.4434 -35.7974
v -81.993 -21.1603 -23.3788
v -96.7251 -18.2658 -34.538
v -86.8083 -9.89673 -32.3279
v -86.5163 -11.751 -33.7612
v -82.7192 -16.6713 -30.0345
v -69.2113 -20.926 -24.5834
v -86.1949 -14.8111 -33.4885
v -82.5248 -9.36102 -32.7396
v -68.3043 -26.6212 -20.221
v -68.4478 -24.828 -22.2538
v -69.4355 -15.2738 -26.957
v -69.448 -14.4819 -29.2517
v -69.4337 -14.2655 -30.3662
v -69.4612 -13.7631 -31.2846
v -69.4143 -15.5034 -26.7744
v -68.8521 -20.8012 -24.566
v -69.7162 -11.0016 -33.481
v -69.6348 -11.8105 -33.0196
v -70.0672 -8.15283 -33.3305
v -68.8173 -21.1232 -24.4501
v -97.1099 -18.5146 -34.245
v -96.4622 -19.796 -31.9156
v -97.2021 -18.2924 -34.5543
v -95.7212 -21.45 -29.3566
v -93.3286 -25.9889 -20.6427
v -93.5953 -25.6643 -21.7161
v -92.2343 -28.7187 -17.0252
v -92.6238 -27.6725 -18.2709
v -97.5646 -16.7717 -35.4049
v -98.3154 -13.1866 -36.9222
v -98.591 -11.1494 -37.2631
v -87.8242 -28.8425 -17.0731
v -76.1517 -27.8013 -19.2736
v -72.3729 -27.4265 -19.9442
v -70.8857 -27.1321 -20.0454
v -91.9482 -29.3172 -16.0146
v -89.9739 -28.9304 -16.2916
# 62 texture coordinates
vt 0.45496 0.93689
vt 0.44072 0.93923
vt 0.46998 0.92106
vt 0.44647 0.92010
vt 0.48387 0.82961
vt 0.49785 0.84333
vt 0.45343 0.85211
vt 0.50915 0.86583
vt 0.50571 0.86727
vt 0.50864 0.86477
vt 0.46152 0.86286
vt 0.45797 0.88617
vt 0.44820 0.86149
vt 0.50314 0.88193
vt 0.50003 0.89668
vt 0.47040 0.89053
vt 0.48465 0.86639
vt 0.48527 0.26433
vt 0.50267 0.27741
vt 0.47049 0.27032
vt 0.47918 0.89672
vt 0.50222 0.90009
vt 0.48880 0.90926
vt 0.51344 0.87679
vt 0.51512 0.88016
vt 0.51205 0.87349
vt 0.47665 0.82204
vt 0.46557 0.82529
vt 0.42864 0.85811
vt 0.42937 0.84441
vt 0.41928 0.86192
vt 0.41696 0.85094
vt 0.41975 0.86568
vt 0.46489 0.90882
vt 0.42428 0.89663
vt 0.44668 0.90728
vt 0.42639 0.90711
vt 0.42966 0.91637
vt 0.46184 0.93174
vt 0.43584 0.94027
vt 0.43504 0.93753
vt 0.42831 0.91708
vt 0.42803 0.91572
vt 0.46140 0.25909
vt 0.46671 0.25954
vt 0.45450 0.26792
vt 0.51927 0.89113
vt 0.51780 0.88787
vt 0.49387 0.26577
vt 0.49900 0.84313
vt 0.49842 0.84191
vt 0.50850 0.27752
vt 0.51826 0.27059
vt 0.41582 0.84470
vt 0.43011 0.92363
vt 0.52502 0.27332
vt 0.49195 0.82708
vt 0.48821 0.81822
vt 0.48087 0.82065
vt 0.42956 0.83746
vt 0.42172 0.83866
vt 0.41498 0.84015
# 54 vertex normals
vn 0.210815 0.812818 -0.543033
vn 0.185531 0.169192 -0.967963
vn 0.204885 0.350778 -0.913771
vn 0.186442 -0.35354 -0.916651
vn -0.00353592 -0.629749 -0.776791
vn 0.0402511 -0.436117 -0.898989
vn -0.0284552 -0.579465 -0.8145
vn 0.152562 -0.803541 -0.575367
vn 0.173811 -0.686102 -0.706437
vn 0.153952 -0.491382 -0.85723
vn 0.180091 -0.694287 -0.696801
vn 0.309326 -0.78109 -0.542416
vn 0.164663 -0.709855 -0.684829
vn 0.128902 -0.829973 -0.542705
vn -0.00704944 -0.353208 -0.935518
vn 0.229437 -0.734166 -0.639029
vn 0.0818195 -0.684702 -0.724216
vn 0.0639235 -0.114528 -0.991361
vn -0.0468873 -0.0350453 -0.998285
vn -0.018052 0.227413 -0.973631
vn 0.202055 -0.52661 -0.825745
vn 0.116338 -0.934023 -0.337738
vn 0.075784 -0.778102 -0.62355
vn 0.142255 -0.949797 -0.278656
vn 0.0230915 -0.725689 -0.687635
vn -0.0692434 -0.690297 -0.720205
vn 0.1248 -0.807286 -0.576814
vn -0.0183267 -0.749039 -0.662272
vn 0.119106 -0.878828 -0.462034
vn 0.0567014 -0.772992 -0.631876
vn 0.16939 -0.87646 -0.450694
vn 0.323987 -0.313588 -0.892578
vn 0.161546 -0.826052 -0.539946
vn 0.247657 -0.74678 -0.617241
vn 0.145909 -0.83058 -0.537446
vn 0.118245 -0.701134 -0.703156
vn 0.0395652 0.614979 -0.787551
vn 0.0101362 -0.163716 -0.986455
vn 0.0470846 -0.25765 -0.96509
vn 0.0607104 -0.59744 -0.799613
vn 0.127997 -0.832478 -0.539071
vn 0.00156036 -0.231109 -0.972927
vn 0.0303434 -0.608854 -0.792701
vn 0.166013 -0.349001 -0.9223
vn 0.0777884 -0.447077 -0.891107
vn 0.0077217 -0.0157303 -0.999846
vn 0.0608755 -0.805615 -0.589303
vn 0.0429122 -0.431364 -0.901157
vn 0.0814335 -0.671332 -0.73667
vn 0.101897 -0.74243 -0.662129
vn 0.101897 -0.74243 -0.662129
vn -0.144808 -0.701289 -0.698015
vn -0.0615624 -0.793014 -0.606085
vn 0.0917354 -0.845178 -0.526553
# 72 facets
f 21/3/3 10/2/2 14/1/1
f 21/3/3 17/4/4 10/2/2
f 11/7/7 23/6/6 6/5/5
f 32/10/10 13/9/9 28/8/8
f 4/13/13 7/12/12 18/11/11
f 22/16/16 9/15/15 16/14/14
f 18/11/11 22/16/16 15/17/17
f 25/20/20 3/19/19 8/18/18
f 8/23/18 9/22/15 5/21/21
f 31/25/23 30/24/22 16/14/14
f 30/24/22 29/26/24 16/14/14
f 11/7/7 15/17/17 23/6/6
f 50/28/26 6/5/5 51/27/25
f 12/30/28 2/29/27 11/7/7
f 4/13/13 2/29/27 7/12/12
f 45/32/30 42/31/29 2/29/27
f 43/33/31 2/29/27 42/31/29
f 8/23/18 24/34/32 21/3/3
f 39/37/35 1/36/34 41/35/33
f 17/4/4 1/36/34 19/38/36
f 14/1/1 20/39/37 21/3/3
f 24/34/32 17/4/4 21/3/3
f 47/41/39 48/40/38 10/2/2
f 38/43/41 40/42/40 19/38/36
f 2/29/27 1/36/34 7/12/12
f 1/36/34 22/16/16 7/12/12
f 5/21/21 22/16/16 1/36/34
f 25/20/20 8/45/18 21/44/3
f 7/12/12 22/16/16 18/11/11
f 5/21/21 24/34/32 8/23/18
f 20/46/37 25/20/20 21/44/3
f 5/21/21 1/36/34 24/34/32
f 11/7/7 2/29/27 4/13/13
f 4/13/13 18/11/11 11/7/7
f 35/48/43 9/15/15 34/47/42
f 11/7/7 18/11/11 15/17/17
f 15/17/17 16/14/14 13/9/9
f 22/16/16 16/14/14 15/17/17
f 5/21/21 9/15/15 22/16/16
f 3/19/19 9/49/15 8/18/18
f 15/17/17 13/9/9 23/6/6
f 37/51/45 23/6/6 33/50/44
f 24/34/32 1/36/34 17/4/4
f 13/9/9 16/14/14 29/26/24
f 33/50/44 13/9/9 32/10/10
f 9/53/15 3/19/19 36/52/46
f 6/5/5 23/6/6 37/51/45
f 16/14/14 9/15/15 35/48/43
f 38/43/41 1/36/34 39/37/35
f 45/32/30 12/30/28 44/54/47
f 17/4/4 19/38/36 40/42/40
f 47/41/39 17/4/4 46/55/48
f 1/36/34 2/29/27 43/33/31
f 36/52/46 34/56/42 9/53/15
f 35/48/43 31/25/23 16/14/14
f 29/26/24 28/8/8 13/9/9
f 33/50/44 23/6/6 13/9/9
f 37/51/45 27/57/49 6/5/5
f 52/59/51 27/57/49 26/58/50
f 47/41/39 10/2/2 17/4/4
f 40/42/40 46/55/48 17/4/4
f 38/43/41 19/38/36 1/36/34
f 43/33/31 41/35/33 1/36/34
f 45/32/30 2/29/27 12/30/28
f 54/61/53 12/30/28 49/60/52
f 12/30/28 6/5/5 50/28/26
f 6/5/5 27/57/49 52/59/51
f 53/62/54 44/54/47 12/30/28
f 52/59/51 51/27/25 6/5/5
f 50/28/26 49/60/52 12/30/28
f 12/30/28 11/7/7 6/5/5
f 12/30/28 54/61/53 53/62/54
