# 22 vertices
v 71.4704 -11.8833 2.17896
v 79.128 -6.82952 -1.72284
v 80.0645 -3.06743 -2.85976
v 79.5817 -5.65961 10.6104
v 80.0167 -6.33044 9.49907
v 69.7378 -11.8499 3.41982
v 74.0134 -11.1972 3.13626
v 80.1133 -7.70662 5.10275
v 76.444 -9.15187 -3.30097
v 73.9065 -10.9843 -0.808662
v 80.0491 -7.38912 1.51289
v 80.0725 -5.4356 -1.95188
v 77.5622 -8.88596 9.89068
v 74.2956 -10.9588 9.25023
v 72.7825 -11.1901 9.09848
v 69.9074 -12.0912 8.72447
v 78.5975 -6.94783 -3.16851
v 73.4595 -10.6732 -3.43395
v 72.2533 -11.0517 -3.49148
v 70.1849 -11.5403 -3.3385
v 68.5791 -11.5068 -2.99666
v 67.7604 -11.475 -2.77083
# 22 texture coordinates
vt 0.76460 0.18358
vt 0.75949 0.21760
vt 0.73305 0.18634
vt 0.78156 0.17896
vt 0.77334 0.17660
vt 0.74482 0.15971
vt 0.77357 0.20764
vt 0.73785 0.20235
vt 0.74334 0.22122
vt 0.75986 0.16809
vt 0.72201 0.17284
vt 0.73039 0.17044
vt 0.76375 0.15643
vt 0.75905 0.15745
vt 0.73124 0.16319
vt 0.77883 0.20448
vt 0.78854 0.19794
vt 0.71502 0.16889
vt 0.74875 0.22873
vt 0.77864 0.15462
vt 0.77253 0.15482
vt 0.78211 0.15445
# 22 vertex normals
vn 0.367988 -0.929662 0.0177085
vn 0.569748 -0.807898 0.150627
vn 0.582234 -0.796604 -0.162563
vn 0.105446 -0.993995 0.0292368
vn 0.135749 -0.990503 -0.0218379
vn 0.59751 -0.783865 -0.168928
vn 0.34878 -0.936982 0.0204339
vn 0.523071 -0.849453 0.0694684
vn 0.690638 -0.601904 0.400913
vn 0.363976 -0.924159 -0.115984
vn 0.569654 -0.493944 -0.656897
vn 0.721536 -0.539517 -0.433944
vn 0.248183 -0.960107 -0.128839
vn 0.379043 -0.9092 -0.172286
vn 0.821138 -0.508232 -0.259679
vn 0.202665 -0.979241 0.00383733
vn 0.304923 -0.950901 -0.052996
vn 0.655505 -0.363262 -0.662083
vn 0.636325 -0.524486 0.56569
vn -0.0447195 -0.997864 -0.0476154
vn 0.0949139 -0.991954 -0.0837825
vn -0.0508604 -0.997728 -0.044175
# 24 facets
f 11/3/3 13/2/2 7/1/1
f 1/5/5 7/1/1 6/4/4
f 11/3/3 7/1/1 9/6/6
f 14/7/7 7/1/1 13/2/2
f 8/8/8 13/2/2 11/3/3
f 5/9/9 13/2/2 8/8/8
f 9/6/6 7/1/1 10/10/10
f 11/3/3 2/12/12 12/11/11
f 18/14/14 10/10/10 19/13/13
f 17/15/15 2/12/12 9/6/6
f 16/17/17 6/4/4 15/16/16
f 12/11/11 2/12/12 3/18/18
f 5/9/9 4/19/19 13/2/2
f 11/3/3 9/6/6 2/12/12
f 20/21/21 1/5/5 21/20/20
f 10/10/10 7/1/1 1/5/5
f 15/16/16 7/1/1 14/7/7
f 15/16/16 6/4/4 7/1/1
f 3/18/18 2/12/12 17/15/15
f 9/6/6 10/10/10 18/14/14
f 19/13/13 10/10/10 1/5/5
f 1/5/5 20/21/21 19/13/13
f 21/20/20 1/5/5 6/4/4
f 6/4/4 22/22/22 21/20/20

