#  ==========================================================================
#  
#  Wavefront OBJ format exported by Red-i Productions' "Riptide Pro"
#     (a commercial plugin for Cinema 4D PC & Mac, R9.6 or later)
#  
#  Red-i Productions
#  http://skinprops.com
#  
#  ==========================================================================
mtllib HAND_new_36.mtl
v 48.2596 -11.5199 4.53378
v 57.5462 -9.67413 5.92722
v 56.5017 -9.66776 0.875103
v 49.4927 -13.1677 10.0846
v 59.0232 -9.95347 6.1649
v 58.6626 -9.89664 2.75743
v 59.3559 -10.3376 9.91443
v 58.2984 -9.89839 0.417066
v 53.9795 -10.1842 2.90938
v 58.5614 -10.2108 10.056
v 55.0037 -9.90831 1.06559
v 52.208 -10.4375 1.41056
v 47.6329 -11.4453 1.95433
# 13 vertices

vt 0.84023 0.15375
vt 0.83609 0.16018
vt 0.83097 0.15487
vt 0.82062 0.16367
vt 0.82777 0.17312
vt 0.82296 0.17569
vt 0.86199 0.17820
vt 0.85704 0.15900
vt 0.82615 0.15507
vt 0.82630 0.18852
vt 0.82921 0.18803
vt 0.85610 0.15052
vt 0.81939 0.15560
# 13 texture coordinates

vn 0.197169 -0.978026 -0.0677423
vn 0.182777 -0.98127 -0.0608409
vn 0.165246 -0.984688 -0.0555225
vn -0.14522 -0.98927 0.016032
vn 0.0626432 -0.992864 -0.101469
vn -0.176866 -0.982652 -0.0557995
vn 0.267918 -0.927565 -0.260466
vn 0.213229 -0.966864 -0.140379
vn 0.0184646 -0.999729 -0.0141973
vn -0.171887 -0.981418 -0.0852916
vn -0.0138192 -0.991993 -0.125534
vn 0.205609 -0.975509 -0.0781433
vn -0.122331 -0.992292 0.0197795
# 13 vertex normals

usemtl Default
f 11/3/3 9/2/2 12/1/1
f 5/6/6 2/5/5 6/4/4
f 1/8/8 2/5/5 4/7/7
f 6/4/4 2/5/5 3/9/9
f 10/11/11 5/6/6 7/10/10
f 4/7/7 2/5/5 10/11/11
f 10/11/11 2/5/5 5/6/6
f 3/9/9 2/5/5 9/2/2
f 12/1/1 1/8/8 13/12/12
f 12/1/1 9/2/2 1/8/8
f 9/2/2 2/5/5 1/8/8
f 9/2/2 11/3/3 3/9/9
f 3/9/9 8/13/13 6/4/4
# 13 facets

