#  ==========================================================================
#  
#  Wavefront OBJ format exported by Red-i Productions' "Riptide Pro"
#     (a commercial plugin for Cinema 4D PC & Mac, R9.6 or later)
#  
#  Red-i Productions
#  http://skinprops.com
#  
#  ==========================================================================
mtllib HAND_new_13.mtl
v 56.5672 -5.24355 26.3746
v 62.6391 0.294192 21.4468
v 59.0336 5.34764 14.109
v 60.1968 4.37497 17.0602
v 53.114 2.95582 19.9631
v 55.7921 -2.37781 27.143
v 63.3492 -4.11106 22.9154
v 59.8294 -1.01195 22.8785
v 57.0831 5.77842 9.32825
v 67.6871 -3.5377 22.8731
v 67.5631 -1.91385 22.5291
v 67.2436 0.251326 21.8095
v 66.4076 2.87559 19.9047
v 65.7907 4.24095 18.4835
v 65.5533 4.50602 17.4323
v 65.3379 4.81566 16.5144
v 64.4394 4.38489 12.2301
v 63.7603 4.54175 9.56251
v 57.9647 -5.01019 25.6618
v 57.5492 -2.69158 26.1177
v 57.3718 -1.84339 25.4744
v 56.5464 1.22361 21.6074
v 61.0114 5.18075 14.8636
v 60.7923 5.12061 15.0054
v 59.6727 4.81327 15.7303
v 57.2915 4.48398 17.3493
v 52.4832 4.56596 17.7613
v 52.0469 5.2619 15.9432
v 51.6723 6.12804 13.2862
v 51.0826 7.01852 9.05981
# 30 vertices

vt 0.85343 0.73383
vt 0.83484 0.75291
vt 0.84470 0.73060
vt 0.79916 0.74232
vt 0.78387 0.73506
vt 0.80016 0.73011
vt 0.82283 0.74897
vt 0.82864 0.74021
vt 0.82824 0.75075
vt 0.77731 0.74772
vt 0.78177 0.75057
vt 0.82936 0.72102
vt 0.78922 0.75421
vt 0.79999 0.75929
vt 0.81449 0.76680
vt 0.82846 0.75727
vt 0.82563 0.77555
vt 0.80737 0.76200
vt 0.81105 0.76511
vt 0.81137 0.72662
vt 0.79892 0.71804
vt 0.79503 0.71567
vt 0.79813 0.71029
vt 0.87027 0.74231
vt 0.78749 0.71599
vt 0.82842 0.75620
vt 0.85399 0.75697
vt 0.83287 0.78010
vt 0.78843 0.71104
vt 0.83753 0.72678
# 30 texture coordinates

vn 0.074682 0.965888 0.247959
vn 0.0790674 0.979795 0.183712
vn 0.0590805 0.948065 0.312542
vn 0.000280442 0.544093 0.839025
vn 0.193745 0.290813 0.936958
vn 0.312647 0.640338 0.701583
vn 0.0013331 0.842913 0.538048
vn 0.0662106 0.912088 0.404613
vn 0.00936312 0.950796 0.309678
vn -0.017674 0.205894 0.978415
vn -0.0449017 0.255872 0.965667
vn 0.0998446 0.801719 0.589303
vn -0.0683397 0.398676 0.914542
vn -0.131456 0.642757 0.754707
vn 0.0134744 0.983184 0.182121
vn 0.0439715 0.993554 0.104487
vn 0.156548 0.986042 -0.0566976
vn -0.108539 0.855033 0.507088
vn -0.0443946 0.951675 0.30388
vn 0.221347 0.775982 0.590641
vn 0.402873 0.689257 0.602178
vn 0.514385 0.263528 0.816064
vn 0.394359 0.573057 0.718392
vn 0.142907 0.984591 0.100783
vn 0.464411 -0.0900227 0.881032
vn -0.0459316 0.94322 0.328976
vn 0.188084 0.982094 0.0107897
vn 0.181706 0.983285 0.0115652
vn 0.476245 -0.0952703 0.874136
vn 0.0550106 0.882884 0.466358
# 30 vertex normals

usemtl Mat
f 28/3/3 3/2/2 29/1/1
f 8/6/6 7/5/5 2/4/4
f 25/9/9 26/8/8 4/7/7
f 11/11/11 7/5/5 10/10/10
f 5/12/12 4/7/7 26/8/8
f 13/14/14 2/4/4 12/13/13
f 17/17/17 23/16/16 16/15/15
f 15/19/19 4/7/7 14/18/18
f 21/21/21 8/6/6 22/20/20
f 2/4/4 4/7/7 8/6/6
f 21/21/21 6/23/23 20/22/22
f 29/1/1 3/2/2 30/24/24
f 4/7/7 22/20/20 8/6/6
f 19/25/25 7/5/5 20/22/22
f 12/13/13 2/4/4 7/5/5
f 7/5/5 11/11/11 12/13/13
f 14/18/18 4/7/7 13/14/14
f 4/7/7 2/4/4 13/14/14
f 23/16/16 3/2/2 24/26/26
f 24/26/26 3/2/2 25/9/9
f 18/28/28 9/27/27 17/17/17
f 9/27/27 3/2/2 17/17/17
f 20/22/22 6/23/23 1/29/29
f 1/29/29 19/25/25 20/22/22
f 20/22/22 7/5/5 8/6/6
f 8/6/6 21/21/21 20/22/22
f 22/20/20 5/12/12 6/23/23
f 6/23/23 21/21/21 22/20/20
f 17/17/17 3/2/2 23/16/16
f 24/26/26 16/15/15 23/16/16
f 4/7/7 15/19/19 24/26/26
f 27/30/30 26/8/8 28/3/3
f 5/12/12 26/8/8 27/30/30
f 26/8/8 25/9/9 3/2/2
f 3/2/2 28/3/3 26/8/8
f 30/24/24 3/2/2 9/27/27
f 4/7/7 5/12/12 22/20/20
f 24/26/26 15/19/19 16/15/15
f 24/26/26 25/9/9 4/7/7
# 39 facets

