# 32 vertices
v -96.9656 -27.0796 23.8851
v -91.5475 -16.3548 25.2895
v -92.9397 -29.8613 15.6212
v -101.27 -32.3357 14.5759
v -88.3703 -25.5537 18.9615
v -91.0956 -20.6794 23.262
v -85.4838 -18.5329 20.5158
v -85.45 -19.0606 20.3777
v -85.4578 -19.7474 19.9541
v -85.5604 -31.5833 11.5911
v -85.4554 -18.8819 20.4528
v -85.2987 -23.0711 18.8307
v -85.4593 -18.7787 20.4926
v -85.3334 -30.0752 14.7207
v -85.2796 -28.6731 15.7645
v -85.1576 -25.3119 18.233
v -85.2478 -28.2233 16.1675
v -105.639 -32.9177 20.4505
v -100.58 -15.3622 31.7503
v -100.456 -19.2809 31.6865
v -100.496 -17.4499 31.7525
v -100.782 -22.4553 30.811
v -103.191 -30.0114 25.4786
v -101.959 -27.4711 28.0945
v -101.799 -27.2887 28.4224
v -100.947 -23.8954 30.3612
v -101.592 -26.4174 28.8972
v -85.7805 -19.7955 20.2174
v -85.737 -16.147 20.6672
v -107.635 -34.578 16.4033
v -90.8151 -31.5756 11.9143
v -94.2583 -31.3948 12.6654
# 34 texture coordinates
vt 0.36601 0.72333
vt 0.33925 0.74076
vt 0.33894 0.69721
vt 0.31695 0.69191
vt 0.31634 0.70584
vt 0.31818 0.67410
vt 0.35871 0.67790
vt 0.31720 0.68581
vt 0.37591 0.69632
vt 0.38829 0.69506
vt 0.39204 0.71055
vt 0.38332 0.66859
vt 0.38665 0.68164
vt 0.36522 0.73548
vt 0.39267 0.71318
vt 0.39341 0.72139
vt 0.31571 0.74635
vt 0.31611 0.72964
vt 0.31395 0.63901
vt 0.35593 0.64763
vt 0.31925 0.64731
vt 0.38182 0.66852
vt 0.39597 0.73346
vt 0.37839 0.73542
vt 0.38253 0.66399
vt 0.31861 0.66734
vt 0.38250 0.66358
vt 0.38235 0.66262
vt 0.31748 0.69008
vt 0.38258 0.66497
vt 0.31975 0.65432
vt 0.38303 0.65491
vt 0.38323 0.66214
vt 0.36726 0.64144
# 32 vertex normals
vn 0.150887 -0.811805 0.564098
vn 0.351368 -0.886871 0.300001
vn 0.37651 -0.844374 0.381146
vn 0.409891 -0.814529 0.410527
vn 0.470503 -0.81395 0.340754
vn 0.617781 -0.406523 0.673117
vn 0.552007 -0.447411 0.703641
vn 0.579103 -0.448645 0.680704
vn 0.401621 -0.536519 0.742191
vn 0.230946 -0.409758 0.882475
vn 0.134448 -0.63709 0.758973
vn 0.510017 -0.38715 0.768113
vn 0.255025 -0.26656 0.929466
vn 0.136215 -0.902913 0.407668
vn 0.08385 -0.633354 0.769306
vn 0.044056 -0.821269 0.568837
vn 0.373891 -0.908199 0.188094
vn 0.420502 -0.878778 0.225673
vn 0.583368 0.0245119 0.811838
vn 0.603798 -0.0182933 0.796927
vn 0.591633 -0.0308306 0.805617
vn 0.559191 -0.408806 0.721237
vn 0.0252909 -0.901299 0.432458
vn 0.0335153 -0.899522 0.435587
vn 0.537479 -0.490986 0.685601
vn 0.58231 -0.429619 0.690175
vn 0.597752 -0.135901 0.790078
vn 0.618944 0.00168088 0.785433
vn 0.423545 -0.781656 0.457847
vn 0.541249 -0.380648 0.749771
vn 0.594966 -0.144842 0.790592
vn 0.622111 0.0163603 0.782758
# 35 facets
f 1/3/3 4/2/2 3/1/1
f 23/5/5 1/3/3 24/4/4
f 27/8/8 6/7/7 26/6/6
f 17/11/11 16/10/10 5/9/9
f 12/13/13 9/12/12 5/9/9
f 12/13/13 5/9/9 16/10/10
f 5/9/9 1/3/3 3/1/1
f 32/14/14 3/1/1 4/2/2
f 14/16/16 15/15/15 3/1/1
f 18/18/18 30/17/17 4/2/2
f 21/21/21 2/20/20 19/19/19
f 28/22/22 5/9/9 9/12/12
f 14/16/16 31/24/24 10/23/23
f 17/11/11 3/1/1 15/15/15
f 13/27/27 22/26/26 11/25/25
f 13/27/27 7/28/28 2/20/20
f 2/20/20 21/21/21 13/27/27
f 4/2/2 1/3/3 23/5/5
f 1/3/3 5/9/9 25/29/29
f 11/25/25 22/26/26 6/7/7
f 6/7/7 8/30/30 11/25/25
f 5/9/9 6/7/7 27/8/8
f 17/11/11 5/9/9 3/1/1
f 5/9/9 28/22/22 6/7/7
f 13/27/27 20/31/31 22/26/26
f 21/21/21 20/31/31 13/27/27
f 22/26/26 26/6/6 6/7/7
f 27/8/8 25/29/29 5/9/9
f 25/29/29 24/4/4 1/3/3
f 23/5/5 18/18/18 4/2/2
f 9/12/12 8/30/30 28/22/22
f 28/22/22 8/30/30 6/7/7
f 2/34/20 7/33/28 29/32/32
f 31/24/24 3/1/1 32/14/14
f 31/24/24 14/16/16 3/1/1
