#  ==========================================================================
#  
#  Wavefront OBJ format exported by Red-i Productions' "Riptide Pro"
#     (a commercial plugin for Cinema 4D PC & Mac, R9.6 or later)
#  
#  Red-i Productions
#  http://skinprops.com
#  
#  ==========================================================================
mtllib HAND_new_34.mtl
v 37.6525 -4.0674 -23.7829
v 42.0975 -6.33759 -23.8969
v 41.7641 -12.3662 -18.6177
v 49.3044 -11.6843 -16.7392
v 48.3333 -12.1677 -13.467
v 53.727 -10.7979 -14.7708
v 52.2291 -10.7147 -17.6635
v 51.5918 -10.4442 -18.6582
v 50.1193 -9.81987 -20.8496
v 49.4356 -9.25584 -21.5995
v 47.9489 -7.09032 -22.8349
v 46.0371 -6.66325 -23.4697
v 47.4327 -6.41006 -23.6837
v 47.0465 -5.98944 -24.1883
v 46.7432 -4.64472 -24.2355
v 39.0416 -8.06625 -22.418
v 46.6132 -3.59823 -24.3716
v 55.9575 -10.5861 -9.51741
v 44.2539 -13.7446 -11.2454
v 43.7464 -13.9532 -12.9345
v 43.4943 -14.0643 -13.6852
v 40.7536 -10.9222 -20.4573
v 40.1436 -9.70129 -21.1709
v 55.4193 -10.7187 -9.45462
v 55.7531 -10.6334 -9.494
v 50.5922 -11.2578 -8.89349
v 48.3306 -12.1378 -8.57405
v 45.173 -13.3491 -8.17616
# 28 vertices

vt 0.84476 0.11698
vt 0.85606 0.10499
vt 0.85507 0.11501
vt 0.82451 0.08923
vt 0.83540 0.09067
vt 0.82155 0.10049
vt 0.82042 0.11969
vt 0.84126 0.10073
vt 0.83721 0.11764
vt 0.82591 0.08496
vt 0.85725 0.09688
vt 0.85759 0.07920
vt 0.84970 0.05515
vt 0.83000 0.05986
vt 0.83132 0.05434
vt 0.85607 0.05895
vt 0.85435 0.04527
vt 0.82822 0.07600
vt 0.82891 0.07245
vt 0.85632 0.07087
vt 0.84086 0.05901
vt 0.83474 0.06167
vt 0.83196 0.06055
vt 0.85744 0.06635
vt 0.83497 0.04947
vt 0.85650 0.09899
vt 0.81851 0.11989
vt 0.81925 0.11982
# 28 texture coordinates

vn 0.36206 -0.93212 0.00812197
vn 0.36206 -0.93212 0.00812186
vn 0.359505 -0.933058 0.0125846
vn 0.226169 -0.936764 -0.267059
vn 0.228375 -0.945986 -0.230119
vn 0.234322 -0.967929 -0.0905917
vn 0.183392 -0.982552 0.0309682
vn 0.304652 -0.952463 -0.000794649
vn 0.246682 -0.966533 0.0704467
vn 0.181192 -0.910266 -0.372272
vn 0.307953 -0.942197 -0.132018
vn 0.121445 -0.849674 -0.513132
vn -0.0568255 -0.359673 -0.931347
vn -0.00252688 -0.551499 -0.834172
vn -0.0398078 -0.0897805 -0.995166
vn -0.029356 -0.612236 -0.79013
vn -0.142345 -0.230342 -0.962642
vn 0.140447 -0.871951 -0.469016
vn 0.024575 -0.647749 -0.761457
vn 0.0245119 -0.648984 -0.760407
vn 0.0330444 -0.737597 -0.674433
vn 0.0263402 -0.661076 -0.749857
vn 0.03861 -0.76063 -0.648036
vn -0.00113238 -0.536858 -0.843672
vn -0.0429568 -0.101416 -0.993916
vn 0.363803 -0.931415 0.0106927
vn 0.219198 -0.974197 -0.0537893
vn 0.229063 -0.971372 -0.06298
# 28 vertex normals

usemtl Default
f 28/3/3 19/2/2 27/1/1
f 6/6/6 4/5/5 7/4/4
f 26/9/9 5/8/8 24/7/7
f 7/4/4 4/5/5 8/10/10
f 3/12/12 4/5/5 21/11/11
f 15/15/15 14/14/14 2/13/13
f 1/17/17 2/13/13 16/16/16
f 4/5/5 3/12/12 9/18/18
f 9/18/18 8/10/10 4/5/5
f 9/18/18 3/12/12 10/19/19
f 10/19/19 3/12/12 22/20/20
f 16/16/16 2/13/13 12/21/21
f 13/23/23 11/22/22 12/21/21
f 13/23/23 12/21/21 14/14/14
f 12/21/21 11/22/22 16/16/16
f 11/22/22 23/24/24 16/16/16
f 2/13/13 1/17/17 17/25/25
f 17/25/25 15/15/15 2/13/13
f 20/26/26 5/8/8 19/2/2
f 21/11/11 5/8/8 20/26/26
f 21/11/11 4/5/5 5/8/8
f 23/24/24 10/19/19 22/20/20
f 23/24/24 11/22/22 10/19/19
f 25/28/28 6/6/6 18/27/27
f 5/8/8 4/5/5 25/28/28
f 25/28/28 4/5/5 6/6/6
f 25/28/28 24/7/7 5/8/8
f 27/1/1 5/8/8 26/9/9
f 27/1/1 19/2/2 5/8/8
f 12/21/21 2/13/13 14/14/14
# 30 facets

