#  ==========================================================================
#  
#  Wavefront OBJ format exported by Red-i Productions' "Riptide Pro"
#     (a commercial plugin for Cinema 4D PC & Mac, R9.6 or later)
#  
#  Red-i Productions
#  http://skinprops.com
#  
#  ==========================================================================
mtllib HAND_new_73.mtl
v 10.2973 -16.1948 -9.87303
v 19.6148 -14.2064 -6.00715
v 14.7476 -13.5423 -12.7549
v 7.36842 -10.5617 -17.3029
v 11.7413 -17.329 -4.96774
v 12.6647 -5.09783 -18.2401
v 19.0963 -13.6859 -11.4553
v 15.1103 -10.133 -15.5871
v 18.7528 -9.58576 -16.6824
v 18.7678 -5.78907 -17.506
v 19.6407 -14.616 -4.32903
v 5.13089 -11.5655 -16.4743
v 5.16662 -10.2549 -17.9671
v 5.22608 -8.02861 -19.1611
v 5.18463 -9.58177 -18.3612
v 4.96238 -17.725 -8.83982
v 4.94715 -18.2453 -7.10895
v 4.9504 -18.6178 -5.52911
v 5.15992 -5.03133 -20.1325
v 5.05519 -14.3344 -13.0943
v 5.08534 -13.2355 -14.5485
# 21 vertices

vt 0.73418 0.66741
vt 0.73504 0.66836
vt 0.71339 0.68460
vt 0.74529 0.74004
vt 0.74281 0.71808
vt 0.75132 0.71883
vt 0.92345 0.06536
vt 0.92880 0.07134
vt 0.92771 0.08370
vt 0.71683 0.73876
vt 0.72185 0.73308
vt 0.71820 0.74095
vt 0.73420 0.70599
vt 0.71537 0.70149
vt 0.71324 0.73289
vt 0.69094 0.69201
vt 0.69419 0.69890
vt 0.75953 0.72335
vt 0.75504 0.73135
vt 0.74463 0.69665
vt 0.69659 0.70427
vt 0.70596 0.72035
vt 0.72151 0.74601
vt 0.70886 0.72562
vt 0.72534 0.75301
# 25 texture coordinates

vn 0.332705 -0.914952 -0.228407
vn 0.245721 -0.939197 -0.239853
vn 0.266553 -0.9283 -0.259247
vn 0.102959 -0.35371 -0.929671
vn 0.108067 -0.581786 -0.80613
vn -0.0507571 -0.53161 -0.845467
vn 0.0460949 -0.856894 -0.513428
vn 0.141342 -0.633227 -0.760951
vn 0.170673 -0.599219 -0.782181
vn 0.201256 -0.476049 -0.85608
vn 0.140399 -0.809932 -0.569472
vn 0.213425 -0.888187 -0.406907
vn 0.095716 -0.751834 -0.652368
vn 0.199609 -0.953634 -0.225253
vn 0.209493 -0.942191 -0.261512
vn 0.0930968 -0.211418 -0.972952
vn 0.162077 -0.874176 -0.457764
vn 0.0918986 -0.790201 -0.605918
vn 0.229493 -0.388929 -0.892226
vn 0.0915012 -0.774842 -0.625497
vn 0.231135 -0.295348 -0.927009
# 21 vertex normals

usemtl Mat
f 5/3/3 2/2/2 11/1/1
f 9/6/6 8/5/5 6/4/4
f 7/9/7 8/8/5 9/7/6
f 15/12/10 4/11/9 13/10/8
f 1/14/12 3/13/11 2/2/2
f 13/10/8 4/11/9 12/15/13
f 17/17/15 5/3/3 18/16/14
f 6/19/4 10/18/16 9/6/6
f 2/2/2 5/3/3 1/14/12
f 3/13/11 7/20/7 2/2/2
f 20/22/18 1/14/12 16/21/17
f 4/11/9 8/5/5 3/13/11
f 8/5/5 7/20/7 3/13/11
f 14/23/19 4/11/9 15/12/10
f 1/14/12 5/3/3 17/17/15
f 6/4/4 8/5/5 14/23/19
f 3/13/11 1/14/12 20/22/18
f 12/15/13 3/13/11 21/24/20
f 17/17/15 16/21/17 1/14/12
f 20/22/18 21/24/20 3/13/11
f 12/15/13 4/11/9 3/13/11
f 14/23/19 8/5/5 4/11/9
f 14/23/19 19/25/21 6/4/4
# 23 facets

