# 25 vertices
v 1.55123 -18.7033 -8.17919
v -9.46443 -8.21665 -22.3809
v -1.6853 -4.97876 -21.8573
v 1.65151 -13.1264 -15.1859
v 5.13089 -11.5655 -16.4743
v 5.16662 -10.2549 -17.9671
v 5.22608 -8.02861 -19.1611
v 5.18463 -9.58177 -18.3612
v 4.96238 -17.725 -8.83982
v 4.94715 -18.2453 -7.10895
v 4.9504 -18.6178 -5.52911
v 5.15992 -5.03133 -20.1325
v 5.05519 -14.3344 -13.0943
v 5.08534 -13.2355 -14.5485
v -10.3355 -8.23323 -22.516
v -10.3296 -8.56149 -22.2094
v -10.2253 -15.2812 -15.2971
v -10.2482 -13.6321 -17.0904
v -10.4691 -5.46991 -23.6981
v -10.3428 -7.95148 -22.7007
v -10.1681 -19.0974 -11.2982
v -10.1612 -19.8628 -10.3302
v -10.2028 -20.8515 -7.27239
v -4.78719 -20.1488 -6.79652
v -3.86572 -20.0858 -6.65049
# 26 texture coordinates
vt 0.66213 0.74798
vt 0.69985 0.73260
vt 0.66695 0.75587
vt 0.72151 0.74601
vt 0.70714 0.76485
vt 0.71820 0.74095
vt 0.68351 0.77651
vt 0.68122 0.77832
vt 0.68030 0.77693
vt 0.71324 0.73289
vt 0.70886 0.72562
vt 0.72534 0.75301
vt 0.68090 0.78041
vt 0.65157 0.73080
vt 0.69659 0.70427
vt 0.68459 0.70605
vt 0.69419 0.69890
vt 0.70596 0.72035
vt 0.71683 0.73876
vt 0.68277 0.77840
vt 0.64953 0.72711
vt 0.69094 0.69201
vt 0.66380 0.70722
vt 0.66162 0.70853
vt 0.68953 0.78079
vt 0.64460 0.71645
# 25 vertex normals
vn 0.137328 -0.721943 -0.678188
vn 0.123139 -0.74858 -0.65151
vn 0.139972 -0.715271 -0.684686
vn 0.187204 -0.377502 -0.906889
vn 0.18672 -0.39546 -0.899304
vn 0.119924 -0.480752 -0.868617
vn 0.149421 -0.60665 -0.7808
vn 0.132652 -0.61049 -0.780837
vn 0.136178 -0.693578 -0.707393
vn 0.0945526 -0.750575 -0.653985
vn 0.0915013 -0.774842 -0.625497
vn 0.231299 -0.295332 -0.926973
vn 0.18943 -0.424946 -0.885176
vn 0.171116 -0.752674 -0.635768
vn 0.142956 -0.845647 -0.514243
vn 0.172291 -0.894406 -0.412738
vn 0.207052 -0.945189 -0.252481
vn 0.094835 -0.787413 -0.609087
vn 0.13939 -0.555168 -0.819975
vn 0.164208 -0.896864 -0.410696
vn 0.192989 -0.956983 -0.216654
vn 0.155832 -0.941399 -0.299139
vn 0.140568 -0.933088 -0.331041
vn 0.210719 -0.355301 -0.910691
vn 0.148737 -0.941507 -0.302393
# 26 facets
f 18/3/3 4/2/2 17/1/1
f 8/6/6 3/5/5 7/4/4
f 16/9/9 15/8/8 2/7/7
f 14/11/11 4/2/2 5/10/10
f 12/12/12 7/4/4 3/5/5
f 20/13/13 2/7/7 15/8/8
f 17/1/1 4/2/2 21/14/14
f 10/17/17 1/16/16 9/15/15
f 14/11/11 13/18/18 4/2/2
f 5/10/10 2/7/7 6/19/19
f 6/19/19 2/7/7 3/5/5
f 9/15/15 4/2/2 13/18/18
f 16/9/9 4/2/2 18/3/3
f 3/5/5 2/7/7 20/20/13
f 21/14/14 1/16/16 22/21/20
f 1/16/16 10/17/17 11/22/21
f 1/16/16 11/22/21 25/23/22
f 9/15/15 1/16/16 4/2/2
f 5/10/10 4/2/2 2/7/7
f 25/23/22 24/24/23 1/16/16
f 20/20/13 19/25/24 3/5/5
f 16/9/9 2/7/7 4/2/2
f 21/14/14 4/2/2 1/16/16
f 22/21/20 1/16/16 24/24/23
f 24/24/23 23/26/25 22/21/20
f 3/5/5 8/6/6 6/19/19
