# 21 vertices
v -18.3697 -22.7157 -0.865472
v -26.1322 -24.4849 -10.9807
v -13.3143 -22.0933 -4.93642
v -10.3819 -19.608 0.947988
v -10.3791 -20.2976 -1.82046
v -10.2721 -21.3689 -3.96185
v -10.2464 -21.5631 -4.57844
v -10.2387 -21.5085 -4.94027
v -10.2253 -21.3889 -5.61024
v -28.1563 -26.9143 -3.01646
v -28.2892 -26.6209 -1.87165
v -27.5632 -25.1667 -10.6484
v -27.7443 -26.4512 -7.69746
v -27.5428 -24.8566 -11.1171
v -27.5307 -24.5423 -11.5033
v -10.2028 -20.8515 -7.27239
v -11.7478 -20.9851 -7.61612
v -25.7652 -24.2609 -11.0885
v -12.6805 -21.0658 -7.82361
v -26.1874 -24.3282 -11.1877
v -25.2059 -24.1931 -10.9607
# 21 texture coordinates
vt 0.63072 0.71187
vt 0.64046 0.70742
vt 0.64087 0.70852
vt 0.63813 0.69677
vt 0.63995 0.70525
vt 0.58906 0.74668
vt 0.59455 0.74630
vt 0.59011 0.74803
vt 0.59096 0.74932
vt 0.58419 0.73672
vt 0.57818 0.72359
vt 0.59614 0.74638
vt 0.59779 0.74526
vt 0.64191 0.71066
vt 0.63520 0.68631
vt 0.63733 0.72124
vt 0.64007 0.71944
vt 0.57666 0.71950
vt 0.60966 0.70316
vt 0.59490 0.74709
vt 0.64460 0.71645
# 21 vertex normals
vn 0.251641 -0.966248 -0.0551545
vn 0.160406 -0.983638 0.0820176
vn 0.184324 -0.970391 -0.156094
vn 0.196431 -0.91816 0.344088
vn 0.0984016 -0.920858 0.377277
vn 0.310679 -0.854711 -0.415869
vn 0.277142 -0.800831 -0.530907
vn 0.260899 -0.782495 -0.565362
vn 0.260583 -0.743726 -0.615604
vn 0.319925 -0.922498 -0.215977
vn 0.323585 -0.932647 0.159566
vn 0.250901 -0.721667 -0.645171
vn 0.282549 -0.869258 -0.405656
vn 0.160812 -0.952519 -0.258548
vn 0.311981 -0.920951 0.23349
vn 0.222559 -0.932902 -0.283127
vn 0.148737 -0.941507 -0.302393
vn 0.328877 -0.904935 0.27006
vn 0.320944 -0.910913 0.259293
vn 0.264018 -0.733873 -0.62588
vn 0.148737 -0.941507 -0.302393
# 21 facets
f 8/3/3 7/2/2 3/1/1
f 6/5/5 5/4/4 3/1/1
f 14/8/8 2/7/7 12/6/6
f 15/9/9 2/7/7 14/8/8
f 10/11/11 13/10/10 3/1/1
f 21/13/13 2/7/7 18/12/12
f 8/3/3 3/1/1 9/14/14
f 6/5/5 3/1/1 7/2/2
f 4/15/15 3/1/1 5/4/4
f 17/17/17 3/1/1 19/16/16
f 10/11/11 1/19/19 11/18/18
f 12/6/6 3/1/1 13/10/10
f 4/15/15 1/19/19 3/1/1
f 20/20/20 18/12/12 2/7/7
f 12/6/6 2/7/7 3/1/1
f 10/11/11 3/1/1 1/19/19
f 9/14/14 3/1/1 17/17/17
f 20/20/20 2/7/7 15/9/9
f 3/1/1 2/7/7 21/13/13
f 21/13/13 19/16/16 3/1/1
f 17/17/17 16/21/21 9/14/14
