#  ==========================================================================
#  
#  Wavefront OBJ format exported by Red-i Productions' "Riptide Pro"
#     (a commercial plugin for Cinema 4D PC & Mac, R9.6 or later)
#  
#  Red-i Productions
#  http://skinprops.com
#  
#  ==========================================================================
mtllib HAND_new_46.mtl
v 80.1995 -10.3504 -35.3055
v 86.4448 -11.5256 -37.9524
v 89.5502 -7.73941 -32.4301
v 83.1377 -11.8722 -34.1866
v 79.6247 -8.85327 -28.8018
v 87.8029 -11.8988 -36.5241
v 90.4398 -8.55511 -33.2362
v 82.3711 -8.50803 -38.1573
v 89.7096 -10.2337 -34.2961
v 77.1999 -9.40265 -32.267
v 82.0509 -10.8587 -30.9374
v 85.6447 -10.8968 -32.2691
v 81.517 -7.60625 -26.7709
v 85.6382 -10.3674 -39.1221
v 80.1393 -10.9741 -31.8907
v 78.6288 -5.30065 -35.1817
v 85.108 -7.02566 -39.9906
v 76.1193 -4.87854 -33.6567
v 76.0901 -5.71444 -33.698
v 76.1178 -7.34102 -33.7553
v 76.4651 -8.49718 -33.2912
v 82.3407 -5.82035 -26.3657
v 85.1194 -8.48761 -39.9284
v 90.5477 -7.984 -33.2084
# 24 vertices

vt 0.70882 0.04467
vt 0.71785 0.04081
vt 0.71771 0.05068
vt 0.70242 0.05127
vt 0.71286 0.05399
vt 0.71592 0.07084
vt 0.73372 0.05383
vt 0.72339 0.06313
vt 0.98932 0.90094
vt 0.98918 0.91421
vt 0.97971 0.89284
vt 0.68817 0.06081
vt 0.68608 0.05315
vt 0.68924 0.04713
vt 0.69412 0.03789
vt 0.69839 0.03358
vt 0.70190 0.02954
vt 0.98038 0.88877
vt 0.97749 0.88551
vt 0.72392 0.03591
vt 0.98288 0.88683
vt 0.98619 0.89354
vt 0.73821 0.04513
vt 0.73224 0.04547
vt 0.71127 0.07579
vt 0.70802 0.02608
vt 0.70967 0.02776
vt 0.99336 0.91227
vt 0.99363 0.91370
vt 0.67487 0.05049
vt 0.67405 0.04874
# 31 texture coordinates

vn -0.128628 -0.991609 0.0128915
vn -0.457289 -0.769133 -0.446453
vn -0.262714 -0.94355 0.201731
vn 0.241046 -0.850781 0.466978
vn -0.0255 -0.878292 0.477445
vn 0.343552 -0.582881 0.736357
vn -0.516482 -0.856272 -0.00668268
vn -0.271336 -0.802011 0.532124
vn -0.558942 -0.21302 -0.801378
vn -0.562541 0.016331 -0.826608
vn -0.540166 0.0666836 -0.838912
vn 0.560977 -0.248447 0.78967
vn 0.51744 -0.395217 0.758986
vn 0.387151 -0.75485 0.529449
vn 0.00336744 -0.999437 0.0333944
vn -0.2967 -0.907572 -0.297124
vn -0.454718 -0.588553 -0.668459
vn -0.509129 0.0410088 -0.859713
vn -0.510968 0.060283 -0.857484
vn -0.576983 -0.189005 -0.794586
vn -0.58639 -0.635047 -0.502854
vn 0.520711 -0.410083 0.748794
vn -0.522734 -0.253039 -0.814076
vn 0.585186 -0.149361 0.797025
# 24 vertex normals

usemtl Default
f 15/3/3 1/2/2 4/1/1
f 13/6/6 11/5/5 12/4/4
f 15/3/3 10/7/7 1/2/2
f 11/5/5 15/3/3 12/4/4
f 15/3/3 4/1/1 12/4/4
f 5/8/8 11/5/5 13/6/6
f 16/11/11 17/10/10 8/9/9
f 13/6/6 7/13/13 3/12/12
f 12/4/4 6/15/15 9/14/14
f 7/13/13 13/6/6 12/4/4
f 4/1/1 1/2/2 6/15/15
f 5/8/8 15/3/3 11/5/5
f 12/4/4 4/1/1 6/15/15
f 6/15/15 1/2/2 2/16/16
f 2/16/16 1/2/2 14/17/17
f 12/4/4 9/14/14 7/13/13
f 15/3/3 5/8/8 10/7/7
f 18/19/19 16/11/11 19/18/18
f 14/17/17 1/2/2 8/20/9
f 16/11/11 8/22/9 20/21/20
f 20/21/20 19/18/18 16/11/11
f 20/23/20 8/20/9 1/2/2
f 21/24/21 1/2/2 10/7/7
f 13/6/6 3/12/12 22/25/22
f 14/17/17 8/27/9 23/26/23
f 23/29/23 8/28/9 17/10/10
f 24/31/24 3/30/12 7/13/13
f 1/2/2 21/24/21 20/23/20
# 28 facets

