#  ==========================================================================
#  
#  Wavefront OBJ format exported by Red-i Productions' "Riptide Pro"
#     (a commercial plugin for Cinema 4D PC & Mac, R9.6 or later)
#  
#  Red-i Productions
#  http://skinprops.com
#  
#  ==========================================================================
mtllib HAND_new_60.mtl
v 29.2549 9.54883 -5.93831
v 29.9699 9.75815 0.739819
v 24.539 9.50262 -4.50444
v 25.094 9.62434 1.15306
v 19.4406 10.8339 1.77176
v 19.3382 10.9125 -1.91279
v 19.0731 10.6296 -6.83799
v 19.1306 10.8459 -4.48732
v 24.3316 9.19453 -5.73556
# 9 vertices

vt 0.94270 0.68705
vt 0.95745 0.69619
vt 0.92859 0.70841
vt 0.75093 0.46671
vt 0.76037 0.47468
vt 0.74788 0.47497
vt 0.94661 0.72161
vt 0.95980 0.69807
vt 0.74996 0.45270
vt 0.76256 0.45800
vt 0.75201 0.45911
vt 0.95823 0.68973
vt 0.95261 0.67973
vt 0.95603 0.68219
vt 0.76278 0.45659
# 15 texture coordinates

vn 0.166909 0.985697 -0.023308
vn 0.112038 0.98666 -0.118106
vn -0.0238585 0.999427 -0.0239893
vn 0.225843 0.974052 -0.0147459
vn 0.210757 0.977423 0.0149924
vn -0.0492585 0.990277 -0.130093
vn 0.116081 0.958745 -0.259486
vn 0.274714 0.942955 -0.188062
vn 0.240411 0.968737 -0.0612507
# 9 vertex normals

usemtl Default
f 2/3/3 3/2/2 4/1/1
f 5/6/5 4/5/1 6/4/4
f 9/8/7 3/2/2 1/7/6
f 8/11/9 3/10/2 7/9/8
f 2/3/3 1/7/6 3/2/2
f 6/14/4 4/13/1 8/12/9
f 4/13/1 3/2/2 8/12/9
f 7/9/8 3/10/2 9/15/7
# 8 facets

