#  ==========================================================================
#  
#  Wavefront OBJ format exported by Red-i Productions' "Riptide Pro"
#     (a commercial plugin for Cinema 4D PC & Mac, R9.6 or later)
#  
#  Red-i Productions
#  http://skinprops.com
#  
#  ==========================================================================
mtllib HAND_new_121.mtl
v -91.5475 -16.3548 25.2895
v -96.9514 -2.50162 18.0476
v -90.0515 -5.94499 20.3676
v -86.2539 -11.7183 20.984
v -90.9322 -0.102686 15.3046
v -95.6022 -6.5193 22.4681
v -103.113 3.01701 11.5965
v -91.9449 -9.72396 22.9394
v -100.726 -3.84355 20.5493
v -90.7263 4.04328 11.7992
v -86.2046 -11.6953 20.9726
v -86.1425 -12.3264 20.9096
v -91.3969 9.51244 8.46107
v -90.0109 4.16691 11.979
v -89.9058 3.65426 12.185
v -88.711 -0.273909 15.6004
v -87.393 -4.58465 19.3809
v -86.9758 -6.7849 20.1064
v -105.113 -3.96273 23.7546
v -104.405 -4.85743 25.0736
v -109.998 1.28451 14.5864
v -107.456 -1.65596 19.34
v -107.088 -2.26674 20.0141
v -101.007 -12.567 31.1336
v -100.58 -15.3622 31.7503
v -103.118 -6.4813 27.4695
v -101.729 -9.80146 29.9344
v -101.299 -10.9114 30.6899
v -102.536 -7.66645 28.5181
v -112.27 3.49999 10.3037
v -110.299 1.74064 14.0305
v -85.737 -16.147 20.6672
v -113.269 4.0265 8.38476
v -93.6553 8.43389 8.28432
v -102.846 6.67977 8.43396
v -104.386 6.46449 8.485
v -110.308 4.04282 8.15556
# 37 vertices

vt 0.34017 0.52958
vt 0.37050 0.52024
vt 0.34056 0.53941
vt 0.33949 0.52350
vt 0.33392 0.55024
vt 0.35298 0.55527
vt 0.32320 0.56123
vt 0.33844 0.50537
vt 0.35694 0.50189
vt 0.33881 0.51150
vt 0.33586 0.46245
vt 0.37340 0.49662
vt 0.33721 0.48516
vt 0.39497 0.54346
vt 0.38100 0.53625
vt 0.39208 0.52007
vt 0.39778 0.49011
vt 0.36374 0.45884
vt 0.40525 0.47047
vt 0.40196 0.52586
vt 0.40280 0.51592
vt 0.37229 0.44191
vt 0.40365 0.44765
vt 0.40765 0.47091
vt 0.40732 0.47316
vt 0.33579 0.45952
vt 0.33418 0.44281
vt 0.38837 0.55608
vt 0.33726 0.48888
vt 0.36726 0.64144
vt 0.38271 0.64332
vt 0.38303 0.65491
vt 0.40481 0.49315
vt 0.41239 0.44606
vt 0.39520 0.54343
vt 0.34074 0.54519
vt 0.38253 0.64138
vt 0.36695 0.44088
vt 0.34361 0.43721
vt 0.33322 0.43444
# 40 texture coordinates

vn 0.429564 0.659088 0.617314
vn 0.317841 0.716053 0.621486
vn 0.458509 0.611364 0.644984
vn 0.342815 0.789432 0.50919
vn 0.583449 0.281911 0.761652
vn 0.574186 0.206968 0.792133
vn 0.580588 0.258887 0.771943
vn 0.246739 0.895238 0.371037
vn 0.217297 0.843489 0.491231
vn 0.288182 0.857356 0.426488
vn 0.0978994 0.833895 0.54317
vn 0.103814 0.772346 0.626661
vn 0.133961 0.82496 0.549085
vn 0.405263 0.230856 0.884572
vn 0.439794 0.450998 0.776648
vn 0.171276 0.465262 0.868444
vn -0.0244281 0.670061 0.741904
vn -0.0435293 0.812279 0.581643
vn -0.142247 0.572399 0.807543
vn 0.153431 0.265947 0.951699
vn 0.0234452 0.556539 0.830491
vn -0.0822897 0.618847 0.781189
vn -0.195461 0.530128 0.825081
vn -0.287285 0.391556 0.874157
vn -0.170621 0.488646 0.855636
vn 0.0402686 0.831079 0.554695
vn 0.0005321 0.937995 0.346647
vn 0.162503 0.834435 0.526604
vn 0.621724 0.017195 0.783048
vn 0.622111 0.0163604 0.782758
vn -0.0513413 0.64741 0.760411
vn -0.290676 0.472268 0.832148
vn 0.135129 0.192657 0.971917
vn 0.549967 0.412855 0.726008
vn -0.138871 0.63476 0.760128
vn -0.142195 0.827027 0.543881
vn 0.0146059 0.96617 0.257492
# 37 vertex normals

usemtl Mat
f 27/3/3 6/2/2 29/1/1
f 26/4/4 29/1/1 6/2/2
f 25/7/7 1/6/6 24/5/5
f 20/10/10 9/9/9 19/8/8
f 22/13/13 2/12/12 21/11/11
f 2/12/12 9/9/9 6/2/2
f 3/16/16 8/15/15 4/14/14
f 7/18/18 2/12/12 5/17/17
f 5/17/17 10/19/19 7/18/18
f 2/12/12 3/16/16 5/17/17
f 17/21/21 3/16/16 18/20/20
f 34/23/23 35/22/22 10/19/19
f 15/25/25 14/24/24 10/19/19
f 30/27/27 31/26/26 7/18/18
f 3/16/16 6/2/2 8/15/15
f 1/28/6 4/14/14 8/15/15
f 3/16/16 2/12/12 6/2/2
f 19/8/8 9/9/9 23/29/28
f 32/32/30 12/31/29 1/30/6
f 10/19/19 5/17/17 16/33/31
f 5/17/17 3/16/16 17/21/21
f 13/34/32 10/19/19 14/24/24
f 3/16/16 4/14/14 11/35/33
f 23/29/28 2/12/12 22/13/13
f 6/2/2 9/9/9 20/10/10
f 8/15/15 6/2/2 27/3/3
f 1/6/6 8/15/15 28/36/34
f 2/12/12 7/18/18 31/26/26
f 12/31/29 4/37/14 1/30/6
f 11/35/33 18/20/20 3/16/16
f 17/21/21 16/33/31 5/17/17
f 16/33/31 15/25/25 10/19/19
f 13/34/32 34/23/23 10/19/19
f 37/39/36 7/18/18 36/38/35
f 31/26/26 21/11/11 2/12/12
f 23/29/28 9/9/9 2/12/12
f 20/10/10 26/4/4 6/2/2
f 27/3/3 28/36/34 8/15/15
f 28/36/34 24/5/5 1/6/6
f 36/38/35 10/19/19 35/22/22
f 33/40/37 7/18/18 37/39/36
f 36/38/35 7/18/18 10/19/19
f 33/40/37 30/27/27 7/18/18
# 43 facets

