# 24 vertices
v 56.5672 -5.24355 26.3746
v 59.824 -10.8781 15.1906
v 58.9682 -8.41019 23.808
v 70.0474 -12.2903 13.1036
v 63.3492 -4.11106 22.9154
v 68.8993 -10.0988 19.8785
v 63.8044 -7.7698 22.073
v 67.283 -12.3457 14.5922
v 62.9807 -10.7318 18.9827
v 69.6824 -11.5843 15.5956
v 68.9642 -10.1804 18.7955
v 68.1608 -7.93544 21.6248
v 67.9905 -6.9419 22.2023
v 67.7676 -4.97349 22.6552
v 67.6871 -3.5377 22.8731
v 69.9074 -12.0912 8.72447
v 59.8179 -10.9596 16.9744
v 59.7041 -10.6572 19.9602
v 58.1483 -5.79546 25.4348
v 57.9647 -5.01019 25.6618
v 68.5589 -12.088 8.78526
v 66.0579 -11.4838 9.0062
v 64.2286 -11.1285 9.19553
v 59.3559 -10.3376 9.91443
# 29 texture coordinates
vt 0.83751 0.22230
vt 0.84290 0.23463
vt 0.82537 0.22323
vt 0.79430 0.21361
vt 0.80542 0.21443
vt 0.79947 0.22230
vt 0.77438 0.74584
vt 0.78387 0.73506
vt 0.77731 0.74772
vt 0.82730 0.23827
vt 0.81407 0.24324
vt 0.80849 0.23475
vt 0.82630 0.18852
vt 0.83100 0.20657
vt 0.80863 0.19201
vt 0.78614 0.71334
vt 0.78843 0.71104
vt 0.78749 0.71599
vt 0.77934 0.71373
vt 0.80230 0.19380
vt 0.79302 0.19599
vt 0.83360 0.21206
vt 0.81671 0.24569
vt 0.80606 0.23238
vt 0.77460 0.73168
vt 0.77763 0.73905
vt 0.77267 0.73721
vt 0.77792 0.72154
vt 0.78854 0.19794
# 24 vertex normals
vn 0.0734958 -0.945048 0.318563
vn 0.300448 -0.618249 0.726292
vn 0.075446 -0.934358 0.348257
vn 0.087519 -0.988188 0.125796
vn -0.0510734 -0.994578 0.0905906
vn 0.125835 -0.915749 0.381536
vn 0.0190496 -0.198045 0.980008
vn 0.251966 -0.168615 0.952934
vn 0.0292477 -0.148361 0.988501
vn 0.166281 -0.465851 0.869099
vn 0.0642162 -0.555193 0.829239
vn 0.0438589 -0.829245 0.557161
vn -0.171886 -0.981418 -0.0852915
vn -0.131209 -0.990827 -0.0323392
vn -0.186054 -0.977853 -0.0958492
vn 0.427763 -0.252414 0.867932
vn 0.416534 -0.279656 0.865039
vn 0.468507 -0.142446 0.8719
vn -0.214067 -0.971381 -0.102926
vn -0.124003 -0.989727 -0.0711628
vn 0.0540214 -0.998144 0.028108
vn 0.0427124 -0.36144 0.931417
vn 0.0966349 -0.96262 0.253029
vn -0.00439362 -0.998964 -0.0452919
# 26 facets
f 9/3/3 3/2/2 18/1/1
f 10/6/6 8/5/5 4/4/4
f 15/9/9 5/8/8 14/7/7
f 6/12/12 12/11/11 7/10/10
f 23/15/15 2/14/14 24/13/13
f 20/18/18 1/17/17 19/16/16
f 3/19/2 19/16/16 1/17/17
f 21/21/20 8/5/5 22/20/19
f 6/12/12 7/10/10 9/3/3
f 17/22/21 9/3/3 18/1/1
f 13/23/22 7/10/10 12/11/11
f 7/10/10 3/2/2 9/3/3
f 9/3/3 2/14/14 8/5/5
f 9/3/3 8/5/5 10/6/6
f 10/6/6 11/24/23 9/3/3
f 6/12/12 9/3/3 11/24/23
f 14/26/7 5/8/8 7/25/10
f 7/25/10 13/27/22 14/26/7
f 2/14/14 9/3/3 17/22/21
f 3/19/2 7/28/10 19/16/16
f 19/16/16 7/28/10 5/8/8
f 5/8/8 20/18/18 19/16/16
f 16/29/24 4/4/4 8/5/5
f 22/20/19 2/14/14 23/15/15
f 22/20/19 8/5/5 2/14/14
f 8/5/5 21/21/20 16/29/24
