#  ==========================================================================
#  
#  Wavefront OBJ format exported by Red-i Productions' "Riptide Pro"
#     (a commercial plugin for Cinema 4D PC & Mac, R9.6 or later)
#  
#  Red-i Productions
#  http://skinprops.com
#  
#  ==========================================================================
mtllib HAND_new_119.mtl
v -113.372 7.61297 -11.7611
v -111.125 6.85846 -16.0239
v -103.914 12.5079 -7.27622
v -100.969 8.3154 -16.1394
v -122.301 6.46898 -9.35949
v -98.881 12.668 -11.1886
v -96.8886 6.48893 -19.114
v -95.854 13.5575 -10.2573
v -96.1724 12.6738 -12.2552
v -96.5022 10.4699 -15.0506
v -96.6953 7.29964 -17.7465
v -95.5596 14.0201 -8.60942
v -119.164 7.08485 -2.93615
v -122.299 6.45442 -9.13534
v -122.486 6.41324 -9.50498
v -124.577 5.21549 -13.7014
v -124.792 4.94895 -14.144
v -124.442 5.36412 -13.423
v -119.959 6.40957 -4.5489
v -94.71 14.2483 -4.4783
v -125.41 3.95477 -15.4341
v -101.226 6.86448 -18.5848
v -103.095 7.19651 -18.3635
v -98.6587 6.6422 -18.898
v -121.699 4.73323 -15.9309
v -108.693 6.63278 -17.6386
v -115.206 5.71897 -16.7849
v -120.836 4.86421 -16.0444
v -97.683 13.7018 -4.48175
v -107.55 11.9974 -4.49176
v -113.59 9.06677 -4.5223
# 31 vertices

vt 0.31557 0.34074
vt 0.36400 0.34348
vt 0.31945 0.35743
vt 0.31980 0.35898
vt 0.31998 0.35816
vt 0.35389 0.35723
vt 0.32425 0.37782
vt 0.38616 0.38351
vt 0.32672 0.33366
vt 0.31476 0.33761
vt 0.31362 0.33124
vt 0.39835 0.34986
vt 0.41286 0.34417
vt 0.41262 0.35986
vt 0.40448 0.37420
vt 0.39834 0.33975
vt 0.39211 0.34049
vt 0.41358 0.37985
vt 0.41334 0.37262
vt 0.41356 0.38572
vt 0.34805 0.38425
vt 0.37262 0.39001
vt 0.40449 0.39664
vt 0.40683 0.33902
vt 0.34923 0.33629
vt 0.31509 0.33947
vt 0.32971 0.33401
vt 0.32610 0.38468
vt 0.41269 0.33851
vt 0.37290 0.33934
vt 0.41398 0.39888
# 31 texture coordinates

vn -0.16289 0.94224 -0.292662
vn -0.159983 0.93844 -0.306165
vn -0.145615 0.971423 -0.187439
vn -0.109436 0.991831 0.0655369
vn -0.151075 0.97971 -0.1317
vn -0.217081 0.950891 -0.220641
vn -0.314532 0.940248 -0.130396
vn -0.281314 0.937356 -0.205491
vn -0.216507 0.851454 -0.477651
vn -0.208037 0.860986 -0.464137
vn -0.241433 0.821139 -0.517147
vn -0.0987076 0.851271 -0.515359
vn -0.0593231 0.765007 -0.641284
vn -0.198915 0.738174 -0.644618
vn -0.231365 0.858992 -0.456732
vn 0.051254 0.856511 -0.513577
vn -0.0621272 0.91418 -0.400518
vn -0.190201 0.940843 -0.280424
vn -0.193402 0.852018 -0.486478
vn -0.191072 0.977585 -0.088423
vn -0.392119 0.874704 -0.284842
vn -0.332574 0.904021 -0.268591
vn -0.177188 0.983852 -0.0252839
vn 0.0120373 0.859396 -0.511169
vn -0.18247 0.894314 -0.408542
vn -0.184599 0.890609 -0.415619
vn -0.19091 0.879131 -0.436672
vn -0.392119 0.874704 -0.284842
vn 0.0120374 0.859396 -0.511169
vn -0.157928 0.917117 -0.365998
vn -0.180746 0.98338 -0.0171477
# 31 vertex normals

usemtl Mat
f 15/3/3 2/2/2 18/1/1
f 1/6/6 5/5/5 14/4/4
f 3/8/8 1/6/6 19/7/7
f 1/6/6 2/2/2 5/5/5
f 21/11/11 17/10/10 25/9/9
f 10/14/14 11/13/13 4/12/12
f 1/6/6 4/12/12 2/2/2
f 6/15/15 4/12/12 1/6/6
f 23/17/17 4/12/12 22/16/16
f 9/19/19 6/15/15 8/18/18
f 1/6/6 3/8/8 6/15/15
f 10/14/14 6/15/15 9/19/19
f 8/18/18 3/8/8 12/20/20
f 30/22/22 3/8/8 31/21/21
f 29/23/23 3/8/8 30/22/22
f 8/18/18 6/15/15 3/8/8
f 10/14/14 4/12/12 6/15/15
f 24/24/24 22/16/16 4/12/12
f 28/27/27 16/26/26 27/25/25
f 16/26/26 18/1/1 2/2/2
f 15/3/3 5/5/5 2/2/2
f 14/4/4 19/7/7 1/6/6
f 19/7/7 13/28/28 31/21/21
f 24/24/24 4/12/12 11/13/13 7/29/29
f 2/2/2 4/12/12 23/17/17
f 27/25/25 2/2/2 26/30/30
f 17/10/10 16/26/26 28/27/27
f 23/17/17 26/30/30 2/2/2
f 27/25/25 16/26/26 2/2/2
f 28/27/27 25/9/9 17/10/10
f 12/20/20 3/8/8 29/23/23
f 31/21/21 3/8/8 19/7/7
f 29/23/23 20/31/31 12/20/20
f 30/22/22 31/21/21 13/28/28
# 34 facets

