# 24 vertices
v 37.9577 -12.5178 40.595
v 42.5612 -14.9901 38.8039
v 38.3875 -14.6674 37.3649
v 41.4945 -8.22306 44.9868
v 43.3934 -10.2035 48.9087
v 47.0376 -14.4669 41.5982
v 42.3575 -8.54827 47.2437
v 42.5014 -11.9977 45.2056
v 50.5068 -7.10935 32.7357
v 44.5439 -14.0388 31.199
v 44.9035 -12.3482 47.8411
v 51.4477 -9.70615 39.1868
v 47.881 -11.5488 31.4247
v 37.6962 -7.42266 41.4314
v 48.6286 -13.6968 45.3048
v 46.9283 -13.6832 46.5194
v 51.3067 -12.673 43.7702
v 48.9514 -11.4217 35.0427
v 41.013 -14.8883 33.9012
v 50.7715 -7.88789 37.6948
v 53.3851 -7.97242 42.7431
v 53.3309 -8.99665 42.7447
v 53.352 -9.8549 42.7582
v 43.6881 -8.71063 49.0512
# 31 texture coordinates
vt 0.92899 0.24790
vt 0.92814 0.28493
vt 0.91737 0.28655
vt 0.91868 0.25804
vt 0.91637 0.23570
vt 0.88245 0.26533
vt 0.87884 0.25548
vt 0.89094 0.25732
vt 0.90967 0.27282
vt 0.90087 0.23827
vt 0.93169 0.27868
vt 0.94531 0.26307
vt 0.93972 0.27830
vt 0.93759 0.25759
vt 0.88621 0.27094
vt 0.89907 0.28685
vt 0.93617 0.28981
vt 0.94143 0.28659
vt 0.88661 0.28217
vt 0.90887 0.28800
vt 0.88861 0.24464
vt 0.87661 0.25251
vt 0.75863 0.65539
vt 0.76593 0.66319
vt 0.76367 0.66165
vt 0.78317 0.68028
vt 0.77420 0.67121
vt 0.77888 0.66967
vt 0.76157 0.65515
vt 0.77507 0.66597
vt 0.93920 0.29419
# 24 vertex normals
vn -0.259753 -0.923421 0.282528
vn -0.587331 -0.586121 0.558126
vn -0.135501 -0.95606 0.25998
vn -0.00358113 -0.994437 0.105275
vn 0.0853414 -0.995101 -0.0499004
vn 0.910129 -0.228589 -0.34556
vn 0.959289 -0.201413 -0.197985
vn 0.767715 -0.586588 -0.257929
vn 0.231747 -0.972716 -0.0107764
vn 0.480864 -0.860676 -0.167353
vn -0.766231 -0.203474 0.609498
vn -0.693893 -0.14733 0.704845
vn -0.861346 -0.214012 0.46074
vn -0.687615 -0.261905 0.677194
vn 0.617703 -0.754527 -0.221656
vn -0.851326 -0.273032 0.447993
vn -0.880421 -0.0810095 0.467222
vn 0.82827 -0.326686 -0.455243
vn 0.147689 -0.981241 0.123914
vn 0.750379 -0.63007 -0.199858
vn 0.885719 -0.026975 -0.463438
vn 0.943683 0.0896199 -0.31848
vn 0.886717 -0.0475777 -0.459857
vn -0.796935 0.100428 0.595659
# 27 facets
f 16/3/3 11/2/2 3/1/1
f 16/3/3 3/1/1 2/4/4
f 19/5/5 2/4/4 3/1/1
f 18/8/8 9/7/7 12/6/6
f 19/5/5 6/9/9 2/4/4
f 19/5/5 10/10/10 6/9/9
f 4/13/13 14/12/12 8/11/11
f 14/12/12 1/14/14 8/11/11
f 17/16/15 18/8/8 12/15/6
f 11/2/2 5/17/16 8/11/11
f 5/17/16 7/18/17 4/13/13
f 23/19/18 17/16/15 12/15/6
f 3/1/1 11/2/2 1/14/14
f 15/20/19 6/9/9 17/16/15
f 10/10/10 17/16/15 6/9/9
f 15/20/19 16/3/3 2/4/4
f 8/11/11 1/14/14 11/2/2
f 6/9/9 15/20/19 2/4/4
f 10/10/10 13/21/20 18/8/8
f 5/17/16 4/13/13 8/11/11
f 18/8/8 13/21/20 9/22/7
f 10/10/10 18/8/8 17/16/15
f 23/25/18 12/24/6 22/23/21
f 20/28/22 12/27/6 9/26/7
f 22/23/21 20/30/22 21/29/23
f 22/23/21 12/24/6 20/30/22
f 24/31/24 7/18/17 5/17/16
