#  ==========================================================================
#  
#  Wavefront OBJ format exported by Red-i Productions' "Riptide Pro"
#     (a commercial plugin for Cinema 4D PC & Mac, R9.6 or later)
#  
#  Red-i Productions
#  http://skinprops.com
#  
#  ==========================================================================
mtllib HAND_new_43.mtl
v 110.235 -2.27296 -14.0511
v 110.337 -4.04446 -10.5455
v 117.396 -6.41099 -12.4348
v 118.458 -6.54787 -14.6343
v 114.235 -6.00145 -10.6397
v 104.58 -2.00873 -17.0798
v 117.915 -6.59377 -17.0908
v 113.036 -5.36451 -19.0282
v 118.29 -7.90097 -15.8961
v 116.437 -4.70062 -12.7678
v 105.329 -1.30368 -11.9139
v 107.325 -6.65869 -18.5934
v 108.348 -6.22485 -9.5326
v 110.748 -3.03184 -16.2305
v 104.723 -1.11369 -15.9965
v 116.789 -7.5874 -11.8348
v 117.916 -7.75867 -13.4375
v 115.748 -4.83446 -17.8117
v 110.797 -2.95383 -12.3545
v 105.024 -0.673933 -14.3561
v 115.995 -5.72844 -18.5864
v 117.214 -4.681 -14.8458
v 108.797 -4.95579 -18.4767
v 109.157 -3.6295 -18.0352
v 108.569 -2.71062 -11.2956
v 108.307 -3.27709 -10.6529
v 109.236 -2.74481 -16.5012
v 109.254 -3.05209 -17.3797
v 107.438 -5.5367 -9.44623
v 108.125 -3.66546 -10.1997
v 109.077 -1.96257 -13.3926
v 109.215 -1.87198 -14.2321
v 109.285 -2.27065 -15.7331
v 107.325 -6.09156 -9.37117
v 109.288 -2.47296 -16.2463
v 108.36 -6.42421 -18.6721
v 108.856 -2.17911 -12.217
v 108.258 -6.73373 -18.6421
v 108.851 -6.79111 -18.6723
v 112.459 -7.15388 -18.855
v 114.066 -7.20335 -18.6966
v 116.112 -7.48577 -18.3491
v 117.249 -7.60268 -17.3921
v 114.063 -7.12475 -10.6157
v 111.97 -6.79637 -10.3361
v 105.37 -1.83669 -11.1346
v 105.393 -2.17623 -10.8069
v 105.392 -2.4841 -10.5073
v 105.389 -3.19666 -9.77192
v 105.226 -4.37423 -9.35051
v 105.144 -4.77278 -9.29001
v 104.958 -5.6796 -8.95575
v 103.722 -6.09867 -18.0883
v 103.903 -5.36782 -17.9877
v 104.145 -4.39733 -17.8508
# 55 vertices

vt 0.86939 0.97214
vt 0.86422 0.98402
vt 0.86569 0.97162
vt 0.84906 0.98728
vt 0.84174 0.98821
vt 0.84499 0.98434
vt 0.84659 0.96230
vt 0.84197 0.96706
vt 0.84454 0.96121
vt 0.86108 0.96931
vt 0.86701 0.96046
vt 0.86337 0.97005
vt 0.85333 0.96887
vt 0.85267 0.96506
vt 0.85484 0.96618
vt 0.83788 0.97892
vt 0.83482 0.96422
vt 0.88488 0.95342
vt 0.88334 0.95832
vt 0.88119 0.95379
vt 0.83617 0.96102
vt 0.83482 0.96168
vt 0.84647 0.99232
vt 0.85677 0.98741
vt 0.84713 0.99557
vt 0.84365 0.99385
vt 0.85857 0.97306
vt 0.85873 0.96825
vt 0.86009 0.96894
vt 0.87447 0.97273
vt 0.85134 0.95739
vt 0.84953 0.96357
vt 0.85306 0.99387
vt 0.60938 0.10034
vt 0.60410 0.10214
vt 0.60332 0.09875
vt 0.84083 0.99141
vt 0.83866 0.98833
vt 0.61473 0.13308
vt 0.60851 0.13373
vt 0.60840 0.13087
vt 0.85852 0.99002
vt 0.84786 0.96926
vt 0.84271 0.96030
vt 0.84944 0.95292
vt 0.85906 0.95865
vt 0.86360 0.95940
vt 0.87674 0.97023
vt 0.83876 0.95331
vt 0.83482 0.95582
vt 0.63278 0.09905
vt 0.63548 0.09855
vt 0.63570 0.09922
vt 0.84703 0.95277
vt 0.84363 0.95194
vt 0.64028 0.09952
vt 0.61500 0.09805
vt 0.61378 0.09416
vt 0.60086 0.10403
vt 0.59834 0.10328
vt 0.59766 0.10768
vt 0.83699 0.97972
vt 0.61836 0.13609
vt 0.61337 0.13538
vt 0.61777 0.13411
vt 0.84823 0.95282
vt 0.83955 0.95298
vt 0.87803 0.95949
vt 0.87512 0.95901
# 69 texture coordinates

vn -0.0989452 0.247971 -0.963701
vn 0.0641519 0.317446 -0.946104
vn 0.0285661 0.553901 -0.832093
vn 0.667593 0.74451 0.00492478
vn 0.77724 0.282919 0.562009
vn 0.44954 0.688075 0.569621
vn 0.251846 0.741923 0.621389
vn 0.273044 0.591322 0.758805
vn 0.222618 0.687461 0.691258
vn 0.22588 0.836583 -0.499106
vn 0.0923198 0.655822 -0.749249
vn 0.173742 0.825018 -0.537736
vn 0.341898 0.938679 0.0445762
vn 0.297155 0.934763 0.194723
vn 0.338417 0.93795 -0.0756529
vn 0.312035 0.177997 0.933248
vn 0.196041 0.109047 0.974514
vn -0.112122 0.162679 -0.980288
vn -0.101516 0.116324 -0.98801
vn -0.111486 0.164274 -0.980094
vn 0.172273 0.193492 0.965859
vn 0.163405 0.170779 0.971665
vn 0.972667 0.202062 0.114407
vn 0.347641 0.831436 -0.433428
vn 0.956441 -0.180588 -0.229364
vn 0.907779 -0.123631 0.400814
vn 0.316466 0.87879 -0.357179
vn 0.301621 0.908295 -0.289871
vn 0.24991 0.780057 -0.573634
vn -0.0765725 0.00288868 -0.99706
vn 0.252932 0.887999 0.384036
vn 0.32786 0.858427 0.394476
vn 0.827399 0.264986 -0.495171
vn 0.125966 -0.116919 -0.98512
vn 0.409553 -0.0952037 -0.907305
vn 0.435092 0.158385 -0.886346
vn 0.534822 0.126302 0.835472
vn 0.16109 -0.0834679 0.983404
vn 0.269969 -0.0209106 0.962642
vn 0.330823 0.852446 0.404835
vn 0.217557 0.513665 0.82995
vn 0.235856 0.749053 0.619105
vn 0.267376 0.962615 -0.0433802
vn 0.232453 0.869534 -0.435749
vn 0.143921 0.180363 0.973014
vn 0.215163 0.298509 0.929837
vn -0.0582125 -0.0775393 -0.995288
vn -0.0582123 -0.0775381 -0.995288
vn 0.223009 0.691194 0.6874
vn 0.217975 0.516795 0.827895
vn -0.00767697 -0.0938779 -0.995554
vn 0.661134 -0.173663 -0.729893
vn 0.221386 0.683224 0.69584
vn 0.169697 0.246269 0.95423
vn -0.104114 0.217455 -0.970502
# 55 vertex normals

usemtl Mat
f 24/3/3 8/2/2 23/1/1
f 10/6/6 3/5/5 22/4/4
f 26/9/9 2/8/8 25/7/7
f 28/12/12 6/11/11 27/10/10
f 32/15/15 31/14/14 1/13/13
f 2/8/8 13/17/17 5/16/16
f 54/20/20 12/19/19 53/18/18
f 34/22/22 13/17/17 29/21/21
f 3/5/5 4/23/23 22/4/4
f 1/13/13 22/4/4 18/24/24
f 4/23/23 17/26/26 9/25/25
f 35/29/29 33/28/28 14/27/27
f 23/1/1 8/2/2 36/30/30
f 37/32/32 11/31/31 25/7/7
f 4/23/23 9/25/25 7/33/33
f 14/27/27 1/13/13 18/24/24
f 21/36/36 42/35/35 41/34/34
f 22/4/4 1/13/13 10/6/6
f 3/5/5 16/38/37 17/37/26
f 24/3/3 6/11/11 28/12/12
f 16/38/37 3/5/5 10/6/6
f 44/41/39 5/40/16 45/39/38
f 21/42/36 8/2/2 18/24/24
f 16/38/37 10/6/6 5/16/16
f 1/13/13 19/43/40 10/6/6
f 2/8/8 10/6/6 19/43/40
f 35/29/29 14/27/27 27/10/10
f 31/14/14 11/31/31 37/32/32
f 30/44/41 2/8/8 26/9/9
f 7/33/33 21/42/36 18/24/24
f 2/8/8 30/44/41 29/21/21
f 46/45/42 25/7/7 11/31/31
f 18/24/24 22/4/4 7/33/33
f 3/5/5 17/37/26 4/23/23
f 33/28/28 20/46/43 32/15/15
f 37/32/32 25/7/7 2/8/8
f 37/32/32 19/43/40 1/13/13
f 31/14/14 32/15/15 20/46/43
f 32/15/15 1/13/13 14/27/27
f 22/4/4 4/23/23 7/33/33
f 33/28/28 35/29/29 15/47/44
f 6/11/11 15/47/44 35/29/29
f 27/10/10 14/27/27 18/24/24
f 8/2/2 24/3/3 28/12/12
f 6/11/11 24/3/3 23/1/1
f 23/1/1 36/30/30 12/48/19
f 27/10/10 18/24/24 28/12/12
f 5/16/16 10/6/6 2/8/8
f 28/12/12 18/24/24 8/2/2
f 29/21/21 13/17/17 2/8/8
f 20/46/43 11/31/31 31/14/14
f 32/15/15 14/27/27 33/28/28
f 52/50/46 34/22/22 51/49/45
f 15/47/44 20/46/43 33/28/28
f 2/8/8 19/43/40 37/32/32
f 27/10/10 6/11/11 35/29/29
f 37/32/32 1/13/13 31/14/14
f 38/53/48 36/52/30 39/51/47
f 49/55/50 30/44/41 48/54/49
f 12/56/19 36/52/30 38/53/48
f 36/52/30 8/58/2 40/57/51
f 40/57/51 39/51/47 36/52/30
f 8/58/2 21/36/36 41/34/34
f 21/36/36 7/60/33 43/59/52
f 43/59/52 7/60/33 9/61/25
f 43/59/52 42/35/35 21/36/36
f 41/34/34 40/57/51 8/58/2
f 16/38/37 5/16/16 44/62/39
f 45/65/38 5/64/16 13/63/17
f 47/66/53 25/7/7 46/45/42
f 48/54/49 26/9/9 47/66/53
f 48/54/49 30/44/41 26/9/9
f 47/66/53 26/9/9 25/7/7
f 50/67/54 29/21/21 30/44/41
f 51/49/45 29/21/21 50/67/54
f 30/44/41 49/55/50 50/67/54
f 51/49/45 34/22/22 29/21/21
f 55/69/55 12/48/19 54/68/20
f 6/11/11 23/1/1 55/69/55
f 55/69/55 23/1/1 12/48/19
# 80 facets

