#  ==========================================================================
#  
#  Wavefront OBJ format exported by Red-i Productions' "Riptide Pro"
#     (a commercial plugin for Cinema 4D PC & Mac, R9.6 or later)
#  
#  Red-i Productions
#  http://skinprops.com
#  
#  ==========================================================================
mtllib HAND_new_96.mtl
v -37.2437 12.6878 -2.17028
v -36.5269 9.08703 -14.0068
v -30.9277 11.8908 -6.14495
v -31.4066 12.67 -1.79101
v -30.1964 9.82256 -13.5677
v -31.5298 12.8222 -0.63022
v -48.8362 9.18212 -14.9697
v -49.1938 10.5768 -11.4273
v -49.6798 11.3217 -7.22433
v -50.3538 13.1317 -1.86968
v -36.2588 12.8064 -0.947635
v -40.4116 13.0932 -1.20696
# 12 vertices

vt 0.57743 0.43132
vt 0.54541 0.40852
vt 0.54974 0.39566
vt 0.60053 0.42323
vt 0.59550 0.43664
vt 0.59411 0.44051
vt 0.59067 0.39304
vt 0.55567 0.38117
vt 0.56725 0.43250
vt 0.57940 0.43610
vt 0.60924 0.40186
vt 0.53862 0.42474
# 12 texture coordinates

vn 0.0107262 0.978574 -0.205617
vn 0.00471809 0.962361 -0.271732
vn 0.0180546 0.960583 -0.277406
vn -0.0475792 0.967406 -0.24872
vn 0.0128794 0.988335 -0.151748
vn 0.00737843 0.993448 -0.114044
vn -0.0168575 0.951922 -0.305876
vn 0.0355873 0.931105 -0.363011
vn 0.0426354 0.963263 -0.265154
vn 0.0406478 0.990825 -0.128893
vn -0.0920516 0.956835 -0.27567
vn 0.0248207 0.947996 -0.317314
# 12 vertex normals

usemtl Default
f 8/3/3 9/2/2 1/1/1
f 4/5/5 3/4/4 1/1/1
f 4/5/5 1/1/1 6/6/6
f 2/7/7 1/1/1 3/4/4
f 8/3/3 2/7/7 7/8/8
f 11/10/10 1/1/1 12/9/9
f 3/4/4 5/11/11 2/7/7
f 8/3/3 1/1/1 2/7/7
f 6/6/6 1/1/1 11/10/10
f 12/9/9 9/2/2 10/12/12
f 12/9/9 1/1/1 9/2/2
# 11 facets

