#  ==========================================================================
#  
#  Wavefront OBJ format exported by Red-i Productions' "Riptide Pro"
#     (a commercial plugin for Cinema 4D PC & Mac, R9.6 or later)
#  
#  Red-i Productions
#  http://skinprops.com
#  
#  ==========================================================================
mtllib HAND_new_9.mtl
v 69.6531 3.19863 -19.8312
v 61.5863 4.71828 -19.6983
v 68.5919 1.87062 -25.9379
v 74.8258 -3.35942 -17.1435
v 62.675 1.16258 -24.3147
v 63.7191 -3.76791 -25.9927
v 70.3022 2.01062 -15.8672
v 61.3832 3.91954 -21.0688
v 64.5311 4.9894 -18.6761
v 63.3345 -1.2603 -25.8277
v 59.8857 5.20165 -17.0883
v 59.4733 5.18024 -18.2588
v 59.1848 4.94719 -19.0657
v 58.7914 4.23967 -20.1302
v 58.7284 4.10041 -20.3987
v 58.2743 2.04137 -22.5705
v 57.9106 0.567119 -24.176
v 57.9342 0.226611 -24.0802
v 57.7932 -1.26169 -24.9201
v 57.8614 -2.44803 -25.1012
v 57.8861 -3.58895 -25.1549
v 58.0225 -5.14511 -24.8484
v 67.5933 -3.85759 -27.8446
v 67.7701 -3.25564 -27.9336
v 67.9069 -2.89837 -27.7623
v 73.8653 -0.200001 -19.8891
v 73.2945 1.01463 -21.088
v 72.7176 1.84796 -22.5314
v 72.2394 1.90529 -23.3442
v 71.5543 1.95423 -24.6246
v 70.1026 1.5005 -26.425
v 68.6188 -0.620535 -27.7874
v 69.6235 0.964978 -26.9809
v 69.7623 1.26224 -26.839
v 75.4924 -3.10392 -16.17
v 72.1458 0.212725 -15.6534
v 69.2297 2.56838 -15.1591
v 66.0557 4.49509 -14.2066
v 64.4813 5.08272 -13.801
v 63.8166 5.02488 -13.5512
v 62.9063 5.14452 -13.2228
v 60.9294 5.44343 -12.652
# 42 vertices

vt 0.93076 0.83105
vt 0.93777 0.82346
vt 0.95111 0.85393
vt 0.91497 0.85789
vt 0.91723 0.84542
vt 0.91902 0.85048
vt 0.94288 0.82485
vt 0.95202 0.85959
vt 0.95364 0.85881
vt 0.94493 0.81638
vt 0.94394 0.81604
vt 0.92813 0.86803
vt 0.93295 0.86596
vt 0.91862 0.87425
vt 0.96774 0.82582
vt 0.96193 0.83886
vt 0.96640 0.82386
vt 0.93847 0.86392
vt 0.93102 0.85006
vt 0.94119 0.86301
vt 0.95462 0.85858
vt 0.95392 0.83391
vt 0.95471 0.81881
vt 0.96094 0.82209
vt 0.96104 0.82230
vt 0.96080 0.85683
vt 0.96754 0.85781
vt 0.93337 0.81345
vt 0.91614 0.82252
vt 0.93956 0.81507
vt 0.93754 0.81436
vt 0.91666 0.81947
vt 0.91790 0.81177
vt 0.96960 0.82773
vt 0.96644 0.83048
vt 0.96739 0.85133
vt 0.96582 0.85034
vt 0.96871 0.85765
vt 0.94607 0.86211
vt 0.91168 0.87542
vt 0.91629 0.83139
vt 0.91616 0.82511
vt 0.96996 0.82533
vt 0.96816 0.84483
# 44 texture coordinates

vn 0.189367 0.967002 -0.170435
vn -0.00462853 0.962066 -0.272777
vn -0.135629 0.774153 -0.618298
vn 0.671828 0.718712 -0.179163
vn 0.571976 0.783771 0.241966
vn 0.668535 0.72191 0.178625
vn -0.12117 0.816542 -0.564426
vn 0.0948573 0.912091 -0.398864
vn -0.150383 0.717729 -0.679889
vn -0.097912 0.792616 -0.601809
vn -0.0620545 0.867204 -0.494071
vn 0.737929 0.588555 0.330246
vn 0.613968 0.754893 0.230608
vn 0.719263 0.668173 -0.19028
vn -0.147341 0.0757622 -0.98618
vn -0.236039 0.275682 -0.931818
vn -0.152988 0.324114 -0.933566
vn 0.447066 0.89242 0.0609783
vn 0.455744 0.887555 0.0674017
vn 0.305477 0.944256 -0.122741
vn -0.304679 0.549159 -0.7782
vn -0.201619 0.513053 -0.834342
vn -0.115692 0.738682 -0.664051
vn -0.0629026 0.280153 -0.957892
vn -0.0987538 0.25952 -0.960675
vn -0.352245 0.437316 -0.827453
vn -0.288659 0.375715 -0.880633
vn 0.131635 0.987982 -0.0810203
vn 0.0485359 0.996976 -0.0606867
vn -0.022394 0.909887 -0.414252
vn 0.0909438 0.979309 -0.180786
vn 0.11563 0.990402 -0.0757192
vn 0.1254 0.988596 -0.0833806
vn -0.240152 0.0270434 -0.970359
vn -0.431382 -0.00677947 -0.902144
vn -0.32252 0.247377 -0.913666
vn 0.213825 0.948984 -0.231751
vn 0.547718 0.63713 -0.542283
vn 0.411295 0.910311 0.0465839
vn 0.0575514 0.998195 -0.0171688
vn -0.140732 0.0435263 -0.989091
# 41 vertex normals

usemtl Mat
f 3/3/3 2/2/2 9/1/1
f 7/6/6 37/5/5 36/4/4
f 8/7/7 2/2/2 3/3/3
f 34/9/9 3/3/3 31/8/8
f 14/11/11 8/7/7 15/10/10
f 27/13/13 7/6/6 26/12/12
f 26/12/12 7/6/6 4/14/14
f 19/17/17 10/16/16 20/15/15
f 29/20/20 1/19/19 28/18/18
f 3/3/3 34/9/9 33/21/21
f 17/24/24 16/23/23 5/22/22
f 8/7/7 3/3/3 5/22/22
f 18/25/25 17/24/24 5/22/22
f 25/27/27 5/22/22 32/26/26
f 40/29/29 2/2/2 11/28/28
f 12/31/31 2/2/2 13/30/30
f 11/28/28 42/33/33 41/32/32
f 2/2/2 8/7/7 14/11/11
f 14/11/11 13/30/30 2/2/2
f 15/10/10 8/7/7 5/22/22
f 18/25/25 5/22/22 10/16/16
f 20/35/15 10/16/16 6/34/34
f 24/37/36 23/36/35 10/16/16
f 24/38/36 10/16/16 25/27/27
f 28/18/18 1/19/19 27/13/13
f 1/19/19 7/6/6 27/13/13
f 30/39/37 9/1/1 29/20/20
f 31/8/8 3/3/3 9/1/1
f 32/26/26 3/3/3 33/21/21
f 35/40/38 4/14/14 36/4/4
f 11/28/28 2/2/2 12/31/31
f 37/5/5 7/6/6 1/19/19
f 1/19/19 38/41/39 37/5/5
f 4/14/14 7/6/6 36/4/4
f 38/41/39 1/19/19 9/1/1
f 9/1/1 39/42/40 38/41/39
f 39/42/40 9/1/1 2/2/2
f 2/2/2 40/29/29 39/42/40
f 40/29/29 11/28/28 41/32/32
f 9/1/1 1/19/19 29/20/20
f 9/1/1 30/39/37 31/8/8
f 5/22/22 16/23/23 15/10/10
f 32/26/26 5/22/22 3/3/3
f 10/16/16 19/17/17 18/25/25
f 6/34/34 21/43/41 20/35/15
f 23/36/35 6/44/34 10/16/16
f 10/16/16 5/22/22 25/27/27
# 47 facets

