#  ==========================================================================
#  
#  Wavefront OBJ format exported by Red-i Productions' "Riptide Pro"
#     (a commercial plugin for Cinema 4D PC & Mac, R9.6 or later)
#  
#  Red-i Productions
#  http://skinprops.com
#  
#  ==========================================================================
mtllib HAND_new_38.mtl
v 83.4192 -7.46301 -8.629
v 79.6039 -5.69225 -4.68396
v 79.23 -6.6851 -6.77509
v 90.3269 -5.26285 -7.17202
v 80.0645 -3.06743 -2.85976
v 76.5548 -4.57064 -14.9573
v 89.6093 -2.99464 -5.89729
v 85.5834 -3.53668 -15.2242
v 77.5446 -6.22928 -12.498
v 85.9776 -7.47902 -12.6215
v 90.645 -7.40128 -12.5378
v 90.1165 -7.18149 -10.2204
v 87.0405 -7.81228 -11.316
v 75.6164 -4.55861 -16.3876
v 92.5356 -3.5493 -6.51908
v 92.429 -4.33704 -6.72028
v 92.0623 -5.68722 -7.45635
v 91.9588 -5.86159 -7.65762
v 91.2214 -7.28389 -10.2666
v 90.6159 -5.73392 -15.1278
v 90.6136 -5.14184 -15.5323
v 90.6763 -4.1827 -16.1199
v 75.5918 -3.89603 -16.1749
v 76.2814 -3.39543 -15.1252
# 24 vertices

vt 0.68555 0.13200
vt 0.68216 0.12267
vt 0.69669 0.12824
vt 0.73071 0.12169
vt 0.70891 0.13779
vt 0.73274 0.11188
vt 0.70041 0.12368
vt 0.72536 0.14608
vt 0.67866 0.14253
vt 0.68411 0.14502
vt 0.67832 0.14338
vt 0.72228 0.15562
vt 0.90969 0.87903
vt 0.90613 0.88106
vt 0.91309 0.87727
vt 0.68423 0.15110
vt 0.69687 0.15741
vt 0.68981 0.15536
vt 0.71118 0.16211
vt 0.72008 0.11120
vt 0.90425 0.87923
vt 0.90311 0.88494
vt 0.89335 0.90634
vt 0.68563 0.10973
vt 0.69005 0.10690
vt 0.70376 0.10885
vt 0.68255 0.13197
vt 0.68569 0.11244
vt 0.68814 0.11009
vt 0.90521 0.87800
# 30 texture coordinates

vn 0.0558337 -0.948451 0.311966
vn 0.028921 -0.987116 -0.157373
vn -0.00463944 -0.999848 -0.0167958
vn -0.159902 -0.968432 -0.191235
vn 0.0158892 -0.958682 0.284037
vn 0.382456 -0.309734 -0.870513
vn -0.0747096 -0.834925 -0.545269
vn -0.0884839 -0.973961 0.208737
vn -0.11548 -0.79631 0.593763
vn 0.0700953 -0.723234 0.687036
vn -0.00660301 -0.5751 0.818056
vn 0.130438 -0.793937 0.593843
vn 0.81957 0.202411 -0.536036
vn 0.814712 0.153899 -0.55907
vn 0.0894922 -0.377159 0.921814
vn 0.122 -0.412399 0.902797
vn 0.152355 -0.263895 0.952443
vn 0.244563 -0.49476 0.833907
vn -0.130143 -0.469356 -0.873366
vn 0.451553 -0.0223842 -0.891964
vn -0.218114 -0.525685 -0.822242
vn -0.211165 -0.500588 -0.839536
vn -0.104277 -0.918372 0.381731
vn -0.145824 -0.663682 -0.733663
# 24 vertex normals

usemtl Default
f 13/3/3 11/2/2 12/1/1
f 1/5/5 9/4/4 13/3/3
f 10/7/7 9/4/4 6/6/6
f 9/4/4 1/5/5 3/8/8
f 17/11/11 4/10/10 18/9/9
f 11/2/2 13/3/3 10/7/7
f 2/12/12 1/5/5 4/10/10
f 23/15/14 6/14/6 14/13/13
f 15/18/17 7/17/16 16/16/15
f 4/10/10 7/17/16 5/19/18
f 1/5/5 2/12/12 3/8/8
f 6/6/6 8/20/19 10/7/7
f 4/10/10 5/19/18 2/12/12
f 8/23/19 6/22/6 24/21/20
f 1/5/5 12/1/1 4/10/10
f 8/26/19 22/25/22 21/24/21
f 10/7/7 13/3/3 9/4/4
f 13/3/3 12/1/1 1/5/5
f 7/17/16 4/10/10 17/11/11
f 17/11/11 16/16/15 7/17/16
f 4/10/10 12/1/1 19/27/23
f 19/27/23 18/9/9 4/10/10
f 19/27/23 12/1/1 11/2/2
f 11/2/2 10/7/7 20/28/24
f 20/28/24 10/7/7 8/20/19
f 8/20/19 21/29/21 20/28/24
f 24/30/20 6/14/6 23/15/14
# 27 facets

