# 24 vertices
v -72.2119 15.3231 -4.65769
v -51.9615 14.5712 2.30515
v -60.2496 14.1207 -2.1888
v -67.0446 15.4564 1.37798
v -65.6706 11.5673 11.0117
v -63.248 14.0219 6.54197
v -50.994 14.4517 3.46033
v -51.3515 14.0463 7.1317
v -51.417 13.5472 8.06343
v -51.6514 12.0619 11.2135
v -50.881 14.4932 2.35187
v -50.8362 14.4272 1.96297
v -74.2387 16.0352 0.63166
v -74.1465 15.8624 -1.32448
v -74.2283 13.9554 7.27185
v -74.2636 14.5744 6.18071
v -74.0693 11.7449 10.2691
v -74.2547 14.9101 4.81914
v -74.0282 15.303 -4.75715
v -50.3538 13.1317 -1.86968
v -53.6063 13.0205 -2.45615
v -54.5567 12.988 -2.62751
v -56.9735 13.6057 -3.0585
v -60.2664 13.895 -3.6495
# 24 texture coordinates
vt 0.52636 0.46528
vt 0.48914 0.45910
vt 0.52855 0.45475
vt 0.47257 0.42400
vt 0.49090 0.42888
vt 0.46963 0.43598
vt 0.53014 0.43677
vt 0.53332 0.43764
vt 0.53210 0.44066
vt 0.48068 0.40727
vt 0.51097 0.41711
vt 0.51088 0.41966
vt 0.53376 0.43635
vt 0.49819 0.44480
vt 0.47571 0.40694
vt 0.47367 0.41869
vt 0.52928 0.45159
vt 0.46885 0.43981
vt 0.46832 0.44352
vt 0.52694 0.41998
vt 0.51990 0.41947
vt 0.46631 0.45526
vt 0.53862 0.42474
vt 0.52958 0.42106
# 24 vertex normals
vn -0.0380323 0.904936 0.423845
vn -0.0193315 0.87057 0.491665
vn -0.0316003 0.893758 0.447434
vn 0.0706703 0.993499 0.0892483
vn 0.0708767 0.995968 0.0549996
vn 0.0457484 0.967317 0.249408
vn 0.0843126 0.987119 -0.135967
vn 0.0742902 0.995596 -0.0571799
vn 0.018378 0.995986 0.0876041
vn 0.0875765 0.986688 -0.137033
vn 0.0989287 0.974403 -0.201872
vn 0.0890982 0.982076 -0.166094
vn 0.0381827 0.959732 -0.278312
vn 0.0142119 0.949949 0.312082
vn -0.00210917 0.986969 -0.160894
vn 0.0609845 0.991328 -0.116402
vn -0.0195607 0.934331 0.35587
vn 0.0366608 0.94447 0.326545
vn 0.00647289 0.849459 0.527615
vn 0.116009 0.926354 -0.358345
vn 0.216949 0.905115 -0.36565
vn -0.0355669 0.803388 0.594393
vn 0.0248208 0.947996 -0.317314
vn 0.0248211 0.947996 -0.317314
# 26 facets
f 9/3/3 5/2/2 10/1/1
f 18/6/6 4/5/5 13/4/4
f 7/9/9 11/8/8 2/7/7
f 3/12/12 24/11/11 1/10/10
f 3/12/12 1/10/10 4/5/5
f 12/13/13 2/7/7 11/8/8
f 3/12/12 4/5/5 2/7/7
f 2/7/7 4/5/5 6/14/14
f 14/16/16 1/10/10 19/15/15
f 7/9/9 6/14/14 8/17/17
f 8/17/17 5/2/2 9/3/3
f 4/5/5 1/10/10 14/16/16
f 15/19/19 6/14/14 16/18/18
f 23/21/21 2/7/7 22/20/20
f 16/18/18 4/5/5 18/6/6
f 17/22/22 5/2/2 15/19/19
f 8/17/17 6/14/14 5/2/2
f 7/9/9 2/7/7 6/14/14
f 21/24/24 12/13/13 20/23/23
f 15/19/19 5/2/2 6/14/14
f 16/18/18 6/14/14 4/5/5
f 14/16/16 13/4/4 4/5/5
f 22/20/20 12/13/13 21/24/24
f 24/11/11 2/7/7 23/21/21
f 24/11/11 3/12/12 2/7/7
f 22/20/20 2/7/7 12/13/13
