#  ==========================================================================
#  
#  Wavefront OBJ format exported by Red-i Productions' "Riptide Pro"
#     (a commercial plugin for Cinema 4D PC & Mac, R9.6 or later)
#  
#  Red-i Productions
#  http://skinprops.com
#  
#  ==========================================================================
mtllib HAND_new_69.mtl
v 32.3098 -11.9751 37.2991
v 37.9577 -12.5178 40.595
v 38.3875 -14.6674 37.3649
v 29.0999 -12.2369 32.4559
v 27.2019 -7.10443 31.0071
v 39.2886 -16.1925 27.8065
v 32.2886 -14.094 33.5803
v 29.8137 -10.3379 35.645
v 38.3875 -14.6674 37.3649
v 32.5107 -8.76675 38.7603
v 35.3201 -17.5202 25.5063
v 21.1206 -11.1531 19.8102
v 37.6962 -7.42266 41.4314
v 35.2392 -18.304 12.7199
v 33.3503 -7.28151 38.7019
v 23.705 -12.8843 22.7613
v 30.2411 -8.36894 35.9227
v 30.571 -7.1985 36.145
v 27.6994 -14.9019 23.9959
v 20.8156 -6.91988 21.6131
v 39.3486 -17.7264 21.0697
v 21.5975 -14.3773 14.6697
v 32.2886 -14.094 33.5803
v 39.0305 -17.3208 16.0646
v 31.6958 -19.0453 13.3726
v 18.549 -13.0642 14.8135
v 37.0607 -16.9379 26.5152
v 36.8829 -17.6002 23.7851
v 35.9485 -18.2723 17.5185
v 35.617 -18.0701 14.5581
v 35.617 -18.0701 14.5581
v 38.2757 -16.7834 11.9674
v 18.6256 -6.62683 20.5844
v 18.5856 -7.77369 20.2383
v 18.5467 -9.28167 19.2817
v 18.4858 -11.2256 17.8115
v 18.5554 -12.4972 15.8026
v 37.2478 -17.656 12.2626
v 36.6021 -18.0631 12.4541
v 28.6617 -17.8917 13.7713
v 28.036 -17.45 13.8151
v 26.2837 -17.1374 14.149
v 26.2837 -17.1374 14.149
# 43 vertices

vt 0.90737 0.17714
vt 0.92045 0.16775
vt 0.91200 0.18646
vt 0.96453 0.24342
vt 0.96230 0.24904
vt 0.95519 0.24607
vt 0.93759 0.25759
vt 0.94830 0.24022
vt 0.89706 0.18454
vt 0.90017 0.17043
vt 0.90431 0.17024
vt 0.95625 0.23390
vt 0.94193 0.22919
vt 0.95216 0.22323
vt 0.95715 0.18929
vt 0.94525 0.19711
vt 0.95312 0.16294
vt 0.94531 0.26307
vt 0.93266 0.21298
vt 0.91318 0.22025
vt 0.91816 0.21355
vt 0.92899 0.24790
vt 0.96517 0.17789
vt 0.96076 0.23643
vt 0.96400 0.23824
vt 0.92205 0.20832
vt 0.91577 0.20513
vt 0.96711 0.22620
vt 0.95981 0.25430
vt 0.95411 0.26206
vt 0.90585 0.20008
vt 0.97462 0.17148
vt 0.97101 0.16773
vt 0.97526 0.18491
vt 0.96685 0.22120
vt 0.97889 0.17543
vt 0.88683 0.60957
vt 0.89343 0.60823
vt 0.89374 0.61114
vt 0.96672 0.16115
vt 0.89575 0.17083
vt 0.90865 0.17059
vt 0.92908 0.16564
vt 0.93221 0.15896
vt 0.93665 0.16451
vt 0.96326 0.15756
vt 0.96580 0.15842
# 47 texture coordinates

vn 0.257703 -0.961588 -0.0945407
vn 0.0255813 -0.996366 0.0812469
vn 0.168262 -0.985742 0.000383594
vn -0.74984 0.204503 0.62922
vn -0.561653 0.347023 0.75108
vn -0.634273 0.0129127 0.773001
vn -0.436232 -0.561891 0.702837
vn -0.572144 -0.562181 0.597163
vn 0.435223 -0.894947 -0.0982374
vn 0.546353 -0.817061 -0.184147
vn 0.293006 -0.956104 0.00354202
vn -0.803995 -0.185447 0.564979
vn -0.473075 -0.780695 0.408309
vn -0.76271 -0.452732 0.461851
vn -0.635623 -0.686554 0.353026
vn -0.490992 -0.823816 0.28329
vn -0.483773 -0.794593 0.366858
vn -0.471926 0.0749117 0.87845
vn -0.188246 -0.952159 0.240744
vn 0.202004 -0.957829 0.204348
vn 0.206604 -0.958436 0.196761
vn -0.372193 -0.794776 0.479379
vn -0.601551 -0.565101 0.564621
vn -0.802546 0.102881 0.587652
vn -0.0789504 -0.97264 0.21849
vn 0.132204 -0.978266 0.159743
vn -0.862033 -0.0382966 0.505403
vn 0.191267 -0.980992 0.032734
vn -0.422488 -0.466917 0.776847
vn -0.439781 -0.664804 0.603844
vn -0.248056 -0.944613 0.214883
vn -0.20058 -0.963507 0.177259
vn -0.59123 -0.323024 0.738988
vn 0.252889 -0.962909 -0.0940923
vn -0.376015 -0.37924 0.845452
vn -0.438876 -0.245503 0.864359
vn -0.33533 -0.809833 0.481377
vn 0.59654 -0.774227 -0.211454
vn 0.195736 -0.977241 0.0817766
vn 0.203815 -0.975548 0.0822485
vn 0.218037 -0.97274 0.0789685
vn -0.46478 -0.836522 0.290191
vn -0.344226 -0.90275 0.257976
vn -0.218222 -0.951911 0.215048
vn -0.468631 -0.844541 0.259107
vn -0.330126 -0.818004 0.471048
# 46 vertex normals

usemtl Mat
f 29/3/3 25/2/2 30/1/1
f 10/6/6 15/5/5 18/4/4
f 10/6/6 1/8/8 2/7/7
f 39/11/11 38/10/10 24/9/9
f 8/12/12 1/8/8 10/6/6
f 4/14/14 7/13/13 1/8/8
f 22/17/17 19/16/16 16/15/15
f 1/8/8 7/13/13 2/7/7
f 8/12/12 4/14/14 1/8/8
f 10/6/6 2/7/7 13/18/18
f 27/21/21 6/20/20 9/19/19
f 2/7/7 7/13/13 3/22/22
f 12/23/23 22/17/17 16/15/15
f 18/25/4 17/24/24 10/6/6
f 28/27/26 27/21/21 11/26/25
f 4/14/14 8/12/12 5/28/27
f 10/6/6 13/30/18 15/29/5
f 29/3/3 21/31/28 28/27/26
f 36/33/30 12/23/23 35/32/29
f 17/24/24 8/12/12 10/6/6
f 4/14/14 16/15/15 7/13/13
f 18/25/4 5/28/27 17/24/24
f 16/15/15 19/16/16 7/13/13
f 23/13/32 19/16/31 9/19/19
f 5/35/27 20/34/33 4/14/14
f 5/28/27 8/12/12 17/24/24
f 16/15/15 4/14/14 12/23/23
f 12/23/23 4/14/14 20/34/33
f 9/19/19 11/26/25 27/21/21
f 28/27/26 6/20/20 27/21/21
f 28/27/26 25/2/2 29/3/3
f 28/27/26 11/26/25 25/2/2
f 28/27/26 21/31/28 6/20/20
f 30/1/1 24/9/34 21/31/28
f 21/31/28 29/3/3 30/1/1
f 35/32/29 20/34/33 34/36/35
f 33/39/36 34/38/35 20/37/33
f 35/32/29 12/23/23 20/34/33
f 37/40/37 12/23/23 36/33/30
f 37/40/37 22/17/17 12/23/23
f 32/41/38 24/9/9 38/10/10
f 39/11/11 24/9/9 31/1/39
f 31/1/39 14/42/40 39/11/11
f 14/42/40 31/1/39 25/2/41
f 25/2/2 11/26/25 40/43/42
f 40/43/42 9/19/19 41/44/43
f 9/19/19 19/16/31 42/45/44
f 43/45/45 19/16/16 22/17/17
f 22/17/17 37/47/37 26/46/46
f 42/45/44 41/44/43 9/19/19
f 40/43/42 11/26/25 9/19/19
# 51 facets

