#  ==========================================================================
#  
#  Wavefront OBJ format exported by Red-i Productions' "Riptide Pro"
#     (a commercial plugin for Cinema 4D PC & Mac, R9.6 or later)
#  
#  Red-i Productions
#  http://skinprops.com
#  
#  ==========================================================================
mtllib HAND_new_120.mtl
v -108.198 11.9065 -3.99596
v -113.482 9.45445 0.431134
v -104.607 7.06296 7.94485
v -94.9076 10.3112 6.78145
v -106.316 10.4655 3.031
v -93.6881 13.3033 2.53492
v -91.8675 10.9517 7.05524
v -91.3969 9.51244 8.46107
v -93.0372 13.2765 2.8547
v -93.441 13.6776 1.17837
v -93.0872 13.3537 2.66247
v -94.2963 14.372 -2.45991
v -94.1331 14.2269 -1.77303
v -94.4086 14.3293 -3.01325
v -114.411 4.62772 6.19359
v -115.098 5.92303 4.94747
v -119.164 7.08485 -2.93615
v -118.96 7.37209 -2.51398
v -116.66 7.43788 2.00216
v -115.913 6.88085 3.42398
v -118.146 7.60962 -0.899359
v -94.71 14.2483 -4.4783
v -97.683 13.7018 -4.48175
v -107.55 11.9974 -4.49176
v -113.269 4.0265 8.38476
v -93.6553 8.43389 8.28432
v -102.846 6.67977 8.43396
v -104.386 6.46449 8.485
v -110.308 4.04282 8.15556
# 29 vertices

vt 0.33212 0.40502
vt 0.34725 0.40159
vt 0.36968 0.41605
vt 0.32712 0.38637
vt 0.37021 0.39116
vt 0.32954 0.39270
vt 0.33228 0.41069
vt 0.33269 0.41763
vt 0.33322 0.43444
vt 0.33213 0.42488
vt 0.34361 0.43721
vt 0.40297 0.43789
vt 0.41238 0.42167
vt 0.41287 0.43928
vt 0.41239 0.44606
vt 0.36750 0.43776
vt 0.37229 0.44191
vt 0.36695 0.44088
vt 0.41419 0.41753
vt 0.41415 0.42228
vt 0.41413 0.40354
vt 0.40449 0.39664
vt 0.41398 0.39888
vt 0.41417 0.42298
vt 0.41401 0.40781
vt 0.41413 0.40539
vt 0.32610 0.38468
vt 0.37262 0.39001
vt 0.40365 0.44765
# 29 texture coordinates

vn -0.335582 0.848169 0.40987
vn -0.333823 0.903951 0.267272
vn -0.231442 0.870863 0.433627
vn -0.402035 0.90106 -0.16266
vn -0.290236 0.956949 0.00336319
vn -0.395924 0.909472 0.126907
vn -0.273748 0.7926 0.544837
vn -0.265617 0.699268 0.663681
vn 0.0146059 0.96617 0.257492
vn -0.193302 0.753206 0.62874
vn -0.193303 0.753207 0.62874
vn -0.189002 0.706 0.682526
vn -0.178728 0.903636 0.389228
vn -0.213874 0.744984 0.631867
vn -0.248284 0.564335 0.787325
vn -0.209276 0.651177 0.729501
vn -0.08749 0.606507 0.79025
vn -0.174953 0.623282 0.762175
vn -0.180823 0.956047 0.23082
vn -0.147014 0.934691 0.323634
vn -0.17272 0.984333 -0.0354523
vn -0.175403 0.984059 -0.0293518
vn -0.180747 0.98338 -0.0171476
vn -0.201374 0.853027 0.481449
vn -0.198816 0.950244 0.23981
vn -0.184801 0.977275 0.103837
vn -0.40337 0.835271 -0.373651
vn -0.253125 0.954852 -0.155517
vn -0.195461 0.530128 0.825081
# 29 vertex normals

usemtl Default
f 5/3/3 2/2/2 19/1/1
f 21/6/6 1/5/5 18/4/4
f 16/8/8 5/3/3 20/7/7
f 29/11/11 15/10/10 25/9/9
f 6/13/13 5/3/3 4/12/12
f 8/15/15 7/14/14 4/12/12
f 28/18/18 27/17/17 3/16/16
f 11/20/20 10/19/19 6/13/13
f 3/16/16 4/12/12 5/3/3
f 22/23/23 23/22/22 14/21/21
f 5/3/3 1/5/5 2/2/2
f 11/20/20 6/13/13 9/24/24
f 19/1/1 2/2/2 21/6/6
f 9/24/24 4/12/12 7/14/14
f 1/5/5 5/3/3 13/25/25
f 5/3/3 6/13/13 10/19/19
f 14/21/21 1/5/5 12/26/26
f 15/10/10 3/16/16 16/8/8
f 9/24/24 6/13/13 4/12/12
f 10/19/19 13/25/25 5/3/3
f 13/25/25 12/26/26 1/5/5
f 17/27/27 18/4/4 1/5/5
f 21/6/6 2/2/2 1/5/5
f 19/1/1 20/7/7 5/3/3
f 16/8/8 3/16/16 5/3/3
f 24/28/28 14/21/21 23/22/22
f 17/27/27 1/5/5 24/28/28
f 24/28/28 1/5/5 14/21/21
f 8/15/15 4/12/12 26/29/29
f 4/12/12 3/16/16 27/17/17
f 3/16/16 15/10/10 29/11/11
f 29/11/11 28/18/18 3/16/16
f 27/17/17 26/29/29 4/12/12
# 33 facets

