#  ==========================================================================
#  
#  Wavefront OBJ format exported by Red-i Productions' "Riptide Pro"
#     (a commercial plugin for Cinema 4D PC & Mac, R9.6 or later)
#  
#  Red-i Productions
#  http://skinprops.com
#  
#  ==========================================================================
mtllib HAND_new_50.mtl
v 39.2886 -16.1925 27.8065
v 38.3875 -14.6674 37.3649
v 48.8728 -13.979 14.6361
v 50.5068 -7.10935 32.7357
v 47.881 -11.5488 31.4247
v 41.9428 -16.2893 22.9082
v 44.5371 -14.8523 24.7466
v 48.1632 -14.1397 17.5742
v 49.4927 -13.1677 10.0846
v 39.3486 -17.7264 21.0697
v 48.8728 -13.979 14.6361
v 44.5439 -14.0388 31.199
v 47.881 -11.5488 31.4247
v 39.0305 -17.3208 16.0646
v 41.013 -14.8883 33.9012
v 48.1632 -14.1397 17.5742
v 50.4881 -8.48473 30.7331
v 50.8618 -9.61798 29.1136
v 50.8618 -9.61798 29.1136
v 50.7256 -9.97307 27.0446
v 50.4485 -11.2378 22.7891
v 50.4485 -11.2378 22.7891
v 50.4086 -12.5872 19.3111
v 50.4328 -13.2921 16.6215
v 50.1784 -13.4676 14.4505
v 49.8463 -13.3224 12.336
v 46.1785 -13.6322 10.4734
v 42.2342 -15.0057 11.1695
v 41.7065 -15.2451 11.2542
v 38.6249 -16.541 11.9255
v 38.2757 -16.7834 11.9674
# 31 vertices

vt 0.86878 0.22021
vt 0.86736 0.20917
vt 0.87362 0.20045
vt 0.86811 0.19203
vt 0.90585 0.20008
vt 0.89952 0.20906
vt 0.91318 0.22025
vt 0.89319 0.21804
vt 0.90087 0.23827
vt 0.91637 0.23570
vt 0.87325 0.24109
vt 0.88861 0.24464
vt 0.87701 0.24703
vt 0.89448 0.17110
vt 0.89706 0.18454
vt 0.88549 0.17326
vt 0.93266 0.21298
vt 0.88318 0.17335
vt 0.89575 0.17083
vt 0.86474 0.20010
vt 0.87661 0.25251
vt 0.87098 0.23408
vt 0.86348 0.19336
vt 0.00000 0.00000
vt 1.00000 0.00000
vt 1.00000 1.00000
vt 0.87145 0.17597
vt 0.86199 0.17820
# 28 texture coordinates

vn 0.34591 -0.876072 0.335923
vn 0.386058 -0.877305 0.285122
vn 0.378871 -0.911235 0.161577
vn 0.457793 -0.880501 0.123057
vn 0.35071 -0.936121 -0.0260702
vn 0.37317 -0.927483 0.0228021
vn 0.355298 -0.910738 0.210521
vn 0.281114 -0.947324 0.153465
vn 0.487527 -0.859817 0.151764
vn 0.409184 -0.905565 0.111894
vn 0.22804 -0.963298 0.141611
vn 0.709792 -0.48962 0.506427
vn 0.730409 -0.522068 0.440394
vn 0.592526 -0.799472 0.0987837
vn 0.443708 -0.871766 -0.207719
vn 0.387825 -0.896739 -0.21319
vn 0.361925 -0.912167 -0.192255
vn 0.140752 -0.975527 0.168924
vn 0.312992 -0.921268 -0.230871
vn 0.541005 -0.815247 -0.206605
vn 0.395518 -0.908659 0.133808
vn 0.307462 -0.946681 -0.0962457
vn 0.746762 -0.551469 0.37179
vn 0.582693 -0.801725 0.133066
vn 0.558796 -0.804172 0.202617
vn 0.593458 -0.798874 0.0980202
vn 0.36548 -0.930137 0.035638
vn 0.36919 -0.928561 0.0383701
vn 0.1989 -0.957579 -0.20852
vn 0.225304 -0.947997 -0.224812
vn 0.118768 -0.980184 -0.158536
vn 0.347525 -0.930157 -0.118465
# 32 vertex normals

usemtl Default
f 8/3/3 23/2/2 21/1/1
f 10/5/6 11/4/5 16/3/4
f 7/8/9 1/7/8 10/5/7 6/6/7
f 15/10/11 1/7/8 12/9/10
f 17/13/13 5/12/13 19/11/12
f 13/12/14 12/9/10 7/8/9
f 29/16/17 14/15/16 30/14/15
f 15/10/11 2/17/18 1/7/8
f 12/9/10 1/7/8 7/8/9
f 28/18/19 14/15/16 29/16/17
f 30/14/15 14/15/16 31/19/20
f 24/20/21 23/2/2 8/3/3
f 10/5/6 14/15/22 11/4/5
f 4/21/23 5/12/13 17/13/13
f 13/12/14 7/8/9 20/22/24
f 7/8/9 16/3/4 22/1/25
f 22/1/25 20/22/24 7/8/9
f 20/22/24 18/11/26 13/12/14
f 24/20/21 8/3/3 25/23/27
f 7/26/9 10/25/6 16/24/4
f 8/3/3 3/4/28 25/23/27
f 9/28/31 3/4/30 27/27/29
f 3/4/30 14/15/16 28/18/19
f 28/18/19 27/27/29 3/4/30
f 11/26/32 9/25/32 25/24/32
# 25 facets

