#  ==========================================================================
#  
#  Wavefront OBJ format exported by Red-i Productions' "Riptide Pro"
#     (a commercial plugin for Cinema 4D PC & Mac, R9.6 or later)
#  
#  Red-i Productions
#  http://skinprops.com
#  
#  ==========================================================================
mtllib HAND_new_91.mtl
v -12.4739 12.6595 -0.175957
v -22.48 10.8247 -11.4611
v -11.7844 12.0221 -2.62861
v -11.8634 12.5632 -0.650713
v -11.8219 12.3458 -1.79669
v -11.8771 12.5875 -0.198306
v -30.9277 11.8908 -6.14495
v -31.4066 12.67 -1.79101
v -30.1964 9.82256 -13.5677
v -31.5298 12.8222 -0.63022
v -11.418 9.63355 -11.9929
v -21.8366 10.0725 -13.0393
v -17.835 10.0812 -12.6525
# 13 vertices

vt 0.65395 0.45382
vt 0.65814 0.44748
vt 0.65726 0.45036
vt 0.63143 0.41239
vt 0.60053 0.42323
vt 0.60924 0.40186
vt 0.65616 0.45403
vt 0.65578 0.45550
vt 0.64739 0.41116
vt 0.63501 0.40729
vt 0.59550 0.43664
vt 0.59411 0.44051
vt 0.66744 0.41700
# 13 texture coordinates

vn -0.0368238 0.981218 -0.189357
vn -0.0479232 0.961006 -0.272342
vn -0.22813 0.934665 -0.272685
vn 0.0274688 0.959904 -0.278981
vn -0.0180269 0.974413 -0.224043
vn -0.0251663 0.935366 -0.352785
vn 0.064214 0.990898 -0.118308
vn 0.117755 0.991801 -0.0496473
vn 0.0746339 0.950352 -0.302094
vn 0.0192789 0.905568 -0.423762
vn 0.0137539 0.987171 -0.159075
vn 0.0115346 0.991606 -0.128783
vn 0.0923208 0.965696 -0.242711
# 13 vertex normals

usemtl Mat
f 5/3/3 3/2/2 1/1/1
f 9/6/6 7/5/5 2/4/4
f 5/3/3 1/1/1 4/7/7
f 4/7/7 1/1/1 6/8/8
f 12/10/10 2/4/4 13/9/9
f 2/4/4 1/1/1 3/2/2
f 8/11/11 2/4/4 7/5/5
f 10/12/12 1/1/1 8/11/11
f 8/11/11 1/1/1 2/4/4
f 9/6/6 2/4/4 12/10/10
f 13/9/9 3/2/2 11/13/13
f 13/9/9 2/4/4 3/2/2
# 12 facets

