#  ==========================================================================
#  
#  Wavefront OBJ format exported by Red-i Productions' "Riptide Pro"
#     (a commercial plugin for Cinema 4D PC & Mac, R9.6 or later)
#  
#  Red-i Productions
#  http://skinprops.com
#  
#  ==========================================================================
mtllib HAND_new_7.mtl
v 71.0694 3.14187 10.1514
v 77.8673 3.75082 2.24712
v 80.8665 -0.632311 8.21213
v 77.1502 1.89915 7.81956
v 79.2301 -4.12833 11.1242
v 79.9131 -4.9976 9.78506
v 66.9922 5.68312 5.37099
v 78.7729 3.68878 5.48622
v 79.3509 -1.88064 -2.8009
v 75.0036 0.618771 10.6961
v 68.1434 4.50421 -1.04373
v 76.4006 3.11064 0.834303
v 71.301 3.71075 -1.5771
v 80.9579 3.28811 3.78859
v 63.7603 4.54175 9.56251
v 63.8344 5.70454 6.57623
v 63.6602 5.89387 5.67145
v 63.4367 5.81128 3.68619
v 63.1386 5.40437 0.989167
v 62.8299 5.43044 -1.04063
v 79.7466 -0.596363 -0.944199
v 80.314 1.27902 0.167767
v 80.5716 2.18668 1.22555
v 80.7107 2.64591 1.90384
v 80.8972 3.22609 5.36546
v 80.9276 1.18495 7.54922
v 80.9227 2.98479 5.64703
# 27 vertices

vt 0.85052 0.78610
vt 0.84412 0.79737
vt 0.84717 0.78489
vt 0.82983 0.85362
vt 0.82514 0.85127
vt 0.83663 0.83875
vt 0.78154 0.82469
vt 0.80212 0.81135
vt 0.78303 0.83455
vt 0.87371 0.79933
vt 0.86314 0.81584
vt 0.86693 0.79483
vt 0.82834 0.83884
vt 0.81205 0.84117
vt 0.81723 0.83453
vt 0.81368 0.84076
vt 0.85803 0.82824
vt 0.84237 0.86570
vt 0.81648 0.79806
vt 0.81006 0.82508
vt 0.85728 0.78962
vt 0.83527 0.85742
vt 0.79682 0.84024
vt 0.80346 0.83774
vt 0.78281 0.83652
vt 0.81731 0.84526
vt 0.83287 0.78010
vt 0.82270 0.84939
# 28 texture coordinates

vn 0.0693612 0.995043 0.0712584
vn 0.127092 0.991158 0.0381198
vn 0.124393 0.943614 0.306789
vn 0.153063 0.609971 -0.777501
vn 0.224474 0.749721 -0.622518
vn 0.265471 0.749835 -0.60603
vn 0.748159 0.66178 -0.0480042
vn 0.625507 0.649619 0.43213
vn 0.577288 0.549762 0.603738
vn 0.171703 0.985057 -0.0134634
vn 0.181626 0.954937 -0.234751
vn 0.131804 0.984968 -0.111651
vn 0.226237 0.905295 -0.359525
vn 0.191613 0.733977 0.651584
vn 0.22631 0.854773 0.467062
vn 0.218198 0.909261 0.354449
vn 0.303267 0.850533 -0.429678
vn 0.416511 0.683109 -0.599901
vn 0.249242 0.833322 0.493409
vn 0.31455 0.535708 0.783629
vn 0.0851813 0.990882 -0.104388
vn 0.277571 0.607572 -0.744184
vn 0.122488 0.325232 0.937668
vn 0.169733 0.602549 0.779824
vn 0.215806 0.972424 -0.0884301
vn 0.147121 0.920471 0.36206
vn 0.256043 0.822715 -0.507525
# 27 vertex normals

usemtl Mat
f 16/3/3 7/2/2 17/1/1
f 12/6/6 23/5/5 22/4/4
f 6/9/9 10/8/8 5/7/7
f 19/12/12 11/11/11 20/10/10
f 12/6/6 11/11/11 2/13/13
f 25/16/16 8/15/15 27/14/14
f 9/18/18 13/17/17 12/6/6
f 4/20/20 8/15/15 1/19/19
f 12/6/6 13/17/17 11/11/11
f 2/13/13 11/11/11 7/2/2
f 6/9/9 4/20/20 10/8/8
f 17/1/1 7/2/2 18/21/21
f 1/19/19 8/15/15 7/2/2
f 22/4/4 21/22/22 12/6/6
f 26/24/24 4/20/20 3/23/23
f 1/19/19 10/8/8 4/20/20
f 3/23/23 4/20/20 6/25/9
f 14/26/25 7/2/2 8/15/15
f 14/26/25 2/13/13 7/2/2
f 15/27/26 1/19/19 16/3/3
f 1/19/19 7/2/2 16/3/3
f 18/21/21 7/2/2 19/12/12
f 7/2/2 11/11/11 19/12/12
f 9/18/18 12/6/6 21/22/22
f 23/5/5 12/6/6 24/28/27
f 12/6/6 2/13/13 24/28/27
f 24/28/27 2/13/13 14/26/25
f 14/26/25 8/15/15 25/16/16
f 27/14/14 8/15/15 26/24/24
f 8/15/15 4/20/20 26/24/24
# 30 facets

