# 18 vertices
v 11.4192 -12.0641 13.9153
v 6.34779 -15.3063 6.14358
v 12.8575 -15.2417 7.33481
v 5.13009 -12.1465 9.74167
v 11.9324 -16.4926 4.34563
v 14.5842 -13.1215 11.6119
v 19.4614 -15.6035 4.38271
v 18.5405 -13.8169 13.5004
v 18.8778 -14.7784 8.25446
v 18.549 -13.0642 14.8135
v 17.5464 -12.6558 14.7379
v 15.7791 -11.8969 14.4395
v 5.1173 -11.0554 12.7166
v 4.97947 -16.6415 3.41293
v 5.11597 -11.1251 12.1755
v 5.00916 -15.4156 6.05101
v 5.09092 -12.1675 9.71887
v 5.09207 -12.1213 9.78496
# 23 texture coordinates
vt 0.71182 0.63540
vt 0.71452 0.64087
vt 0.70572 0.64492
vt 0.95266 0.13885
vt 0.96814 0.14850
vt 0.95989 0.15643
vt 0.70666 0.65830
vt 0.68257 0.65306
vt 0.67956 0.63771
vt 0.70823 0.62442
vt 0.69718 0.62044
vt 0.70720 0.61749
vt 0.70465 0.63250
vt 0.67896 0.65435
vt 0.68217 0.66372
vt 0.95263 0.12785
vt 0.96640 0.15590
vt 0.97201 0.15315
vt 0.96326 0.15756
vt 0.67778 0.62702
vt 0.67945 0.63784
vt 0.67747 0.62992
vt 0.67942 0.63757
# 18 vertex normals
vn -0.190746 -0.920778 0.340271
vn -0.000518848 -0.949648 0.313318
vn -0.0248458 -0.885505 0.463964
vn -0.241024 -0.956593 0.163823
vn -0.328757 -0.869529 0.368562
vn 0.000424679 -0.913878 0.405988
vn -0.0313265 -0.853217 0.520614
vn -0.113297 -0.827522 0.549882
vn -0.102276 -0.949841 0.295535
vn -0.217596 -0.858761 0.463877
vn 0.0304274 -0.836295 0.547435
vn 0.00139691 -0.898637 0.43869
vn -0.379906 -0.791954 0.477996
vn -0.363822 -0.807093 0.46501
vn -0.193447 -0.968889 0.154378
vn 0.0153079 -0.748721 0.662708
vn -0.184905 -0.948998 0.255367
vn -0.169053 -0.909168 0.38057
# 18 facets
f 3/3/3 7/2/2 6/1/1
f 8/6/5 6/5/1 9/4/4
f 7/2/2 3/3/3 5/7/6
f 3/3/3 4/9/8 2/8/7
f 12/12/10 1/11/9 6/10/1
f 3/3/3 6/13/1 4/9/8
f 5/7/6 3/3/3 2/8/7
f 14/15/12 2/8/7 16/14/11
f 9/4/4 6/5/1 7/16/2
f 12/18/10 6/5/1 11/17/13
f 11/17/13 8/6/5 10/19/14
f 11/17/13 6/5/1 8/6/5
f 5/7/6 2/8/7 14/15/12
f 6/13/1 1/11/9 13/20/15
f 16/14/11 2/8/7 4/9/8 17/21/16
f 18/23/18 6/13/1 15/22/17
f 13/20/15 15/22/17 6/13/1
f 18/23/18 4/9/8 6/13/1
